<svg xmlns="http://www.w3.org/2000/svg" xmlns:xlink="http://www.w3.org/1999/xlink" contentStyleType="text/css" data-diagram-type="DESCRIPTION" height="661px" preserveAspectRatio="none" style="width:437px;height:661px;background:#FFFFFF;" version="1.1" viewBox="0 0 437 661" width="437px" zoomAndPan="magnify"><?plantuml 1.2026.4?><defs/><g><g class="title" data-source-line="1"><text fill="#000000" font-family="sans-serif" font-size="14" font-weight="700" lengthAdjust="spacing" textLength="305.9355" x="62.0322" y="24.5332">Attijari Compass - Cas d'utilisation principaux</text></g><!--cluster Attijari Compass--><g class="cluster" data-qualified-name="Attijari Compass" data-source-line="12" id="ent0005"><rect fill="none" height="602" rx="2.5" ry="2.5" style="stroke:#181818;stroke-width:1;" width="211" x="212" y="45.6094"/><text fill="#000000" font-family="sans-serif" font-size="14" font-weight="700" lengthAdjust="spacing" textLength="111.248" x="261.876" y="62.1426">Attijari Compass</text></g><!--entity Auth--><g class="entity" data-qualified-name="Attijari Compass.Auth" data-source-line="13" id="ent0006"><ellipse cx="317.5157" cy="102.4125" fill="#F1F1F1" rx="89.5157" ry="20.3031" style="stroke:#181818;stroke-width:0.5;"/><text fill="#000000" font-family="sans-serif" font-size="14" lengthAdjust="spacing" textLength="148.9551" x="243.0382" y="107.7172">S'inscrire / se connecter</text></g><!--entity Tx--><g class="entity" data-qualified-name="Attijari Compass.Tx" data-source-line="14" id="ent0007"><ellipse cx="317.5376" cy="176.4169" fill="#F1F1F1" rx="77.0376" ry="17.8075" style="stroke:#181818;stroke-width:0.5;"/><text fill="#000000" font-family="sans-serif" font-size="14" lengthAdjust="spacing" textLength="119.0547" x="258.0103" y="181.7216">Suivre transactions</text></g><!--entity Cards--><g class="entity" data-qualified-name="Attijari Compass.Cards" data-source-line="15" id="ent0008"><ellipse cx="317.5128" cy="245.5611" fill="#F1F1F1" rx="58.0128" ry="15.4517" style="stroke:#181818;stroke-width:0.5;"/><text fill="#000000" font-family="sans-serif" font-size="14" lengthAdjust="spacing" textLength="77.7998" x="278.6129" y="250.8658">Gerer cartes</text></g><!--entity BudgetGoals--><g class="entity" data-qualified-name="Attijari Compass.BudgetGoals" data-source-line="16" id="ent0009"><ellipse cx="317.302" cy="314.6698" fill="#F1F1F1" rx="78.302" ry="18.0604" style="stroke:#181818;stroke-width:0.5;"/><text fill="#000000" font-family="sans-serif" font-size="14" lengthAdjust="spacing" textLength="122.1855" x="256.2092" y="319.9745">Budgets et objectifs</text></g><!--entity Dash--><g class="entity" data-qualified-name="Attijari Compass.Dash" data-source-line="17" id="ent0010"><ellipse cx="317.3977" cy="387.5889" fill="#F1F1F1" rx="85.3977" ry="19.4795" style="stroke:#181818;stroke-width:0.5;"/><text fill="#000000" font-family="sans-serif" font-size="14" lengthAdjust="spacing" textLength="139.3027" x="247.7463" y="392.8936">Dashboard et rapports</text></g><!--entity RecoSim--><g class="entity" data-qualified-name="Attijari Compass.RecoSim" data-source-line="18" id="ent0011"><ellipse cx="317.6033" cy="538.6753" fill="#F1F1F1" rx="81.1033" ry="26.5659" style="stroke:#181818;stroke-width:0.5;"/><text fill="#000000" font-family="sans-serif" font-size="14" lengthAdjust="spacing" textLength="116.7236" x="259.2415" y="537.1238">Recommandations</text><text fill="#000000" font-family="sans-serif" font-size="14" lengthAdjust="spacing" textLength="87.1445" x="274.031" y="554.7332">et simulateurs</text></g><!--entity Chat--><g class="entity" data-qualified-name="Attijari Compass.Chat" data-source-line="19" id="ent0012"><ellipse cx="317.3377" cy="459.3769" fill="#F1F1F1" rx="71.8377" ry="16.7675" style="stroke:#181818;stroke-width:0.5;"/><text fill="#000000" font-family="sans-serif" font-size="14" lengthAdjust="spacing" textLength="105.8408" x="264.4173" y="464.6816">Chatbot financier</text></g><!--entity AdminUC--><g class="entity" data-qualified-name="Attijari Compass.AdminUC" data-source-line="20" id="ent0013"><ellipse cx="317.491" cy="615.6076" fill="#F1F1F1" rx="65.491" ry="15.4982" style="stroke:#181818;stroke-width:0.5;"/><text fill="#000000" font-family="sans-serif" font-size="14" lengthAdjust="spacing" textLength="88.7031" x="273.1394" y="620.9123">Administration</text></g><!--entity Visitor--><g class="entity" data-qualified-name="Visitor" data-source-line="7" id="ent0001"><ellipse cx="136.8413" cy="72.1094" fill="#F1F1F1" rx="8" ry="8" style="stroke:#181818;stroke-width:0.5;"/><path d="M136.8413,80.1094 L136.8413,107.1094 M123.8413,88.1094 L149.8413,88.1094 M136.8413,107.1094 L123.8413,122.1094 M136.8413,107.1094 L149.8413,122.1094" fill="none" style="stroke:#181818;stroke-width:0.5;"/><text fill="#000000" font-family="sans-serif" font-size="14" lengthAdjust="spacing" textLength="46.6826" x="113.5" y="138.1426">Visiteur</text></g><!--entity User--><g class="entity" data-qualified-name="User" data-source-line="8" id="ent0002"><ellipse cx="137.1206" cy="357.1094" fill="#F1F1F1" rx="8" ry="8" style="stroke:#181818;stroke-width:0.5;"/><path d="M137.1206,365.1094 L137.1206,392.1094 M124.1206,373.1094 L150.1206,373.1094 M137.1206,392.1094 L124.1206,407.1094 M137.1206,392.1094 L150.1206,407.1094" fill="none" style="stroke:#181818;stroke-width:0.5;"/><text fill="#000000" font-family="sans-serif" font-size="14" lengthAdjust="spacing" textLength="62.2412" x="106" y="423.1426">Utilisateur</text></g><!--entity Admin--><g class="entity" data-qualified-name="Admin" data-source-line="9" id="ent0003"><ellipse cx="25.8413" cy="477.1094" fill="#F1F1F1" rx="8" ry="8" style="stroke:#181818;stroke-width:0.5;"/><path d="M25.8413,485.1094 L25.8413,512.1094 M12.8413,493.1094 L38.8413,493.1094 M25.8413,512.1094 L12.8413,527.1094 M25.8413,512.1094 L38.8413,527.1094" fill="none" style="stroke:#181818;stroke-width:0.5;"/><text fill="#000000" font-family="sans-serif" font-size="14" lengthAdjust="spacing" textLength="39.6826" x="6" y="543.1426">Admin</text></g><!--entity AI--><g class="entity" data-qualified-name="AI" data-source-line="10" id="ent0004"><ellipse cx="137.1724" cy="476.1094" fill="#F1F1F1" rx="8" ry="8" style="stroke:#181818;stroke-width:0.5;"/><path d="M137.1724,484.1094 L137.1724,511.1094 M124.1724,492.1094 L150.1724,492.1094 M137.1724,511.1094 L124.1724,526.1094 M137.1724,511.1094 L150.1724,526.1094" fill="none" style="stroke:#181818;stroke-width:0.5;"/><text fill="#000000" font-family="sans-serif" font-size="14" lengthAdjust="spacing" textLength="44.3447" x="115" y="542.1426">IA / ML</text></g><!--link Visitor to Auth--><g class="link" data-entity-1="ent0001" data-entity-2="ent0006" data-link-type="dependency" data-source-line="23" id="lnk14"><path d="M160.61,102.6094 C177.87,102.6094 197.86,102.6094 222.79,102.6094" fill="none" id="Visitor-to-Auth" style="stroke:#181818;stroke-width:1;"/><polygon fill="#181818" points="227.79,102.6094,218.79,98.6094,222.79,102.6094,218.79,106.6094,227.79,102.6094" style="stroke:#181818;stroke-width:1;stroke-linejoin:miter;stroke-miterlimit:10;"/></g><!--link User to Tx--><g class="link" data-entity-1="ent0002" data-entity-2="ent0007" data-link-type="dependency" data-source-line="24" id="lnk15"><path d="M142.8,348.4394 C149.67,308.9294 165.99,248.7294 204,212.6094 C217.3,199.9694 230.2771,193.2167 247.7371,187.8967" fill="none" id="User-to-Tx" style="stroke:#181818;stroke-width:1;"/><polygon fill="#181818" points="252.52,186.4394,242.7449,185.2363,247.7371,187.8967,245.0766,192.8889,252.52,186.4394" style="stroke:#181818;stroke-width:1;stroke-linejoin:miter;stroke-miterlimit:10;"/></g><!--link User to Cards--><g class="link" data-entity-1="ent0002" data-entity-2="ent0008" data-link-type="dependency" data-source-line="25" id="lnk16"><path d="M153.04,348.4594 C163.91,325.0594 180.77,296.4894 204,278.6094 C221.58,265.0794 239.7161,258.205 260.3361,253.485" fill="none" id="User-to-Cards" style="stroke:#181818;stroke-width:1;"/><polygon fill="#181818" points="265.21,252.3694,255.5444,250.4784,260.3361,253.485,257.3294,258.2767,265.21,252.3694" style="stroke:#181818;stroke-width:1;stroke-linejoin:miter;stroke-miterlimit:10;"/></g><!--link User to BudgetGoals--><g class="link" data-entity-1="ent0002" data-entity-2="ent0009" data-link-type="dependency" data-source-line="26" id="lnk17"><path d="M168.24,368.9694 C179.25,362.6394 191.95,355.8494 204,350.6094 C223.84,341.9794 241.646,335.8033 261.356,329.8133" fill="none" id="User-to-BudgetGoals" style="stroke:#181818;stroke-width:1;"/><polygon fill="#181818" points="266.14,328.3594,256.3658,327.1492,261.356,329.8133,258.692,334.8035,266.14,328.3594" style="stroke:#181818;stroke-width:1;stroke-linejoin:miter;stroke-miterlimit:10;"/></g><!--link User to Dash--><g class="link" data-entity-1="ent0002" data-entity-2="ent0010" data-link-type="dependency" data-source-line="27" id="lnk18"><path d="M168.28,387.6094 C185.89,387.6094 204.03,387.6094 226.79,387.6094" fill="none" id="User-to-Dash" style="stroke:#181818;stroke-width:1;"/><polygon fill="#181818" points="231.79,387.6094,222.79,383.6094,226.79,387.6094,222.79,391.6094,231.79,387.6094" style="stroke:#181818;stroke-width:1;stroke-linejoin:miter;stroke-miterlimit:10;"/></g><!--link User to RecoSim--><g class="link" data-entity-1="ent0002" data-entity-2="ent0011" data-link-type="dependency" data-source-line="28" id="lnk19"><path d="M158.9,426.6194 C173.45,452.6394 192.28,483.7994 204,493.6094 C218.59,505.8294 232.2648,513.2406 249.8748,520.0306" fill="none" id="User-to-RecoSim" style="stroke:#181818;stroke-width:1;"/><polygon fill="#181818" points="254.54,521.8294,247.5816,514.8594,249.8748,520.0306,244.7036,522.3237,254.54,521.8294" style="stroke:#181818;stroke-width:1;stroke-linejoin:miter;stroke-miterlimit:10;"/></g><!--link User to Chat--><g class="link" data-entity-1="ent0002" data-entity-2="ent0012" data-link-type="dependency" data-source-line="29" id="lnk20"><path d="M168.21,406.2994 C179.22,412.6394 191.93,419.4194 204,424.6094 C224.67,433.4994 243.5497,439.8105 263.8297,445.7205" fill="none" id="User-to-Chat" style="stroke:#181818;stroke-width:1;"/><polygon fill="#181818" points="268.63,447.1194,261.1086,440.7611,263.8297,445.7205,258.8703,448.4416,268.63,447.1194" style="stroke:#181818;stroke-width:1;stroke-linejoin:miter;stroke-miterlimit:10;"/></g><!--link Admin to AdminUC--><g class="link" data-entity-1="ent0003" data-entity-2="ent0013" data-link-type="dependency" data-source-line="30" id="lnk21"><path d="M46.18,524.3394 C61.44,536.8394 83.84,553.4594 106,563.6094 C155.97,586.4894 212.4832,599.3368 256.0532,606.8768" fill="none" id="Admin-to-AdminUC" style="stroke:#181818;stroke-width:1;"/><polygon fill="#181818" points="260.98,607.7294,252.7939,602.2533,256.0532,606.8768,251.4297,610.1361,260.98,607.7294" style="stroke:#181818;stroke-width:1;stroke-linejoin:miter;stroke-miterlimit:10;"/></g><!--link Admin to User--><g class="link" data-entity-1="ent0003" data-entity-2="ent0002" data-link-type="extension" data-source-line="31" id="lnk22"><path d="M46.24,486.4294 C62.74,468.2694 74.6963,455.1023 93.7563,434.1223" fill="none" id="Admin-to-User" style="stroke:#181818;stroke-width:1;"/><polygon fill="none" points="105.86,420.7994,89.3153,430.0878,98.1973,438.1569,105.86,420.7994" style="stroke:#181818;stroke-width:1;stroke-linejoin:miter;stroke-miterlimit:10;"/></g><!--link AI to RecoSim--><g class="link" data-entity-1="ent0004" data-entity-2="ent0011" data-link-type="dependency" data-source-line="32" id="lnk23"><path d="M159.18,510.4094 C180.6,514.2494 209.9885,519.5169 241.1085,525.0969" fill="none" id="AI-to-RecoSim" style="stroke:#181818;stroke-width:1;"/><polygon fill="#181818" points="246.03,525.9794,237.8772,520.4537,241.1085,525.0969,236.4653,528.3282,246.03,525.9794" style="stroke:#181818;stroke-width:1;stroke-linejoin:miter;stroke-miterlimit:10;"/></g><!--link AI to Chat--><g class="link" data-entity-1="ent0004" data-entity-2="ent0012" data-link-type="dependency" data-source-line="33" id="lnk24"><path d="M159.18,501.0294 C185.96,493.9794 228.0349,482.9029 263.6849,473.5129" fill="none" id="AI-to-Chat" style="stroke:#181818;stroke-width:1;"/><polygon fill="#181818" points="268.52,472.2394,258.798,470.6637,263.6849,473.5129,260.8357,478.3998,268.52,472.2394" style="stroke:#181818;stroke-width:1;stroke-linejoin:miter;stroke-miterlimit:10;"/></g><?plantuml-src NLBBJiCm4BpxArQzz5Jn1vL2aAfASA6K4vUjupPB4ploRg08-7VyIDAKctTdPX-p5fB6G252x-W9IjTso0mhA96XMlP23J4AEGkT9wkfm_wYL6EE0kB0qwaMgCWR7JcApsGxzDW2rrYvJx8dE6B3PeQW5kTtyXNwif0-AvKoi7Wb9Z6zNq3edGBdHsm_33B2UpOJLbGjsPHDhp6zBU0EdXupi5KgpeZs5Dek_k-xW6y5qBFHo07UBScozc6hK24ajBCsY4rkNVHItx1x-WXCyMWPamsSU2-NEMjZlF6WqOl9S8c-uZdZlgzEHXYCW3kyHqEFcPc1ZGi-plaFoFN1XIfHuR7hd9SiYCYS-MoqQrkqLJealzaWO6hx9lcPDP6petOkAskKWnCuaiLm-M7zc9spakV4OVrO_7g6VQb-bHhE2AlLEXiN3vUYOC_qpbvCuNpXAPcMcg9nt6k9E5Pgd7iD8uoPdtN-CiNsHZw4KVm7?></g></svg>