<svg xmlns="http://www.w3.org/2000/svg" xmlns:xlink="http://www.w3.org/1999/xlink" contentStyleType="text/css" data-diagram-type="CLASS" height="276px" preserveAspectRatio="none" style="width:873px;height:276px;background:#FFFFFF;" version="1.1" viewBox="0 0 873 276" width="873px" zoomAndPan="magnify"><?plantuml 1.2026.4?><defs/><g><g class="title" data-source-line="1"><text fill="#000000" font-family="sans-serif" font-size="14" font-weight="700" lengthAdjust="spacing" textLength="305.8057" x="280.4472" y="24.5332">Attijari Compass - Classes metier essentielles</text></g><!--class User--><g class="entity" data-qualified-name="User" data-source-line="7" id="ent0001"><rect fill="#F1F1F1" height="32" rx="2.5" ry="2.5" style="stroke:#181818;stroke-width:0.5;" width="61.5586" x="424.5" y="45.6094"/><ellipse cx="439.5" cy="61.6094" fill="#ADD1B2" rx="11" ry="11" style="stroke:#181818;stroke-width:1;"/><path d="M442.2656,57.4844 Q442.4219,57.2656 442.6094,57.1563 Q442.7969,57.0469 443.0156,57.0469 Q443.3906,57.0469 443.625,57.3125 Q443.8594,57.5625 443.8594,58.1719 L443.8594,59.625 Q443.8594,60.2344 443.625,60.5 Q443.3906,60.7656 443.0156,60.7656 Q442.6719,60.7656 442.4688,60.5625 Q442.2656,60.375 442.1563,59.8594 Q442.1094,59.5 441.9219,59.3125 Q441.5938,58.9375 440.9844,58.7188 Q440.375,58.5 439.75,58.5 Q438.9844,58.5 438.3438,58.8281 Q437.7188,59.1563 437.2188,59.9063 Q436.7344,60.6563 436.7344,61.6875 L436.7344,62.7813 Q436.7344,64.0156 437.625,64.8438 Q438.5156,65.6563 440.1094,65.6563 Q441.0469,65.6563 441.7031,65.4063 Q442.0938,65.25 442.5156,64.8125 Q442.7813,64.5469 442.9219,64.4688 Q443.0781,64.3906 443.2813,64.3906 Q443.6094,64.3906 443.8594,64.6563 Q444.125,64.9063 444.125,65.25 Q444.125,65.5938 443.7813,66 Q443.2813,66.5781 442.4844,66.9063 Q441.4063,67.3594 440.1094,67.3594 Q438.5938,67.3594 437.3906,66.7344 Q436.4063,66.2344 435.7188,65.1719 Q435.0313,64.0938 435.0313,62.8125 L435.0313,61.6563 Q435.0313,60.3281 435.6406,59.1875 Q436.2656,58.0313 437.3594,57.4219 Q438.4531,56.7969 439.6875,56.7969 Q440.4219,56.7969 441.0625,56.9688 Q441.7188,57.125 442.2656,57.4844 Z " fill="#000000"/><text fill="#000000" font-family="sans-serif" font-size="14" lengthAdjust="spacing" textLength="29.5586" x="453.5" y="67.3379">User</text></g><!--class Transaction--><g class="entity" data-qualified-name="Transaction" data-source-line="8" id="ent0002"><rect fill="#F1F1F1" height="32" rx="2.5" ry="2.5" style="stroke:#181818;stroke-width:0.5;" width="105.1445" x="479" y="229.6094"/><ellipse cx="494" cy="245.6094" fill="#ADD1B2" rx="11" ry="11" style="stroke:#181818;stroke-width:1;"/><path d="M496.7656,241.4844 Q496.9219,241.2656 497.1094,241.1563 Q497.2969,241.0469 497.5156,241.0469 Q497.8906,241.0469 498.125,241.3125 Q498.3594,241.5625 498.3594,242.1719 L498.3594,243.625 Q498.3594,244.2344 498.125,244.5 Q497.8906,244.7656 497.5156,244.7656 Q497.1719,244.7656 496.9688,244.5625 Q496.7656,244.375 496.6563,243.8594 Q496.6094,243.5 496.4219,243.3125 Q496.0938,242.9375 495.4844,242.7188 Q494.875,242.5 494.25,242.5 Q493.4844,242.5 492.8438,242.8281 Q492.2188,243.1563 491.7188,243.9063 Q491.2344,244.6563 491.2344,245.6875 L491.2344,246.7813 Q491.2344,248.0156 492.125,248.8438 Q493.0156,249.6563 494.6094,249.6563 Q495.5469,249.6563 496.2031,249.4063 Q496.5938,249.25 497.0156,248.8125 Q497.2813,248.5469 497.4219,248.4688 Q497.5781,248.3906 497.7813,248.3906 Q498.1094,248.3906 498.3594,248.6563 Q498.625,248.9063 498.625,249.25 Q498.625,249.5938 498.2813,250 Q497.7813,250.5781 496.9844,250.9063 Q495.9063,251.3594 494.6094,251.3594 Q493.0938,251.3594 491.8906,250.7344 Q490.9063,250.2344 490.2188,249.1719 Q489.5313,248.0938 489.5313,246.8125 L489.5313,245.6563 Q489.5313,244.3281 490.1406,243.1875 Q490.7656,242.0313 491.8594,241.4219 Q492.9531,240.7969 494.1875,240.7969 Q494.9219,240.7969 495.5625,240.9688 Q496.2188,241.125 496.7656,241.4844 Z " fill="#000000"/><text fill="#000000" font-family="sans-serif" font-size="14" lengthAdjust="spacing" textLength="73.1445" x="508" y="251.3379">Transaction</text></g><!--class UserCard--><g class="entity" data-qualified-name="UserCard" data-source-line="9" id="ent0003"><rect fill="#F1F1F1" height="32" rx="2.5" ry="2.5" style="stroke:#181818;stroke-width:0.5;" width="91.9033" x="28.5" y="137.6094"/><ellipse cx="43.5" cy="153.6094" fill="#ADD1B2" rx="11" ry="11" style="stroke:#181818;stroke-width:1;"/><path d="M46.2656,149.4844 Q46.4219,149.2656 46.6094,149.1563 Q46.7969,149.0469 47.0156,149.0469 Q47.3906,149.0469 47.625,149.3125 Q47.8594,149.5625 47.8594,150.1719 L47.8594,151.625 Q47.8594,152.2344 47.625,152.5 Q47.3906,152.7656 47.0156,152.7656 Q46.6719,152.7656 46.4688,152.5625 Q46.2656,152.375 46.1563,151.8594 Q46.1094,151.5 45.9219,151.3125 Q45.5938,150.9375 44.9844,150.7188 Q44.375,150.5 43.75,150.5 Q42.9844,150.5 42.3438,150.8281 Q41.7188,151.1563 41.2188,151.9063 Q40.7344,152.6563 40.7344,153.6875 L40.7344,154.7813 Q40.7344,156.0156 41.625,156.8438 Q42.5156,157.6563 44.1094,157.6563 Q45.0469,157.6563 45.7031,157.4063 Q46.0938,157.25 46.5156,156.8125 Q46.7813,156.5469 46.9219,156.4688 Q47.0781,156.3906 47.2813,156.3906 Q47.6094,156.3906 47.8594,156.6563 Q48.125,156.9063 48.125,157.25 Q48.125,157.5938 47.7813,158 Q47.2813,158.5781 46.4844,158.9063 Q45.4063,159.3594 44.1094,159.3594 Q42.5938,159.3594 41.3906,158.7344 Q40.4063,158.2344 39.7188,157.1719 Q39.0313,156.0938 39.0313,154.8125 L39.0313,153.6563 Q39.0313,152.3281 39.6406,151.1875 Q40.2656,150.0313 41.3594,149.4219 Q42.4531,148.7969 43.6875,148.7969 Q44.4219,148.7969 45.0625,148.9688 Q45.7188,149.125 46.2656,149.4844 Z " fill="#000000"/><text fill="#000000" font-family="sans-serif" font-size="14" lengthAdjust="spacing" textLength="59.9033" x="57.5" y="159.3379">UserCard</text></g><!--class CardCatalog--><g class="entity" data-qualified-name="CardCatalog" data-source-line="10" id="ent0004"><rect fill="#F1F1F1" height="32" rx="2.5" ry="2.5" style="stroke:#181818;stroke-width:0.5;" width="110.5996" x="19" y="45.6094"/><ellipse cx="34" cy="61.6094" fill="#ADD1B2" rx="11" ry="11" style="stroke:#181818;stroke-width:1;"/><path d="M36.7656,57.4844 Q36.9219,57.2656 37.1094,57.1563 Q37.2969,57.0469 37.5156,57.0469 Q37.8906,57.0469 38.125,57.3125 Q38.3594,57.5625 38.3594,58.1719 L38.3594,59.625 Q38.3594,60.2344 38.125,60.5 Q37.8906,60.7656 37.5156,60.7656 Q37.1719,60.7656 36.9688,60.5625 Q36.7656,60.375 36.6563,59.8594 Q36.6094,59.5 36.4219,59.3125 Q36.0938,58.9375 35.4844,58.7188 Q34.875,58.5 34.25,58.5 Q33.4844,58.5 32.8438,58.8281 Q32.2188,59.1563 31.7188,59.9063 Q31.2344,60.6563 31.2344,61.6875 L31.2344,62.7813 Q31.2344,64.0156 32.125,64.8438 Q33.0156,65.6563 34.6094,65.6563 Q35.5469,65.6563 36.2031,65.4063 Q36.5938,65.25 37.0156,64.8125 Q37.2813,64.5469 37.4219,64.4688 Q37.5781,64.3906 37.7813,64.3906 Q38.1094,64.3906 38.3594,64.6563 Q38.625,64.9063 38.625,65.25 Q38.625,65.5938 38.2813,66 Q37.7813,66.5781 36.9844,66.9063 Q35.9063,67.3594 34.6094,67.3594 Q33.0938,67.3594 31.8906,66.7344 Q30.9063,66.2344 30.2188,65.1719 Q29.5313,64.0938 29.5313,62.8125 L29.5313,61.6563 Q29.5313,60.3281 30.1406,59.1875 Q30.7656,58.0313 31.8594,57.4219 Q32.9531,56.7969 34.1875,56.7969 Q34.9219,56.7969 35.5625,56.9688 Q36.2188,57.125 36.7656,57.4844 Z " fill="#000000"/><text fill="#000000" font-family="sans-serif" font-size="14" lengthAdjust="spacing" textLength="78.5996" x="48" y="67.3379">CardCatalog</text></g><!--class CardTransaction--><g class="entity" data-qualified-name="CardTransaction" data-source-line="11" id="ent0005"><rect fill="#F1F1F1" height="32" rx="2.5" ry="2.5" style="stroke:#181818;stroke-width:0.5;" width="135.4893" x="7" y="229.6094"/><ellipse cx="22" cy="245.6094" fill="#ADD1B2" rx="11" ry="11" style="stroke:#181818;stroke-width:1;"/><path d="M24.7656,241.4844 Q24.9219,241.2656 25.1094,241.1563 Q25.2969,241.0469 25.5156,241.0469 Q25.8906,241.0469 26.125,241.3125 Q26.3594,241.5625 26.3594,242.1719 L26.3594,243.625 Q26.3594,244.2344 26.125,244.5 Q25.8906,244.7656 25.5156,244.7656 Q25.1719,244.7656 24.9688,244.5625 Q24.7656,244.375 24.6563,243.8594 Q24.6094,243.5 24.4219,243.3125 Q24.0938,242.9375 23.4844,242.7188 Q22.875,242.5 22.25,242.5 Q21.4844,242.5 20.8438,242.8281 Q20.2188,243.1563 19.7188,243.9063 Q19.2344,244.6563 19.2344,245.6875 L19.2344,246.7813 Q19.2344,248.0156 20.125,248.8438 Q21.0156,249.6563 22.6094,249.6563 Q23.5469,249.6563 24.2031,249.4063 Q24.5938,249.25 25.0156,248.8125 Q25.2813,248.5469 25.4219,248.4688 Q25.5781,248.3906 25.7813,248.3906 Q26.1094,248.3906 26.3594,248.6563 Q26.625,248.9063 26.625,249.25 Q26.625,249.5938 26.2813,250 Q25.7813,250.5781 24.9844,250.9063 Q23.9063,251.3594 22.6094,251.3594 Q21.0938,251.3594 19.8906,250.7344 Q18.9063,250.2344 18.2188,249.1719 Q17.5313,248.0938 17.5313,246.8125 L17.5313,245.6563 Q17.5313,244.3281 18.1406,243.1875 Q18.7656,242.0313 19.8594,241.4219 Q20.9531,240.7969 22.1875,240.7969 Q22.9219,240.7969 23.5625,240.9688 Q24.2188,241.125 24.7656,241.4844 Z " fill="#000000"/><text fill="#000000" font-family="sans-serif" font-size="14" lengthAdjust="spacing" textLength="103.4893" x="36" y="251.3379">CardTransaction</text></g><!--class BudgetTarget--><g class="entity" data-qualified-name="BudgetTarget" data-source-line="12" id="ent0006"><rect fill="#F1F1F1" height="32" rx="2.5" ry="2.5" style="stroke:#181818;stroke-width:0.5;" width="116.834" x="156" y="137.6094"/><ellipse cx="171" cy="153.6094" fill="#ADD1B2" rx="11" ry="11" style="stroke:#181818;stroke-width:1;"/><path d="M173.7656,149.4844 Q173.9219,149.2656 174.1094,149.1563 Q174.2969,149.0469 174.5156,149.0469 Q174.8906,149.0469 175.125,149.3125 Q175.3594,149.5625 175.3594,150.1719 L175.3594,151.625 Q175.3594,152.2344 175.125,152.5 Q174.8906,152.7656 174.5156,152.7656 Q174.1719,152.7656 173.9688,152.5625 Q173.7656,152.375 173.6563,151.8594 Q173.6094,151.5 173.4219,151.3125 Q173.0938,150.9375 172.4844,150.7188 Q171.875,150.5 171.25,150.5 Q170.4844,150.5 169.8438,150.8281 Q169.2188,151.1563 168.7188,151.9063 Q168.2344,152.6563 168.2344,153.6875 L168.2344,154.7813 Q168.2344,156.0156 169.125,156.8438 Q170.0156,157.6563 171.6094,157.6563 Q172.5469,157.6563 173.2031,157.4063 Q173.5938,157.25 174.0156,156.8125 Q174.2813,156.5469 174.4219,156.4688 Q174.5781,156.3906 174.7813,156.3906 Q175.1094,156.3906 175.3594,156.6563 Q175.625,156.9063 175.625,157.25 Q175.625,157.5938 175.2813,158 Q174.7813,158.5781 173.9844,158.9063 Q172.9063,159.3594 171.6094,159.3594 Q170.0938,159.3594 168.8906,158.7344 Q167.9063,158.2344 167.2188,157.1719 Q166.5313,156.0938 166.5313,154.8125 L166.5313,153.6563 Q166.5313,152.3281 167.1406,151.1875 Q167.7656,150.0313 168.8594,149.4219 Q169.9531,148.7969 171.1875,148.7969 Q171.9219,148.7969 172.5625,148.9688 Q173.2188,149.125 173.7656,149.4844 Z " fill="#000000"/><text fill="#000000" font-family="sans-serif" font-size="14" lengthAdjust="spacing" textLength="84.834" x="185" y="159.3379">BudgetTarget</text></g><!--class FinancialGoal--><g class="entity" data-qualified-name="FinancialGoal" data-source-line="13" id="ent0007"><rect fill="#F1F1F1" height="32" rx="2.5" ry="2.5" style="stroke:#181818;stroke-width:0.5;" width="117.5996" x="308.5" y="137.6094"/><ellipse cx="323.5" cy="153.6094" fill="#ADD1B2" rx="11" ry="11" style="stroke:#181818;stroke-width:1;"/><path d="M326.2656,149.4844 Q326.4219,149.2656 326.6094,149.1563 Q326.7969,149.0469 327.0156,149.0469 Q327.3906,149.0469 327.625,149.3125 Q327.8594,149.5625 327.8594,150.1719 L327.8594,151.625 Q327.8594,152.2344 327.625,152.5 Q327.3906,152.7656 327.0156,152.7656 Q326.6719,152.7656 326.4688,152.5625 Q326.2656,152.375 326.1563,151.8594 Q326.1094,151.5 325.9219,151.3125 Q325.5938,150.9375 324.9844,150.7188 Q324.375,150.5 323.75,150.5 Q322.9844,150.5 322.3438,150.8281 Q321.7188,151.1563 321.2188,151.9063 Q320.7344,152.6563 320.7344,153.6875 L320.7344,154.7813 Q320.7344,156.0156 321.625,156.8438 Q322.5156,157.6563 324.1094,157.6563 Q325.0469,157.6563 325.7031,157.4063 Q326.0938,157.25 326.5156,156.8125 Q326.7813,156.5469 326.9219,156.4688 Q327.0781,156.3906 327.2813,156.3906 Q327.6094,156.3906 327.8594,156.6563 Q328.125,156.9063 328.125,157.25 Q328.125,157.5938 327.7813,158 Q327.2813,158.5781 326.4844,158.9063 Q325.4063,159.3594 324.1094,159.3594 Q322.5938,159.3594 321.3906,158.7344 Q320.4063,158.2344 319.7188,157.1719 Q319.0313,156.0938 319.0313,154.8125 L319.0313,153.6563 Q319.0313,152.3281 319.6406,151.1875 Q320.2656,150.0313 321.3594,149.4219 Q322.4531,148.7969 323.6875,148.7969 Q324.4219,148.7969 325.0625,148.9688 Q325.7188,149.125 326.2656,149.4844 Z " fill="#000000"/><text fill="#000000" font-family="sans-serif" font-size="14" lengthAdjust="spacing" textLength="85.5996" x="337.5" y="159.3379">FinancialGoal</text></g><!--class UserNotificationState--><g class="entity" data-qualified-name="UserNotificationState" data-source-line="14" id="ent0008"><rect fill="#F1F1F1" height="32" rx="2.5" ry="2.5" style="stroke:#181818;stroke-width:0.5;" width="163.5029" x="461.5" y="137.6094"/><ellipse cx="476.5" cy="153.6094" fill="#ADD1B2" rx="11" ry="11" style="stroke:#181818;stroke-width:1;"/><path d="M479.2656,149.4844 Q479.4219,149.2656 479.6094,149.1563 Q479.7969,149.0469 480.0156,149.0469 Q480.3906,149.0469 480.625,149.3125 Q480.8594,149.5625 480.8594,150.1719 L480.8594,151.625 Q480.8594,152.2344 480.625,152.5 Q480.3906,152.7656 480.0156,152.7656 Q479.6719,152.7656 479.4688,152.5625 Q479.2656,152.375 479.1563,151.8594 Q479.1094,151.5 478.9219,151.3125 Q478.5938,150.9375 477.9844,150.7188 Q477.375,150.5 476.75,150.5 Q475.9844,150.5 475.3438,150.8281 Q474.7188,151.1563 474.2188,151.9063 Q473.7344,152.6563 473.7344,153.6875 L473.7344,154.7813 Q473.7344,156.0156 474.625,156.8438 Q475.5156,157.6563 477.1094,157.6563 Q478.0469,157.6563 478.7031,157.4063 Q479.0938,157.25 479.5156,156.8125 Q479.7813,156.5469 479.9219,156.4688 Q480.0781,156.3906 480.2813,156.3906 Q480.6094,156.3906 480.8594,156.6563 Q481.125,156.9063 481.125,157.25 Q481.125,157.5938 480.7813,158 Q480.2813,158.5781 479.4844,158.9063 Q478.4063,159.3594 477.1094,159.3594 Q475.5938,159.3594 474.3906,158.7344 Q473.4063,158.2344 472.7188,157.1719 Q472.0313,156.0938 472.0313,154.8125 L472.0313,153.6563 Q472.0313,152.3281 472.6406,151.1875 Q473.2656,150.0313 474.3594,149.4219 Q475.4531,148.7969 476.6875,148.7969 Q477.4219,148.7969 478.0625,148.9688 Q478.7188,149.125 479.2656,149.4844 Z " fill="#000000"/><text fill="#000000" font-family="sans-serif" font-size="14" lengthAdjust="spacing" textLength="131.5029" x="490.5" y="159.3379">UserNotificationState</text></g><!--class RefreshToken--><g class="entity" data-qualified-name="RefreshToken" data-source-line="15" id="ent0009"><rect fill="#F1F1F1" height="32" rx="2.5" ry="2.5" style="stroke:#181818;stroke-width:0.5;" width="119.9307" x="660.5" y="137.6094"/><ellipse cx="675.5" cy="153.6094" fill="#ADD1B2" rx="11" ry="11" style="stroke:#181818;stroke-width:1;"/><path d="M678.2656,149.4844 Q678.4219,149.2656 678.6094,149.1563 Q678.7969,149.0469 679.0156,149.0469 Q679.3906,149.0469 679.625,149.3125 Q679.8594,149.5625 679.8594,150.1719 L679.8594,151.625 Q679.8594,152.2344 679.625,152.5 Q679.3906,152.7656 679.0156,152.7656 Q678.6719,152.7656 678.4688,152.5625 Q678.2656,152.375 678.1563,151.8594 Q678.1094,151.5 677.9219,151.3125 Q677.5938,150.9375 676.9844,150.7188 Q676.375,150.5 675.75,150.5 Q674.9844,150.5 674.3438,150.8281 Q673.7188,151.1563 673.2188,151.9063 Q672.7344,152.6563 672.7344,153.6875 L672.7344,154.7813 Q672.7344,156.0156 673.625,156.8438 Q674.5156,157.6563 676.1094,157.6563 Q677.0469,157.6563 677.7031,157.4063 Q678.0938,157.25 678.5156,156.8125 Q678.7813,156.5469 678.9219,156.4688 Q679.0781,156.3906 679.2813,156.3906 Q679.6094,156.3906 679.8594,156.6563 Q680.125,156.9063 680.125,157.25 Q680.125,157.5938 679.7813,158 Q679.2813,158.5781 678.4844,158.9063 Q677.4063,159.3594 676.1094,159.3594 Q674.5938,159.3594 673.3906,158.7344 Q672.4063,158.2344 671.7188,157.1719 Q671.0313,156.0938 671.0313,154.8125 L671.0313,153.6563 Q671.0313,152.3281 671.6406,151.1875 Q672.2656,150.0313 673.3594,149.4219 Q674.4531,148.7969 675.6875,148.7969 Q676.4219,148.7969 677.0625,148.9688 Q677.7188,149.125 678.2656,149.4844 Z " fill="#000000"/><text fill="#000000" font-family="sans-serif" font-size="14" lengthAdjust="spacing" textLength="87.9307" x="689.5" y="159.3379">RefreshToken</text></g><!--link User to Transaction--><g class="link" data-entity-1="ent0001" data-entity-2="ent0002" data-link-type="association" data-source-line="17" id="lnk10"><path codeLine="17" d="M486.53,64.5794 C563.42,70.1694 759.37,88.9994 798.5,137.6094 C858.7,212.3994 677.9,235.1994 584.13,241.9194" fill="none" id="User-Transaction" style="stroke:#181818;stroke-width:1;"/><text fill="#000000" font-family="sans-serif" font-size="13" lengthAdjust="spacing" textLength="7.23" x="494.1569" y="61.0126">1</text><text fill="#000000" font-family="sans-serif" font-size="13" lengthAdjust="spacing" textLength="19.5127" x="592.114" y="237.9392">0..*</text></g><!--link User to UserCard--><g class="link" data-entity-1="ent0001" data-entity-2="ent0003" data-link-type="association" data-source-line="18" id="lnk11"><path codeLine="18" d="M424.32,69.9794 C357.32,85.7994 199.32,123.1194 120.66,141.7094" fill="none" id="User-UserCard" style="stroke:#181818;stroke-width:1;"/><text fill="#000000" font-family="sans-serif" font-size="13" lengthAdjust="spacing" textLength="7.23" x="409.3779" y="67.6007">1</text><text fill="#000000" font-family="sans-serif" font-size="13" lengthAdjust="spacing" textLength="19.5127" x="128.4111" y="136.3956">0..*</text></g><!--link User to BudgetTarget--><g class="link" data-entity-1="ent0001" data-entity-2="ent0006" data-link-type="association" data-source-line="19" id="lnk12"><path codeLine="19" d="M424.49,74.1894 C381.26,90.3294 302.85,119.6194 255.04,137.4694" fill="none" id="User-BudgetTarget" style="stroke:#181818;stroke-width:1;"/><text fill="#000000" font-family="sans-serif" font-size="13" lengthAdjust="spacing" textLength="7.23" x="409.16" y="92.7437">1</text><text fill="#000000" font-family="sans-serif" font-size="13" lengthAdjust="spacing" textLength="19.5127" x="246.8267" y="126.7268">0..*</text></g><!--link User to FinancialGoal--><g class="link" data-entity-1="ent0001" data-entity-2="ent0007" data-link-type="association" data-source-line="20" id="lnk13"><path codeLine="20" d="M440.57,77.8794 C424.29,94.5294 398.4,121.0094 382.21,137.5694" fill="none" id="User-FinancialGoal" style="stroke:#181818;stroke-width:1;"/><text fill="#000000" font-family="sans-serif" font-size="13" lengthAdjust="spacing" textLength="7.23" x="427.8024" y="99.1666">1</text><text fill="#000000" font-family="sans-serif" font-size="13" lengthAdjust="spacing" textLength="19.5127" x="365.1579" y="126.8612">0..*</text></g><!--link User to UserNotificationState--><g class="link" data-entity-1="ent0001" data-entity-2="ent0008" data-link-type="association" data-source-line="21" id="lnk14"><path codeLine="21" d="M470.43,77.8794 C486.71,94.5294 512.6,121.0094 528.79,137.5694" fill="none" id="User-UserNotificationState" style="stroke:#181818;stroke-width:1;"/><text fill="#000000" font-family="sans-serif" font-size="13" lengthAdjust="spacing" textLength="7.23" x="467.1803" y="99.1666">1</text><text fill="#000000" font-family="sans-serif" font-size="13" lengthAdjust="spacing" textLength="19.5127" x="501.6414" y="126.8612">0..*</text></g><!--link User to RefreshToken--><g class="link" data-entity-1="ent0001" data-entity-2="ent0009" data-link-type="association" data-source-line="22" id="lnk15"><path codeLine="22" d="M486.68,73.1994 C533.61,89.1394 622.6,119.3594 676.23,137.5794" fill="none" id="User-RefreshToken" style="stroke:#181818;stroke-width:1;"/><text fill="#000000" font-family="sans-serif" font-size="13" lengthAdjust="spacing" textLength="7.23" x="493.902" y="90.7712">1</text><text fill="#000000" font-family="sans-serif" font-size="13" lengthAdjust="spacing" textLength="21.6836" x="636.5322" y="126.8746">0..1</text></g><!--link UserCard to CardTransaction--><g class="link" data-entity-1="ent0003" data-entity-2="ent0005" data-link-type="association" data-source-line="23" id="lnk16"><path codeLine="23" d="M74.5,169.8794 C74.5,186.5294 74.5,213.0094 74.5,229.5694" fill="none" id="UserCard-CardTransaction" style="stroke:#181818;stroke-width:1;"/><text fill="#000000" font-family="sans-serif" font-size="13" lengthAdjust="spacing" textLength="7.23" x="66.4364" y="191.1666">1</text><text fill="#000000" font-family="sans-serif" font-size="13" lengthAdjust="spacing" textLength="19.5127" x="52.2384" y="218.8612">0..*</text></g><!--link UserCard to Transaction--><g class="link" data-entity-1="ent0003" data-entity-2="ent0002" data-link-type="association" data-source-line="24" id="lnk17"><path codeLine="24" d="M120.59,165.6494 C126.61,167.0294 132.7,168.3794 138.5,169.6094 C259.95,195.4194 403.4,221.7494 478.92,235.2894" fill="none" id="UserCard-Transaction" style="stroke:#181818;stroke-width:1;"/><text fill="#000000" font-family="sans-serif" font-size="13" lengthAdjust="spacing" textLength="21.6836" x="126.2458" y="163.838">0..1</text><text fill="#000000" font-family="sans-serif" font-size="13" lengthAdjust="spacing" textLength="19.5127" x="451.6027" y="230.3464">0..*</text></g><!--link CardCatalog to UserCard--><g class="link" data-entity-1="ent0004" data-entity-2="ent0003" data-link-type="association" data-source-line="25" id="lnk18"><path codeLine="25" d="M74.5,77.8794 C74.5,94.5294 74.5,121.0094 74.5,137.5694" fill="none" id="CardCatalog-UserCard" style="stroke:#181818;stroke-width:1;"/><text fill="#000000" font-family="sans-serif" font-size="13" lengthAdjust="spacing" textLength="7.23" x="66.4848" y="99.1666">1</text><text fill="#000000" font-family="sans-serif" font-size="13" lengthAdjust="spacing" textLength="19.5127" x="52.3391" y="126.8612">0..*</text></g><?plantuml-src TL71JiCm3BtdAwmU9tKQdp0gWRXmsCe7UAdRcgN9v7X2ukj9eK3QTPVasU_vwJbHLaUmL-Lt58Og31UC4KgeNBefma3A942fy0avHz6OU6P_GS41OezD-63VGOikKiROqI0P2v-kIYys-2D_4knCpmqbs-54ago-PV0MIIPO2_g8LZduZAnGcgaSOOMABdHPvtRiyTfqf3LAEgVM4tlqbj4z1tIP-sjGRjdYE7rKL9gu0xL2iQ_3cRmnenAAXmBA4ehTThifPc5NwB_aAzmitWe_pth7_3RuKfZGR8lVI0kpvHF-otuyrbVElkBEvby0?></g></svg>