<svg xmlns="http://www.w3.org/2000/svg" xmlns:xlink="http://www.w3.org/1999/xlink" contentStyleType="text/css" data-diagram-type="SEQUENCE" height="450px" preserveAspectRatio="none" style="width:552px;height:450px;background:#FFFFFF;" version="1.1" viewBox="0 0 552 450" width="552px" zoomAndPan="magnify"><?plantuml 1.2026.4?><defs/><g><g class="title" data-source-line="1"><text fill="#000000" font-family="sans-serif" font-size="14" font-weight="700" lengthAdjust="spacing" textLength="246.5723" x="149.2607" y="29.5332">Authentification JWT - Vue simplifiee</text></g><g class="participant-lifeline" data-entity-uid="part1" data-qualified-name="User" data-source-line="4" id="part1-lifeline"><g><title>Utilisateur</title><rect fill="#000000" fill-opacity="0.00000" height="245.4609" width="8" x="35.1206" y="121.2188"/><line style="stroke:#181818;stroke-width:0.5;stroke-dasharray:5,5;" x1="39" x2="39" y1="121.2188" y2="366.6797"/></g></g><g class="participant-lifeline" data-entity-uid="part2" data-qualified-name="Front" data-source-line="5" id="part2-lifeline"><g><title>Angular</title><rect fill="#000000" fill-opacity="0.00000" height="245.4609" width="8" x="184.4868" y="121.2188"/><line style="stroke:#181818;stroke-width:0.5;stroke-dasharray:5,5;" x1="188.3594" x2="188.3594" y1="121.2188" y2="366.6797"/></g></g><g class="participant-lifeline" data-entity-uid="part3" data-qualified-name="API" data-source-line="6" id="part3-lifeline"><g><title>API Spring Boot</title><rect fill="#000000" fill-opacity="0.00000" height="245.4609" width="8" x="328.4448" y="121.2188"/><line style="stroke:#181818;stroke-width:0.5;stroke-dasharray:5,5;" x1="331.6382" x2="331.6382" y1="121.2188" y2="366.6797"/></g></g><g class="participant-lifeline" data-entity-uid="part4" data-qualified-name="DB" data-source-line="7" id="part4-lifeline"><g><title>PostgreSQL</title><rect fill="#000000" fill-opacity="0.00000" height="245.4609" width="8" x="495.9629" y="121.2188"/><line style="stroke:#181818;stroke-width:0.5;stroke-dasharray:5,5;" x1="499.832" x2="499.832" y1="121.2188" y2="366.6797"/></g></g><g class="participant participant-head" data-entity-uid="part1" data-qualified-name="User" data-source-line="4" id="part1-head"><text fill="#000000" font-family="sans-serif" font-size="14" lengthAdjust="spacing" textLength="62.2412" x="5" y="118.1426">Utilisateur</text><ellipse cx="39.1206" cy="52.1094" fill="#E2E2F0" rx="8" ry="8" style="stroke:#181818;stroke-width:0.5;"/><path d="M39.1206,60.1094 L39.1206,87.1094 M26.1206,68.1094 L52.1206,68.1094 M39.1206,87.1094 L26.1206,102.1094 M39.1206,87.1094 L52.1206,102.1094" fill="none" style="stroke:#181818;stroke-width:0.5;"/></g><g class="participant participant-tail" data-entity-uid="part1" data-qualified-name="User" data-source-line="4" id="part1-tail"><text fill="#000000" font-family="sans-serif" font-size="14" lengthAdjust="spacing" textLength="62.2412" x="5" y="380.2129">Utilisateur</text><ellipse cx="39.1206" cy="391.7891" fill="#E2E2F0" rx="8" ry="8" style="stroke:#181818;stroke-width:0.5;"/><path d="M39.1206,399.7891 L39.1206,426.7891 M26.1206,407.7891 L52.1206,407.7891 M39.1206,426.7891 L26.1206,441.7891 M39.1206,426.7891 L52.1206,441.7891" fill="none" style="stroke:#181818;stroke-width:0.5;"/></g><g class="participant participant-head" data-entity-uid="part2" data-qualified-name="Front" data-source-line="5" id="part2-head"><rect fill="#E2E2F0" height="31.6094" rx="2.5" ry="2.5" style="stroke:#181818;stroke-width:0.5;" width="62.2549" x="157.3594" y="88.6094"/><text fill="#000000" font-family="sans-serif" font-size="14" lengthAdjust="spacing" textLength="48.2549" x="164.3594" y="110.1426">Angular</text></g><g class="participant participant-tail" data-entity-uid="part2" data-qualified-name="Front" data-source-line="5" id="part2-tail"><rect fill="#E2E2F0" height="31.6094" rx="2.5" ry="2.5" style="stroke:#181818;stroke-width:0.5;" width="62.2549" x="157.3594" y="365.6797"/><text fill="#000000" font-family="sans-serif" font-size="14" lengthAdjust="spacing" textLength="48.2549" x="164.3594" y="387.2129">Angular</text></g><g class="participant participant-head" data-entity-uid="part3" data-qualified-name="API" data-source-line="6" id="part3-head"><rect fill="#E2E2F0" height="31.6094" rx="2.5" ry="2.5" style="stroke:#181818;stroke-width:0.5;" width="113.6133" x="275.6382" y="88.6094"/><text fill="#000000" font-family="sans-serif" font-size="14" lengthAdjust="spacing" textLength="99.6133" x="282.6382" y="110.1426">API Spring Boot</text></g><g class="participant participant-tail" data-entity-uid="part3" data-qualified-name="API" data-source-line="6" id="part3-tail"><rect fill="#E2E2F0" height="31.6094" rx="2.5" ry="2.5" style="stroke:#181818;stroke-width:0.5;" width="113.6133" x="275.6382" y="365.6797"/><text fill="#000000" font-family="sans-serif" font-size="14" lengthAdjust="spacing" textLength="99.6133" x="282.6382" y="387.2129">API Spring Boot</text></g><g class="participant participant-head" data-entity-uid="part4" data-qualified-name="DB" data-source-line="7" id="part4-head"><text fill="#000000" font-family="sans-serif" font-size="14" lengthAdjust="spacing" textLength="76.2617" x="458.832" y="118.1426">PostgreSQL</text><path d="M481.9629,67.6094 C481.9629,57.6094 499.9629,57.6094 499.9629,57.6094 C499.9629,57.6094 517.9629,57.6094 517.9629,67.6094 L517.9629,93.6094 C517.9629,103.6094 499.9629,103.6094 499.9629,103.6094 C499.9629,103.6094 481.9629,103.6094 481.9629,93.6094 L481.9629,67.6094" fill="#E2E2F0" style="stroke:#181818;stroke-width:0.5;"/><path d="M481.9629,67.6094 C481.9629,77.6094 499.9629,77.6094 499.9629,77.6094 C499.9629,77.6094 517.9629,77.6094 517.9629,67.6094" fill="none" style="stroke:#181818;stroke-width:0.5;"/></g><g class="participant participant-tail" data-entity-uid="part4" data-qualified-name="DB" data-source-line="7" id="part4-tail"><text fill="#000000" font-family="sans-serif" font-size="14" lengthAdjust="spacing" textLength="76.2617" x="458.832" y="380.2129">PostgreSQL</text><path d="M481.9629,393.2891 C481.9629,383.2891 499.9629,383.2891 499.9629,383.2891 C499.9629,383.2891 517.9629,383.2891 517.9629,393.2891 L517.9629,419.2891 C517.9629,429.2891 499.9629,429.2891 499.9629,429.2891 C499.9629,429.2891 481.9629,429.2891 481.9629,419.2891 L481.9629,393.2891" fill="#E2E2F0" style="stroke:#181818;stroke-width:0.5;"/><path d="M481.9629,393.2891 C481.9629,403.2891 499.9629,403.2891 499.9629,403.2891 C499.9629,403.2891 517.9629,403.2891 517.9629,393.2891" fill="none" style="stroke:#181818;stroke-width:0.5;"/></g><g class="message" data-entity-1="part1" data-entity-2="part2" data-source-line="9" id="msg1"><polygon fill="#181818" points="176.4868,149.5703,186.4868,153.5703,176.4868,157.5703,180.4868,153.5703" style="stroke:#181818;stroke-width:1;stroke-linejoin:miter;stroke-miterlimit:10;"/><line style="stroke:#181818;stroke-width:1;" x1="39.1206" x2="182.4868" y1="153.5703" y2="153.5703"/><text fill="#000000" font-family="sans-serif" font-size="13" lengthAdjust="spacing" textLength="125.3662" x="46.1206" y="148.7139">Email + mot de passe</text></g><g class="message" data-entity-1="part2" data-entity-2="part3" data-source-line="10" id="msg2"><polygon fill="#181818" points="320.4448,179.9219,330.4448,183.9219,320.4448,187.9219,324.4448,183.9219" style="stroke:#181818;stroke-width:1;stroke-linejoin:miter;stroke-miterlimit:10;"/><line style="stroke:#181818;stroke-width:1;" x1="188.4868" x2="326.4448" y1="183.9219" y2="183.9219"/><text fill="#000000" font-family="sans-serif" font-size="13" lengthAdjust="spacing" textLength="119.958" x="195.4868" y="179.0654">POST /api/auth/login</text></g><g class="message" data-entity-1="part3" data-entity-2="part4" data-source-line="11" id="msg3"><polygon fill="#181818" points="487.9629,210.2734,497.9629,214.2734,487.9629,218.2734,491.9629,214.2734" style="stroke:#181818;stroke-width:1;stroke-linejoin:miter;stroke-miterlimit:10;"/><line style="stroke:#181818;stroke-width:1;" x1="332.4448" x2="493.9629" y1="214.2734" y2="214.2734"/><text fill="#000000" font-family="sans-serif" font-size="13" lengthAdjust="spacing" textLength="100.4263" x="339.4448" y="209.417">Verifier utilisateur</text></g><g class="message" data-entity-1="part4" data-entity-2="part3" data-source-line="12" id="msg4"><polygon fill="#181818" points="343.4448,240.625,333.4448,244.625,343.4448,248.625,339.4448,244.625" style="stroke:#181818;stroke-width:1;stroke-linejoin:miter;stroke-miterlimit:10;"/><line style="stroke:#181818;stroke-width:1;stroke-dasharray:2,2;" x1="337.4448" x2="498.9629" y1="244.625" y2="244.625"/><text fill="#000000" font-family="sans-serif" font-size="13" lengthAdjust="spacing" textLength="95.3735" x="349.4448" y="239.7686">Utilisateur valide</text></g><g class="message" data-entity-1="part3" data-entity-2="part3" data-source-line="13" id="msg5"><line style="stroke:#181818;stroke-width:1;" x1="332.4448" x2="374.4448" y1="274.9766" y2="274.9766"/><line style="stroke:#181818;stroke-width:1;" x1="374.4448" x2="374.4448" y1="274.9766" y2="287.9766"/><line style="stroke:#181818;stroke-width:1;" x1="333.4448" x2="374.4448" y1="287.9766" y2="287.9766"/><polygon fill="#181818" points="343.4448,283.9766,333.4448,287.9766,343.4448,291.9766,339.4448,287.9766" style="stroke:#181818;stroke-width:1;stroke-linejoin:miter;stroke-miterlimit:10;"/><text fill="#000000" font-family="sans-serif" font-size="13" lengthAdjust="spacing" textLength="153.5181" x="339.4448" y="270.1201">Creer JWT + refresh token</text></g><g class="message" data-entity-1="part3" data-entity-2="part2" data-source-line="14" id="msg6"><polygon fill="#181818" points="199.4868,314.3281,189.4868,318.3281,199.4868,322.3281,195.4868,318.3281" style="stroke:#181818;stroke-width:1;stroke-linejoin:miter;stroke-miterlimit:10;"/><line style="stroke:#181818;stroke-width:1;stroke-dasharray:2,2;" x1="193.4868" x2="331.4448" y1="318.3281" y2="318.3281"/><text fill="#000000" font-family="sans-serif" font-size="13" lengthAdjust="spacing" textLength="85.2808" x="205.4868" y="313.4717">AuthResponse</text></g><g class="message" data-entity-1="part2" data-entity-2="part1" data-source-line="15" id="msg7"><polygon fill="#181818" points="50.1206,344.6797,40.1206,348.6797,50.1206,352.6797,46.1206,348.6797" style="stroke:#181818;stroke-width:1;stroke-linejoin:miter;stroke-miterlimit:10;"/><line style="stroke:#181818;stroke-width:1;stroke-dasharray:2,2;" x1="44.1206" x2="187.4868" y1="348.6797" y2="348.6797"/><text fill="#000000" font-family="sans-serif" font-size="13" lengthAdjust="spacing" textLength="118.5234" x="56.1206" y="343.8232">Acces au dashboard</text></g><?plantuml-src NP3DJiCm48JlVefHhbNLUmz8BGK9X4IXFvotoIPPrR4jUmElZzq0hRZkDpkpiofg6QjHUtOghTIauXsUF_QOupWoaWp1Pi1iJ3gB2nHfGEgfyL_YEhHa4nkgrKTK1nKhYPJ7M84I3ecZoHigjGHoYchbkj7IH1-ZT_eFRv-m2x4OhxtNYopFJ4DA9qgCQkkJTf5tRoyNk5aRKr8mlvlyiCJ3G68nm-0L3IDGoXTECAjAn1BRrzqU2mgoeDnzONqdpXIK5Pjr5XmvbjOHuxMJoMJ-Pt5J5fzafU5VWudVHyxhvPCpH6uZfnxgp_oJStDmUVyxf-3TzT2CBxqohMjEe14DfVxaAJRV?></g></svg>