<svg xmlns="http://www.w3.org/2000/svg" xmlns:xlink="http://www.w3.org/1999/xlink" contentStyleType="text/css" data-diagram-type="SEQUENCE" height="480px" preserveAspectRatio="none" style="width:644px;height:480px;background:#FFFFFF;" version="1.1" viewBox="0 0 644 480" width="644px" zoomAndPan="magnify"><?plantuml 1.2026.4?><defs/><g><g class="title" data-source-line="1"><text fill="#000000" font-family="sans-serif" font-size="14" font-weight="700" lengthAdjust="spacing" textLength="259.458" x="189.2056" y="29.5332">Import CSV/Excel + ML - Vue simplifiee</text></g><g class="participant-lifeline" data-entity-uid="part1" data-qualified-name="User" data-source-line="4" id="part1-lifeline"><g><title>Utilisateur</title><rect fill="#000000" fill-opacity="0.00000" height="275.8125" width="8" x="35.1206" y="121.2188"/><line style="stroke:#181818;stroke-width:0.5;stroke-dasharray:5,5;" x1="39" x2="39" y1="121.2188" y2="397.0313"/></g></g><g class="participant-lifeline" data-entity-uid="part2" data-qualified-name="Front" data-source-line="5" id="part2-lifeline"><g><title>Angular</title><rect fill="#000000" fill-opacity="0.00000" height="275.8125" width="8" x="145.8105" y="121.2188"/><line style="stroke:#181818;stroke-width:0.5;stroke-dasharray:5,5;" x1="149.6831" x2="149.6831" y1="121.2188" y2="397.0313"/></g></g><g class="participant-lifeline" data-entity-uid="part3" data-qualified-name="API" data-source-line="6" id="part3-lifeline"><g><title>API Spring Boot</title><rect fill="#000000" fill-opacity="0.00000" height="275.8125" width="8" x="343.2095" y="121.2188"/><line style="stroke:#181818;stroke-width:0.5;stroke-dasharray:5,5;" x1="346.4028" x2="346.4028" y1="121.2188" y2="397.0313"/></g></g><g class="participant-lifeline" data-entity-uid="part4" data-qualified-name="ML" data-source-line="7" id="part4-lifeline"><g><title>FastAPI ML</title><rect fill="#000000" fill-opacity="0.00000" height="275.8125" width="8" x="494.042" y="121.2188"/><line style="stroke:#181818;stroke-width:0.5;stroke-dasharray:5,5;" x1="497.4766" x2="497.4766" y1="121.2188" y2="397.0313"/></g></g><g class="participant-lifeline" data-entity-uid="part5" data-qualified-name="DB" data-source-line="8" id="part5-lifeline"><g><title>PostgreSQL</title><rect fill="#000000" fill-opacity="0.00000" height="275.8125" width="8" x="588.7383" y="121.2188"/><line style="stroke:#181818;stroke-width:0.5;stroke-dasharray:5,5;" x1="592.6074" x2="592.6074" y1="121.2188" y2="397.0313"/></g></g><g class="participant participant-head" data-entity-uid="part1" data-qualified-name="User" data-source-line="4" id="part1-head"><text fill="#000000" font-family="sans-serif" font-size="14" lengthAdjust="spacing" textLength="62.2412" x="5" y="118.1426">Utilisateur</text><ellipse cx="39.1206" cy="52.1094" fill="#E2E2F0" rx="8" ry="8" style="stroke:#181818;stroke-width:0.5;"/><path d="M39.1206,60.1094 L39.1206,87.1094 M26.1206,68.1094 L52.1206,68.1094 M39.1206,87.1094 L26.1206,102.1094 M39.1206,87.1094 L52.1206,102.1094" fill="none" style="stroke:#181818;stroke-width:0.5;"/></g><g class="participant participant-tail" data-entity-uid="part1" data-qualified-name="User" data-source-line="4" id="part1-tail"><text fill="#000000" font-family="sans-serif" font-size="14" lengthAdjust="spacing" textLength="62.2412" x="5" y="410.5645">Utilisateur</text><ellipse cx="39.1206" cy="422.1406" fill="#E2E2F0" rx="8" ry="8" style="stroke:#181818;stroke-width:0.5;"/><path d="M39.1206,430.1406 L39.1206,457.1406 M26.1206,438.1406 L52.1206,438.1406 M39.1206,457.1406 L26.1206,472.1406 M39.1206,457.1406 L52.1206,472.1406" fill="none" style="stroke:#181818;stroke-width:0.5;"/></g><g class="participant participant-head" data-entity-uid="part2" data-qualified-name="Front" data-source-line="5" id="part2-head"><rect fill="#E2E2F0" height="31.6094" rx="2.5" ry="2.5" style="stroke:#181818;stroke-width:0.5;" width="62.2549" x="118.6831" y="88.6094"/><text fill="#000000" font-family="sans-serif" font-size="14" lengthAdjust="spacing" textLength="48.2549" x="125.6831" y="110.1426">Angular</text></g><g class="participant participant-tail" data-entity-uid="part2" data-qualified-name="Front" data-source-line="5" id="part2-tail"><rect fill="#E2E2F0" height="31.6094" rx="2.5" ry="2.5" style="stroke:#181818;stroke-width:0.5;" width="62.2549" x="118.6831" y="396.0313"/><text fill="#000000" font-family="sans-serif" font-size="14" lengthAdjust="spacing" textLength="48.2549" x="125.6831" y="417.5645">Angular</text></g><g class="participant participant-head" data-entity-uid="part3" data-qualified-name="API" data-source-line="6" id="part3-head"><rect fill="#E2E2F0" height="31.6094" rx="2.5" ry="2.5" style="stroke:#181818;stroke-width:0.5;" width="113.6133" x="290.4028" y="88.6094"/><text fill="#000000" font-family="sans-serif" font-size="14" lengthAdjust="spacing" textLength="99.6133" x="297.4028" y="110.1426">API Spring Boot</text></g><g class="participant participant-tail" data-entity-uid="part3" data-qualified-name="API" data-source-line="6" id="part3-tail"><rect fill="#E2E2F0" height="31.6094" rx="2.5" ry="2.5" style="stroke:#181818;stroke-width:0.5;" width="113.6133" x="290.4028" y="396.0313"/><text fill="#000000" font-family="sans-serif" font-size="14" lengthAdjust="spacing" textLength="99.6133" x="297.4028" y="417.5645">API Spring Boot</text></g><g class="participant participant-head" data-entity-uid="part4" data-qualified-name="ML" data-source-line="7" id="part4-head"><rect fill="#E2E2F0" height="31.6094" rx="2.5" ry="2.5" style="stroke:#181818;stroke-width:0.5;" width="87.1309" x="454.4766" y="88.6094"/><text fill="#000000" font-family="sans-serif" font-size="14" lengthAdjust="spacing" textLength="73.1309" x="461.4766" y="110.1426">FastAPI ML</text></g><g class="participant participant-tail" data-entity-uid="part4" data-qualified-name="ML" data-source-line="7" id="part4-tail"><rect fill="#E2E2F0" height="31.6094" rx="2.5" ry="2.5" style="stroke:#181818;stroke-width:0.5;" width="87.1309" x="454.4766" y="396.0313"/><text fill="#000000" font-family="sans-serif" font-size="14" lengthAdjust="spacing" textLength="73.1309" x="461.4766" y="417.5645">FastAPI ML</text></g><g class="participant participant-head" data-entity-uid="part5" data-qualified-name="DB" data-source-line="8" id="part5-head"><text fill="#000000" font-family="sans-serif" font-size="14" lengthAdjust="spacing" textLength="76.2617" x="551.6074" y="118.1426">PostgreSQL</text><path d="M574.7383,67.6094 C574.7383,57.6094 592.7383,57.6094 592.7383,57.6094 C592.7383,57.6094 610.7383,57.6094 610.7383,67.6094 L610.7383,93.6094 C610.7383,103.6094 592.7383,103.6094 592.7383,103.6094 C592.7383,103.6094 574.7383,103.6094 574.7383,93.6094 L574.7383,67.6094" fill="#E2E2F0" style="stroke:#181818;stroke-width:0.5;"/><path d="M574.7383,67.6094 C574.7383,77.6094 592.7383,77.6094 592.7383,77.6094 C592.7383,77.6094 610.7383,77.6094 610.7383,67.6094" fill="none" style="stroke:#181818;stroke-width:0.5;"/></g><g class="participant participant-tail" data-entity-uid="part5" data-qualified-name="DB" data-source-line="8" id="part5-tail"><text fill="#000000" font-family="sans-serif" font-size="14" lengthAdjust="spacing" textLength="76.2617" x="551.6074" y="410.5645">PostgreSQL</text><path d="M574.7383,423.6406 C574.7383,413.6406 592.7383,413.6406 592.7383,413.6406 C592.7383,413.6406 610.7383,413.6406 610.7383,423.6406 L610.7383,449.6406 C610.7383,459.6406 592.7383,459.6406 592.7383,459.6406 C592.7383,459.6406 574.7383,459.6406 574.7383,449.6406 L574.7383,423.6406" fill="#E2E2F0" style="stroke:#181818;stroke-width:0.5;"/><path d="M574.7383,423.6406 C574.7383,433.6406 592.7383,433.6406 592.7383,433.6406 C592.7383,433.6406 610.7383,433.6406 610.7383,423.6406" fill="none" style="stroke:#181818;stroke-width:0.5;"/></g><g class="message" data-entity-1="part1" data-entity-2="part2" data-source-line="10" id="msg1"><polygon fill="#181818" points="137.8105,149.5703,147.8105,153.5703,137.8105,157.5703,141.8105,153.5703" style="stroke:#181818;stroke-width:1;stroke-linejoin:miter;stroke-miterlimit:10;"/><line style="stroke:#181818;stroke-width:1;" x1="39.1206" x2="143.8105" y1="153.5703" y2="153.5703"/><text fill="#000000" font-family="sans-serif" font-size="13" lengthAdjust="spacing" textLength="86.6899" x="46.1206" y="148.7139">Importer fichier</text></g><g class="message" data-entity-1="part2" data-entity-2="part3" data-source-line="11" id="msg2"><polygon fill="#181818" points="335.2095,179.9219,345.2095,183.9219,335.2095,187.9219,339.2095,183.9219" style="stroke:#181818;stroke-width:1;stroke-linejoin:miter;stroke-miterlimit:10;"/><line style="stroke:#181818;stroke-width:1;" x1="149.8105" x2="341.2095" y1="183.9219" y2="183.9219"/><text fill="#000000" font-family="sans-serif" font-size="13" lengthAdjust="spacing" textLength="173.3989" x="156.8105" y="179.0654">POST /api/transactions/import</text></g><g class="message" data-entity-1="part3" data-entity-2="part3" data-source-line="12" id="msg3"><line style="stroke:#181818;stroke-width:1;" x1="347.2095" x2="389.2095" y1="214.2734" y2="214.2734"/><line style="stroke:#181818;stroke-width:1;" x1="389.2095" x2="389.2095" y1="214.2734" y2="227.2734"/><line style="stroke:#181818;stroke-width:1;" x1="348.2095" x2="389.2095" y1="227.2734" y2="227.2734"/><polygon fill="#181818" points="358.2095,223.2734,348.2095,227.2734,358.2095,231.2734,354.2095,227.2734" style="stroke:#181818;stroke-width:1;stroke-linejoin:miter;stroke-miterlimit:10;"/><text fill="#000000" font-family="sans-serif" font-size="13" lengthAdjust="spacing" textLength="87.4199" x="354.2095" y="209.417">Lire CSV/Excel</text></g><g class="message" data-entity-1="part3" data-entity-2="part4" data-source-line="13" id="msg4"><polygon fill="#181818" points="486.042,253.625,496.042,257.625,486.042,261.625,490.042,257.625" style="stroke:#181818;stroke-width:1;stroke-linejoin:miter;stroke-miterlimit:10;"/><line style="stroke:#181818;stroke-width:1;" x1="347.2095" x2="492.042" y1="257.625" y2="257.625"/><text fill="#000000" font-family="sans-serif" font-size="13" lengthAdjust="spacing" textLength="81.6372" x="354.2095" y="252.7686">POST /predict</text></g><g class="message" data-entity-1="part4" data-entity-2="part3" data-source-line="14" id="msg5"><polygon fill="#181818" points="358.2095,283.9766,348.2095,287.9766,358.2095,291.9766,354.2095,287.9766" style="stroke:#181818;stroke-width:1;stroke-linejoin:miter;stroke-miterlimit:10;"/><line style="stroke:#181818;stroke-width:1;stroke-dasharray:2,2;" x1="352.2095" x2="497.042" y1="287.9766" y2="287.9766"/><text fill="#000000" font-family="sans-serif" font-size="13" lengthAdjust="spacing" textLength="126.8325" x="364.2095" y="283.1201">Categorie + confiance</text></g><g class="message" data-entity-1="part3" data-entity-2="part5" data-source-line="15" id="msg6"><polygon fill="#181818" points="580.7383,314.3281,590.7383,318.3281,580.7383,322.3281,584.7383,318.3281" style="stroke:#181818;stroke-width:1;stroke-linejoin:miter;stroke-miterlimit:10;"/><line style="stroke:#181818;stroke-width:1;" x1="347.2095" x2="586.7383" y1="318.3281" y2="318.3281"/><text fill="#000000" font-family="sans-serif" font-size="13" lengthAdjust="spacing" textLength="137.2808" x="354.2095" y="313.4717">Enregistrer transactions</text></g><g class="message" data-entity-1="part3" data-entity-2="part2" data-source-line="16" id="msg7"><polygon fill="#181818" points="160.8105,344.6797,150.8105,348.6797,160.8105,352.6797,156.8105,348.6797" style="stroke:#181818;stroke-width:1;stroke-linejoin:miter;stroke-miterlimit:10;"/><line style="stroke:#181818;stroke-width:1;stroke-dasharray:2,2;" x1="154.8105" x2="346.2095" y1="348.6797" y2="348.6797"/><text fill="#000000" font-family="sans-serif" font-size="13" lengthAdjust="spacing" textLength="88.1372" x="166.8105" y="343.8232">Resume import</text></g><g class="message" data-entity-1="part2" data-entity-2="part1" data-source-line="17" id="msg8"><polygon fill="#181818" points="50.1206,375.0313,40.1206,379.0313,50.1206,383.0313,46.1206,379.0313" style="stroke:#181818;stroke-width:1;stroke-linejoin:miter;stroke-miterlimit:10;"/><line style="stroke:#181818;stroke-width:1;stroke-dasharray:2,2;" x1="44.1206" x2="148.8105" y1="379.0313" y2="379.0313"/><text fill="#000000" font-family="sans-serif" font-size="13" lengthAdjust="spacing" textLength="47.6899" x="56.1206" y="374.1748">Resultat</text></g><?plantuml-src NP3DRi8m48JlVefLhXNAdKEbyYSX1PKsXVlMRC8AnxRM6xMFNoS1IdlrDxEU6MLr1Dik1b5OriTo_Mt9mHFiAfZ1iIT8t4N73HCPaoxi8mfsaCvu2b_iMsZG9J9eDGWK1sN72PLwAG0J71A9oGvbon6zGl7YszxXH3SIlFx3-otKKOR3Yn1qbEMtlw8D9Xs4kshakygSKF4J4q6n3qbReVfjOgk5CKC8c3rFty7ysZQ_DMpFd0DE82k6etFOlzOVK6BaKWLzojKu-5JoQ3E3vYwjMEXtjXlBszskHA4JMpN3d7VNCW_K1c7AEzlW6qPlwMPUBR9YxOLQJYevvME8IVJGvPrItn5SirsBP3vsdh1Jr1y0?></g></svg>