<svg xmlns="http://www.w3.org/2000/svg" xmlns:xlink="http://www.w3.org/1999/xlink" contentStyleType="text/css" data-diagram-type="SEQUENCE" height="467px" preserveAspectRatio="none" style="width:531px;height:467px;background:#FFFFFF;" version="1.1" viewBox="0 0 531 467" width="531px" zoomAndPan="magnify"><?plantuml 1.2026.4?><defs/><g><g class="title" data-source-line="1"><text fill="#000000" font-family="sans-serif" font-size="14" font-weight="700" lengthAdjust="spacing" textLength="243.8584" x="140.4146" y="29.5332">Chatbot RAG + Groq - Vue simplifiee</text></g><g class="participant-lifeline" data-entity-uid="part1" data-qualified-name="User" data-source-line="4" id="part1-lifeline"><g><title>Utilisateur</title><rect fill="#000000" fill-opacity="0.00000" height="262.8125" width="8" x="35.1206" y="121.2188"/><line style="stroke:#181818;stroke-width:0.5;stroke-dasharray:5,5;" x1="39" x2="39" y1="121.2188" y2="384.0313"/></g></g><g class="participant-lifeline" data-entity-uid="part2" data-qualified-name="Front" data-source-line="5" id="part2-lifeline"><g><title>Angular</title><rect fill="#000000" fill-opacity="0.00000" height="262.8125" width="8" x="113.3232" y="121.2188"/><line style="stroke:#181818;stroke-width:0.5;stroke-dasharray:5,5;" x1="117.1958" x2="117.1958" y1="121.2188" y2="384.0313"/></g></g><g class="participant-lifeline" data-entity-uid="part3" data-qualified-name="API" data-source-line="6" id="part3-lifeline"><g><title>API Spring Boot</title><rect fill="#000000" fill-opacity="0.00000" height="262.8125" width="8" x="225.4731" y="121.2188"/><line style="stroke:#181818;stroke-width:0.5;stroke-dasharray:5,5;" x1="228.6665" x2="228.6665" y1="121.2188" y2="384.0313"/></g></g><g class="participant-lifeline" data-entity-uid="part4" data-qualified-name="DB" data-source-line="7" id="part4-lifeline"><g><title>PostgreSQL</title><rect fill="#000000" fill-opacity="0.00000" height="262.8125" width="8" x="393.9775" y="121.2188"/><line style="stroke:#181818;stroke-width:0.5;stroke-dasharray:5,5;" x1="397.8467" x2="397.8467" y1="121.2188" y2="384.0313"/></g></g><g class="participant-lifeline" data-entity-uid="part5" data-qualified-name="Groq" data-source-line="8" id="part5-lifeline"><g><title>Groq API</title><rect fill="#000000" fill-opacity="0.00000" height="262.8125" width="8" x="480.8979" y="121.2188"/><line style="stroke:#181818;stroke-width:0.5;stroke-dasharray:5,5;" x1="484.1084" x2="484.1084" y1="121.2188" y2="384.0313"/></g></g><g class="participant participant-head" data-entity-uid="part1" data-qualified-name="User" data-source-line="4" id="part1-head"><text fill="#000000" font-family="sans-serif" font-size="14" lengthAdjust="spacing" textLength="62.2412" x="5" y="118.1426">Utilisateur</text><ellipse cx="39.1206" cy="52.1094" fill="#E2E2F0" rx="8" ry="8" style="stroke:#181818;stroke-width:0.5;"/><path d="M39.1206,60.1094 L39.1206,87.1094 M26.1206,68.1094 L52.1206,68.1094 M39.1206,87.1094 L26.1206,102.1094 M39.1206,87.1094 L52.1206,102.1094" fill="none" style="stroke:#181818;stroke-width:0.5;"/></g><g class="participant participant-tail" data-entity-uid="part1" data-qualified-name="User" data-source-line="4" id="part1-tail"><text fill="#000000" font-family="sans-serif" font-size="14" lengthAdjust="spacing" textLength="62.2412" x="5" y="397.5645">Utilisateur</text><ellipse cx="39.1206" cy="409.1406" fill="#E2E2F0" rx="8" ry="8" style="stroke:#181818;stroke-width:0.5;"/><path d="M39.1206,417.1406 L39.1206,444.1406 M26.1206,425.1406 L52.1206,425.1406 M39.1206,444.1406 L26.1206,459.1406 M39.1206,444.1406 L52.1206,459.1406" fill="none" style="stroke:#181818;stroke-width:0.5;"/></g><g class="participant participant-head" data-entity-uid="part2" data-qualified-name="Front" data-source-line="5" id="part2-head"><rect fill="#E2E2F0" height="31.6094" rx="2.5" ry="2.5" style="stroke:#181818;stroke-width:0.5;" width="62.2549" x="86.1958" y="88.6094"/><text fill="#000000" font-family="sans-serif" font-size="14" lengthAdjust="spacing" textLength="48.2549" x="93.1958" y="110.1426">Angular</text></g><g class="participant participant-tail" data-entity-uid="part2" data-qualified-name="Front" data-source-line="5" id="part2-tail"><rect fill="#E2E2F0" height="31.6094" rx="2.5" ry="2.5" style="stroke:#181818;stroke-width:0.5;" width="62.2549" x="86.1958" y="383.0313"/><text fill="#000000" font-family="sans-serif" font-size="14" lengthAdjust="spacing" textLength="48.2549" x="93.1958" y="404.5645">Angular</text></g><g class="participant participant-head" data-entity-uid="part3" data-qualified-name="API" data-source-line="6" id="part3-head"><rect fill="#E2E2F0" height="31.6094" rx="2.5" ry="2.5" style="stroke:#181818;stroke-width:0.5;" width="113.6133" x="172.6665" y="88.6094"/><text fill="#000000" font-family="sans-serif" font-size="14" lengthAdjust="spacing" textLength="99.6133" x="179.6665" y="110.1426">API Spring Boot</text></g><g class="participant participant-tail" data-entity-uid="part3" data-qualified-name="API" data-source-line="6" id="part3-tail"><rect fill="#E2E2F0" height="31.6094" rx="2.5" ry="2.5" style="stroke:#181818;stroke-width:0.5;" width="113.6133" x="172.6665" y="383.0313"/><text fill="#000000" font-family="sans-serif" font-size="14" lengthAdjust="spacing" textLength="99.6133" x="179.6665" y="404.5645">API Spring Boot</text></g><g class="participant participant-head" data-entity-uid="part4" data-qualified-name="DB" data-source-line="7" id="part4-head"><text fill="#000000" font-family="sans-serif" font-size="14" lengthAdjust="spacing" textLength="76.2617" x="356.8467" y="118.1426">PostgreSQL</text><path d="M379.9775,67.6094 C379.9775,57.6094 397.9775,57.6094 397.9775,57.6094 C397.9775,57.6094 415.9775,57.6094 415.9775,67.6094 L415.9775,93.6094 C415.9775,103.6094 397.9775,103.6094 397.9775,103.6094 C397.9775,103.6094 379.9775,103.6094 379.9775,93.6094 L379.9775,67.6094" fill="#E2E2F0" style="stroke:#181818;stroke-width:0.5;"/><path d="M379.9775,67.6094 C379.9775,77.6094 397.9775,77.6094 397.9775,77.6094 C397.9775,77.6094 415.9775,77.6094 415.9775,67.6094" fill="none" style="stroke:#181818;stroke-width:0.5;"/></g><g class="participant participant-tail" data-entity-uid="part4" data-qualified-name="DB" data-source-line="7" id="part4-tail"><text fill="#000000" font-family="sans-serif" font-size="14" lengthAdjust="spacing" textLength="76.2617" x="356.8467" y="397.5645">PostgreSQL</text><path d="M379.9775,410.6406 C379.9775,400.6406 397.9775,400.6406 397.9775,400.6406 C397.9775,400.6406 415.9775,400.6406 415.9775,410.6406 L415.9775,436.6406 C415.9775,446.6406 397.9775,446.6406 397.9775,446.6406 C397.9775,446.6406 379.9775,446.6406 379.9775,436.6406 L379.9775,410.6406" fill="#E2E2F0" style="stroke:#181818;stroke-width:0.5;"/><path d="M379.9775,410.6406 C379.9775,420.6406 397.9775,420.6406 397.9775,420.6406 C397.9775,420.6406 415.9775,420.6406 415.9775,410.6406" fill="none" style="stroke:#181818;stroke-width:0.5;"/></g><g class="participant participant-head" data-entity-uid="part5" data-qualified-name="Groq" data-source-line="8" id="part5-head"><rect fill="#E2E2F0" height="31.6094" rx="2.5" ry="2.5" style="stroke:#181818;stroke-width:0.5;" width="71.5791" x="449.1084" y="88.6094"/><text fill="#000000" font-family="sans-serif" font-size="14" lengthAdjust="spacing" textLength="57.5791" x="456.1084" y="110.1426">Groq API</text></g><g class="participant participant-tail" data-entity-uid="part5" data-qualified-name="Groq" data-source-line="8" id="part5-tail"><rect fill="#E2E2F0" height="31.6094" rx="2.5" ry="2.5" style="stroke:#181818;stroke-width:0.5;" width="71.5791" x="449.1084" y="383.0313"/><text fill="#000000" font-family="sans-serif" font-size="14" lengthAdjust="spacing" textLength="57.5791" x="456.1084" y="404.5645">Groq API</text></g><g class="message" data-entity-1="part1" data-entity-2="part2" data-source-line="10" id="msg1"><polygon fill="#181818" points="105.3232,149.5703,115.3232,153.5703,105.3232,157.5703,109.3232,153.5703" style="stroke:#181818;stroke-width:1;stroke-linejoin:miter;stroke-miterlimit:10;"/><line style="stroke:#181818;stroke-width:1;" x1="39.1206" x2="111.3232" y1="153.5703" y2="153.5703"/><text fill="#000000" font-family="sans-serif" font-size="13" lengthAdjust="spacing" textLength="52.0317" x="46.1206" y="148.7139">Question</text></g><g class="message" data-entity-1="part2" data-entity-2="part3" data-source-line="11" id="msg2"><polygon fill="#181818" points="217.4731,179.9219,227.4731,183.9219,217.4731,187.9219,221.4731,183.9219" style="stroke:#181818;stroke-width:1;stroke-linejoin:miter;stroke-miterlimit:10;"/><line style="stroke:#181818;stroke-width:1;" x1="117.3232" x2="223.4731" y1="183.9219" y2="183.9219"/><text fill="#000000" font-family="sans-serif" font-size="13" lengthAdjust="spacing" textLength="88.1499" x="124.3232" y="179.0654">POST /api/chat</text></g><g class="message" data-entity-1="part3" data-entity-2="part4" data-source-line="12" id="msg3"><polygon fill="#181818" points="385.9775,210.2734,395.9775,214.2734,385.9775,218.2734,389.9775,214.2734" style="stroke:#181818;stroke-width:1;stroke-linejoin:miter;stroke-miterlimit:10;"/><line style="stroke:#181818;stroke-width:1;" x1="229.4731" x2="391.9775" y1="214.2734" y2="214.2734"/><text fill="#000000" font-family="sans-serif" font-size="13" lengthAdjust="spacing" textLength="144.5044" x="236.4731" y="209.417">Construire contexte RAG</text></g><g class="message" data-entity-1="part4" data-entity-2="part3" data-source-line="13" id="msg4"><polygon fill="#181818" points="240.4731,240.625,230.4731,244.625,240.4731,248.625,236.4731,244.625" style="stroke:#181818;stroke-width:1;stroke-linejoin:miter;stroke-miterlimit:10;"/><line style="stroke:#181818;stroke-width:1;stroke-dasharray:2,2;" x1="234.4731" x2="396.9775" y1="244.625" y2="244.625"/><text fill="#000000" font-family="sans-serif" font-size="13" lengthAdjust="spacing" textLength="118.5171" x="246.4731" y="239.7686">Donnees financieres</text></g><g class="message" data-entity-1="part3" data-entity-2="part5" data-source-line="14" id="msg5"><polygon fill="#181818" points="472.8979,270.9766,482.8979,274.9766,472.8979,278.9766,476.8979,274.9766" style="stroke:#181818;stroke-width:1;stroke-linejoin:miter;stroke-miterlimit:10;"/><line style="stroke:#181818;stroke-width:1;" x1="229.4731" x2="478.8979" y1="274.9766" y2="274.9766"/><text fill="#000000" font-family="sans-serif" font-size="13" lengthAdjust="spacing" textLength="105.8599" x="236.4731" y="270.1201">Prompt + contexte</text></g><g class="message" data-entity-1="part5" data-entity-2="part3" data-source-line="15" id="msg6"><polygon fill="#181818" points="240.4731,301.3281,230.4731,305.3281,240.4731,309.3281,236.4731,305.3281" style="stroke:#181818;stroke-width:1;stroke-linejoin:miter;stroke-miterlimit:10;"/><line style="stroke:#181818;stroke-width:1;stroke-dasharray:2,2;" x1="234.4731" x2="483.8979" y1="305.3281" y2="305.3281"/><text fill="#000000" font-family="sans-serif" font-size="13" lengthAdjust="spacing" textLength="67.9326" x="246.4731" y="300.4717">Reponse IA</text></g><g class="message" data-entity-1="part3" data-entity-2="part2" data-source-line="16" id="msg7"><polygon fill="#181818" points="128.3232,331.6797,118.3232,335.6797,128.3232,339.6797,124.3232,335.6797" style="stroke:#181818;stroke-width:1;stroke-linejoin:miter;stroke-miterlimit:10;"/><line style="stroke:#181818;stroke-width:1;stroke-dasharray:2,2;" x1="122.3232" x2="228.4731" y1="335.6797" y2="335.6797"/><text fill="#000000" font-family="sans-serif" font-size="13" lengthAdjust="spacing" textLength="52.0381" x="134.3232" y="330.8232">Reponse</text></g><g class="message" data-entity-1="part2" data-entity-2="part1" data-source-line="17" id="msg8"><polygon fill="#181818" points="50.1206,362.0313,40.1206,366.0313,50.1206,370.0313,46.1206,366.0313" style="stroke:#181818;stroke-width:1;stroke-linejoin:miter;stroke-miterlimit:10;"/><line style="stroke:#181818;stroke-width:1;stroke-dasharray:2,2;" x1="44.1206" x2="116.3232" y1="366.0313" y2="366.0313"/><text fill="#000000" font-family="sans-serif" font-size="13" lengthAdjust="spacing" textLength="54.2026" x="56.1206" y="361.1748">Affichage</text></g><?plantuml-src NP1DJy9048Rl-oiclHh2lGUJ5Y8XCH6eU1_Aj4mik-lEDFhpdMs5gCVEq_TZNsKT25ONr5DGE5GRU81D2X-mWBUHGFWQ1-wOo3bvPnynuHNaWkVmoRw73WSXXws61CLHUM11fJ4LW097eUHCeTnoHAzGLBuV1vpfKmfU_-7T5fgOid4TWaw_sSsTKV64Gb3iWcYVgDa_Jt1T_pMOcfjYWld3kLm25ezp79Im7qcKWtVpmKXEBM7tqhp24YClMnl3vQEnTMre5Rne6ZaHjAQXBwMyb3EukElNmNiYWOuz-fOfaTnCfbQMaC8rgkrxCt7pq7UB0qLB8jXMi_9NwnzqAsraUbS9LTUn5Uxf6m00?></g></svg>