<svg xmlns="http://www.w3.org/2000/svg" xmlns:xlink="http://www.w3.org/1999/xlink" contentStyleType="text/css" data-diagram-type="SEQUENCE" height="497px" preserveAspectRatio="none" style="width:567px;height:497px;background:#FFFFFF;" version="1.1" viewBox="0 0 567 497" width="567px" zoomAndPan="magnify"><?plantuml 1.2026.4?><defs/><g><g class="title" data-source-line="1"><text fill="#000000" font-family="sans-serif" font-size="14" font-weight="700" lengthAdjust="spacing" textLength="315.1025" x="122.8965" y="29.5332">Synchronisation carte bancaire - Vue simplifiee</text></g><g class="participant-lifeline" data-entity-uid="part1" data-qualified-name="User" data-source-line="4" id="part1-lifeline"><g><title>Utilisateur</title><rect fill="#000000" fill-opacity="0.00000" height="293.1641" width="8" x="35.1206" y="121.2188"/><line style="stroke:#181818;stroke-width:0.5;stroke-dasharray:5,5;" x1="39" x2="39" y1="121.2188" y2="414.3828"/></g></g><g class="participant-lifeline" data-entity-uid="part2" data-qualified-name="Front" data-source-line="5" id="part2-lifeline"><g><title>Angular</title><rect fill="#000000" fill-opacity="0.00000" height="293.1641" width="8" x="167.5005" y="121.2188"/><line style="stroke:#181818;stroke-width:0.5;stroke-dasharray:5,5;" x1="171.373" x2="171.373" y1="121.2188" y2="414.3828"/></g></g><g class="participant-lifeline" data-entity-uid="part3" data-qualified-name="API" data-source-line="6" id="part3-lifeline"><g><title>API Spring Boot</title><rect fill="#000000" fill-opacity="0.00000" height="293.1641" width="8" x="339.623" y="121.2188"/><line style="stroke:#181818;stroke-width:0.5;stroke-dasharray:5,5;" x1="342.8164" x2="342.8164" y1="121.2188" y2="414.3828"/></g></g><g class="participant-lifeline" data-entity-uid="part4" data-qualified-name="DB" data-source-line="7" id="part4-lifeline"><g><title>PostgreSQL</title><rect fill="#000000" fill-opacity="0.00000" height="293.1641" width="8" x="511.7646" y="121.2188"/><line style="stroke:#181818;stroke-width:0.5;stroke-dasharray:5,5;" x1="515.6338" x2="515.6338" y1="121.2188" y2="414.3828"/></g></g><g class="participant participant-head" data-entity-uid="part1" data-qualified-name="User" data-source-line="4" id="part1-head"><text fill="#000000" font-family="sans-serif" font-size="14" lengthAdjust="spacing" textLength="62.2412" x="5" y="118.1426">Utilisateur</text><ellipse cx="39.1206" cy="52.1094" fill="#E2E2F0" rx="8" ry="8" style="stroke:#181818;stroke-width:0.5;"/><path d="M39.1206,60.1094 L39.1206,87.1094 M26.1206,68.1094 L52.1206,68.1094 M39.1206,87.1094 L26.1206,102.1094 M39.1206,87.1094 L52.1206,102.1094" fill="none" style="stroke:#181818;stroke-width:0.5;"/></g><g class="participant participant-tail" data-entity-uid="part1" data-qualified-name="User" data-source-line="4" id="part1-tail"><text fill="#000000" font-family="sans-serif" font-size="14" lengthAdjust="spacing" textLength="62.2412" x="5" y="427.916">Utilisateur</text><ellipse cx="39.1206" cy="439.4922" fill="#E2E2F0" rx="8" ry="8" style="stroke:#181818;stroke-width:0.5;"/><path d="M39.1206,447.4922 L39.1206,474.4922 M26.1206,455.4922 L52.1206,455.4922 M39.1206,474.4922 L26.1206,489.4922 M39.1206,474.4922 L52.1206,489.4922" fill="none" style="stroke:#181818;stroke-width:0.5;"/></g><g class="participant participant-head" data-entity-uid="part2" data-qualified-name="Front" data-source-line="5" id="part2-head"><rect fill="#E2E2F0" height="31.6094" rx="2.5" ry="2.5" style="stroke:#181818;stroke-width:0.5;" width="62.2549" x="140.373" y="88.6094"/><text fill="#000000" font-family="sans-serif" font-size="14" lengthAdjust="spacing" textLength="48.2549" x="147.373" y="110.1426">Angular</text></g><g class="participant participant-tail" data-entity-uid="part2" data-qualified-name="Front" data-source-line="5" id="part2-tail"><rect fill="#E2E2F0" height="31.6094" rx="2.5" ry="2.5" style="stroke:#181818;stroke-width:0.5;" width="62.2549" x="140.373" y="413.3828"/><text fill="#000000" font-family="sans-serif" font-size="14" lengthAdjust="spacing" textLength="48.2549" x="147.373" y="434.916">Angular</text></g><g class="participant participant-head" data-entity-uid="part3" data-qualified-name="API" data-source-line="6" id="part3-head"><rect fill="#E2E2F0" height="31.6094" rx="2.5" ry="2.5" style="stroke:#181818;stroke-width:0.5;" width="113.6133" x="286.8164" y="88.6094"/><text fill="#000000" font-family="sans-serif" font-size="14" lengthAdjust="spacing" textLength="99.6133" x="293.8164" y="110.1426">API Spring Boot</text></g><g class="participant participant-tail" data-entity-uid="part3" data-qualified-name="API" data-source-line="6" id="part3-tail"><rect fill="#E2E2F0" height="31.6094" rx="2.5" ry="2.5" style="stroke:#181818;stroke-width:0.5;" width="113.6133" x="286.8164" y="413.3828"/><text fill="#000000" font-family="sans-serif" font-size="14" lengthAdjust="spacing" textLength="99.6133" x="293.8164" y="434.916">API Spring Boot</text></g><g class="participant participant-head" data-entity-uid="part4" data-qualified-name="DB" data-source-line="7" id="part4-head"><text fill="#000000" font-family="sans-serif" font-size="14" lengthAdjust="spacing" textLength="76.2617" x="474.6338" y="118.1426">PostgreSQL</text><path d="M497.7646,67.6094 C497.7646,57.6094 515.7646,57.6094 515.7646,57.6094 C515.7646,57.6094 533.7646,57.6094 533.7646,67.6094 L533.7646,93.6094 C533.7646,103.6094 515.7646,103.6094 515.7646,103.6094 C515.7646,103.6094 497.7646,103.6094 497.7646,93.6094 L497.7646,67.6094" fill="#E2E2F0" style="stroke:#181818;stroke-width:0.5;"/><path d="M497.7646,67.6094 C497.7646,77.6094 515.7646,77.6094 515.7646,77.6094 C515.7646,77.6094 533.7646,77.6094 533.7646,67.6094" fill="none" style="stroke:#181818;stroke-width:0.5;"/></g><g class="participant participant-tail" data-entity-uid="part4" data-qualified-name="DB" data-source-line="7" id="part4-tail"><text fill="#000000" font-family="sans-serif" font-size="14" lengthAdjust="spacing" textLength="76.2617" x="474.6338" y="427.916">PostgreSQL</text><path d="M497.7646,440.9922 C497.7646,430.9922 515.7646,430.9922 515.7646,430.9922 C515.7646,430.9922 533.7646,430.9922 533.7646,440.9922 L533.7646,466.9922 C533.7646,476.9922 515.7646,476.9922 515.7646,476.9922 C515.7646,476.9922 497.7646,476.9922 497.7646,466.9922 L497.7646,440.9922" fill="#E2E2F0" style="stroke:#181818;stroke-width:0.5;"/><path d="M497.7646,440.9922 C497.7646,450.9922 515.7646,450.9922 515.7646,450.9922 C515.7646,450.9922 533.7646,450.9922 533.7646,440.9922" fill="none" style="stroke:#181818;stroke-width:0.5;"/></g><g class="message" data-entity-1="part1" data-entity-2="part2" data-source-line="9" id="msg1"><polygon fill="#181818" points="159.5005,149.5703,169.5005,153.5703,159.5005,157.5703,163.5005,153.5703" style="stroke:#181818;stroke-width:1;stroke-linejoin:miter;stroke-miterlimit:10;"/><line style="stroke:#181818;stroke-width:1;" x1="39.1206" x2="165.5005" y1="153.5703" y2="153.5703"/><text fill="#000000" font-family="sans-serif" font-size="13" lengthAdjust="spacing" textLength="108.3799" x="46.1206" y="148.7139">Synchroniser carte</text></g><g class="message" data-entity-1="part2" data-entity-2="part3" data-source-line="10" id="msg2"><polygon fill="#181818" points="331.623,179.9219,341.623,183.9219,331.623,187.9219,335.623,183.9219" style="stroke:#181818;stroke-width:1;stroke-linejoin:miter;stroke-miterlimit:10;"/><line style="stroke:#181818;stroke-width:1;" x1="171.5005" x2="337.623" y1="183.9219" y2="183.9219"/><text fill="#000000" font-family="sans-serif" font-size="13" lengthAdjust="spacing" textLength="148.1226" x="178.5005" y="179.0654">POST /api/cards/{id}/sync</text></g><g class="message" data-entity-1="part3" data-entity-2="part4" data-source-line="11" id="msg3"><polygon fill="#181818" points="503.7646,210.2734,513.7646,214.2734,503.7646,218.2734,507.7646,214.2734" style="stroke:#181818;stroke-width:1;stroke-linejoin:miter;stroke-miterlimit:10;"/><line style="stroke:#181818;stroke-width:1;" x1="343.623" x2="509.7646" y1="214.2734" y2="214.2734"/><text fill="#000000" font-family="sans-serif" font-size="13" lengthAdjust="spacing" textLength="73.6899" x="350.623" y="209.417">Verifier carte</text></g><g class="message" data-entity-1="part4" data-entity-2="part3" data-source-line="12" id="msg4"><polygon fill="#181818" points="354.623,240.625,344.623,244.625,354.623,248.625,350.623,244.625" style="stroke:#181818;stroke-width:1;stroke-linejoin:miter;stroke-miterlimit:10;"/><line style="stroke:#181818;stroke-width:1;stroke-dasharray:2,2;" x1="348.623" x2="514.7646" y1="244.625" y2="244.625"/><text fill="#000000" font-family="sans-serif" font-size="13" lengthAdjust="spacing" textLength="91.0381" x="360.623" y="239.7686">Carte utilisateur</text></g><g class="message" data-entity-1="part3" data-entity-2="part4" data-source-line="13" id="msg5"><polygon fill="#181818" points="503.7646,270.9766,513.7646,274.9766,503.7646,278.9766,507.7646,274.9766" style="stroke:#181818;stroke-width:1;stroke-linejoin:miter;stroke-miterlimit:10;"/><line style="stroke:#181818;stroke-width:1;" x1="343.623" x2="509.7646" y1="274.9766" y2="274.9766"/><text fill="#000000" font-family="sans-serif" font-size="13" lengthAdjust="spacing" textLength="128.6289" x="350.623" y="270.1201">Lire operations source</text></g><g class="message" data-entity-1="part4" data-entity-2="part3" data-source-line="14" id="msg6"><polygon fill="#181818" points="354.623,301.3281,344.623,305.3281,354.623,309.3281,350.623,305.3281" style="stroke:#181818;stroke-width:1;stroke-linejoin:miter;stroke-miterlimit:10;"/><line style="stroke:#181818;stroke-width:1;stroke-dasharray:2,2;" x1="348.623" x2="514.7646" y1="305.3281" y2="305.3281"/><text fill="#000000" font-family="sans-serif" font-size="13" lengthAdjust="spacing" textLength="96.1035" x="360.623" y="300.4717">Operations carte</text></g><g class="message" data-entity-1="part3" data-entity-2="part4" data-source-line="15" id="msg7"><polygon fill="#181818" points="503.7646,331.6797,513.7646,335.6797,503.7646,339.6797,507.7646,335.6797" style="stroke:#181818;stroke-width:1;stroke-linejoin:miter;stroke-miterlimit:10;"/><line style="stroke:#181818;stroke-width:1;" x1="343.623" x2="509.7646" y1="335.6797" y2="335.6797"/><text fill="#000000" font-family="sans-serif" font-size="13" lengthAdjust="spacing" textLength="148.1416" x="350.623" y="330.8232">Sauvegarder transactions</text></g><g class="message" data-entity-1="part3" data-entity-2="part2" data-source-line="16" id="msg8"><polygon fill="#181818" points="182.5005,362.0313,172.5005,366.0313,182.5005,370.0313,178.5005,366.0313" style="stroke:#181818;stroke-width:1;stroke-linejoin:miter;stroke-miterlimit:10;"/><line style="stroke:#181818;stroke-width:1;stroke-dasharray:2,2;" x1="176.5005" x2="342.623" y1="366.0313" y2="366.0313"/><text fill="#000000" font-family="sans-serif" font-size="13" lengthAdjust="spacing" textLength="142.3462" x="188.5005" y="361.1748">Resume synchronisation</text></g><g class="message" data-entity-1="part2" data-entity-2="part1" data-source-line="17" id="msg9"><polygon fill="#181818" points="50.1206,392.3828,40.1206,396.3828,50.1206,400.3828,46.1206,396.3828" style="stroke:#181818;stroke-width:1;stroke-linejoin:miter;stroke-miterlimit:10;"/><line style="stroke:#181818;stroke-width:1;stroke-dasharray:2,2;" x1="44.1206" x2="170.5005" y1="396.3828" y2="396.3828"/><text fill="#000000" font-family="sans-serif" font-size="13" lengthAdjust="spacing" textLength="90.3208" x="56.1206" y="391.5264">Vue mise a jour</text></g><?plantuml-src NL51QiD03BplAuJlnlSS2ar3eH18MZUvAxRYABLtpMgtfPJ-lTerQPnSDQCPpIXmw0dgRzkSlBCi6DXPQD07WWFQ1jaJbB2F1CB3sFEHYOoH3xOZUXn0JjYwBxOT7B4NCjW4vw7O1UwJ6aLV00hiXBpHZS0DZsW358-sYprEwBDwXpju-mBrw9FmqhcGQJepBGOye10KMoUXyrI_hZEuMXgJNA1ycFHWCSkbynpAJ91oai42jflw7IeSkLAubUg7szzATCqaN6chfRBsv5FmYuREod-5fznLlEQzsLod_jn8FXSh82xwvavXSuKd_Rb0ZV6JEhrDtOD7ArfmeawaMTOtaZZebsvVUSchn5pE8hzoq480uQp7_040?></g></svg>