<svg xmlns="http://www.w3.org/2000/svg" xmlns:xlink="http://www.w3.org/1999/xlink" contentStyleType="text/css" data-diagram-type="DESCRIPTION" height="448px" preserveAspectRatio="none" style="width:403px;height:448px;background:#FFFFFF;" version="1.1" viewBox="0 0 403 448" width="403px" zoomAndPan="magnify"><?plantuml 1.2026.4?><defs/><g><g class="title" data-source-line="1"><text fill="#000000" font-family="sans-serif" font-size="14" font-weight="700" lengthAdjust="spacing" textLength="283.1582" x="56.8018" y="24.5332">Attijari Compass - Composants principaux</text></g><!--entity Front--><g class="entity" data-qualified-name="Front" data-source-line="6" id="ent0001"><rect fill="#F1F1F1" height="37.6094" rx="2.5" ry="2.5" style="stroke:#181818;stroke-width:0.5;" width="128.1787" x="19.5" y="45.6094"/><text fill="#000000" font-family="sans-serif" font-size="14" lengthAdjust="spacing" textLength="108.1787" x="29.5" y="70.1426">Frontend Angular</text></g><!--entity API--><g class="entity" data-qualified-name="API" data-source-line="7" id="ent0002"><rect fill="#F1F1F1" height="37.6094" rx="2.5" ry="2.5" style="stroke:#181818;stroke-width:0.5;" width="119.6133" x="23.5" y="161.6094"/><text fill="#000000" font-family="sans-serif" font-size="14" lengthAdjust="spacing" textLength="99.6133" x="33.5" y="186.1426">API Spring Boot</text></g><!--entity Sec--><g class="entity" data-qualified-name="Sec" data-source-line="8" id="ent0003"><rect fill="#F1F1F1" height="37.6094" rx="2.5" ry="2.5" style="stroke:#181818;stroke-width:0.5;" width="104.0137" x="11.5" y="260.6094"/><text fill="#000000" font-family="sans-serif" font-size="14" lengthAdjust="spacing" textLength="84.0137" x="21.5" y="285.1426">Securite JWT</text></g><!--entity Biz--><g class="entity" data-qualified-name="Biz" data-source-line="9" id="ent0004"><rect fill="#F1F1F1" height="37.6094" rx="2.5" ry="2.5" style="stroke:#181818;stroke-width:0.5;" width="116.4688" x="150.5" y="260.6094"/><text fill="#000000" font-family="sans-serif" font-size="14" lengthAdjust="spacing" textLength="96.4688" x="160.5" y="285.1426">Services metier</text></g><!--entity ML--><g class="entity" data-qualified-name="ML" data-source-line="10" id="ent0005"><rect fill="#F1F1F1" height="37.6094" rx="2.5" ry="2.5" style="stroke:#181818;stroke-width:0.5;" width="93.1309" x="7" y="381.1094"/><text fill="#000000" font-family="sans-serif" font-size="14" lengthAdjust="spacing" textLength="73.1309" x="17" y="405.6426">FastAPI ML</text></g><!--entity Groq--><g class="entity" data-qualified-name="Groq" data-source-line="11" id="ent0006"><rect fill="#F1F1F1" height="37.6094" rx="2.5" ry="2.5" style="stroke:#181818;stroke-width:0.5;" width="77.5791" x="169.5" y="381.1094"/><text fill="#000000" font-family="sans-serif" font-size="14" lengthAdjust="spacing" textLength="57.5791" x="179.5" y="405.6426">Groq API</text></g><!--entity DB--><g class="entity" data-qualified-name="DB" data-source-line="12" id="ent0007"><path d="M282.5,386.6094 C282.5,376.6094 330.6309,376.6094 330.6309,376.6094 C330.6309,376.6094 378.7617,376.6094 378.7617,386.6094 L378.7617,413.2188 C378.7617,423.2188 330.6309,423.2188 330.6309,423.2188 C330.6309,423.2188 282.5,423.2188 282.5,413.2188 L282.5,386.6094" fill="#F1F1F1" style="stroke:#181818;stroke-width:0.5;"/><path d="M282.5,386.6094 C282.5,396.6094 330.6309,396.6094 330.6309,396.6094 C330.6309,396.6094 378.7617,396.6094 378.7617,386.6094" fill="none" style="stroke:#181818;stroke-width:0.5;"/><text fill="#000000" font-family="sans-serif" font-size="14" lengthAdjust="spacing" textLength="76.2617" x="292.5" y="415.1426">PostgreSQL</text></g><!--link Front to API--><g class="link" data-entity-1="ent0001" data-entity-2="ent0002" data-link-type="dependency" data-source-line="14" id="lnk8"><path d="M83.5,83.6694 C83.5,104.8894 83.5,134.9094 83.5,156.2494" fill="none" id="Front-to-API" style="stroke:#181818;stroke-width:1;"/><polygon fill="#181818" points="83.5,161.2494,87.5,152.2494,83.5,156.2494,79.5,152.2494,83.5,161.2494" style="stroke:#181818;stroke-width:1;stroke-linejoin:miter;stroke-miterlimit:10;"/><text fill="#000000" font-family="sans-serif" font-size="13" lengthAdjust="spacing" textLength="76.1973" x="84.5" y="128.1045">REST + JWT</text></g><!--link API to Sec--><g class="link" data-entity-1="ent0002" data-entity-2="ent0003" data-link-type="dependency" data-source-line="15" id="lnk9"><path d="M79.74,199.8494 C76.16,217.1994 71.8321,238.2329 68.2521,255.5529" fill="none" id="API-to-Sec" style="stroke:#181818;stroke-width:1;"/><polygon fill="#181818" points="67.24,260.4494,72.979,252.4454,68.2521,255.5529,65.1446,250.826,67.24,260.4494" style="stroke:#181818;stroke-width:1;stroke-linejoin:miter;stroke-miterlimit:10;"/></g><!--link API to Biz--><g class="link" data-entity-1="ent0002" data-entity-2="ent0004" data-link-type="dependency" data-source-line="16" id="lnk10"><path d="M106.72,199.6294 C129.03,216.9394 158.6198,239.9041 181.0298,257.2941" fill="none" id="API-to-Biz" style="stroke:#181818;stroke-width:1;"/><polygon fill="#181818" points="184.98,260.3594,180.3219,251.6817,181.0298,257.2941,175.4174,258.002,184.98,260.3594" style="stroke:#181818;stroke-width:1;stroke-linejoin:miter;stroke-miterlimit:10;"/></g><!--link Biz to DB--><g class="link" data-entity-1="ent0004" data-entity-2="ent0007" data-link-type="dependency" data-source-line="17" id="lnk11"><path d="M250.56,298.7394 C265.08,306.4294 280.65,316.4694 292.5,328.6094 C305.8,342.2494 313.7878,356.8805 320.1578,371.8105" fill="none" id="Biz-to-DB" style="stroke:#181818;stroke-width:1;"/><polygon fill="#181818" points="322.12,376.4094,322.2672,366.5616,320.1578,371.8105,314.909,369.7011,322.12,376.4094" style="stroke:#181818;stroke-width:1;stroke-linejoin:miter;stroke-miterlimit:10;"/></g><!--link Biz to ML--><g class="link" data-entity-1="ent0004" data-entity-2="ent0005" data-link-type="dependency" data-source-line="18" id="lnk12"><path d="M150.41,293.2194 C127.94,300.4794 103.39,311.6594 85.5,328.6094 C70.57,342.7494 63.4166,360.3569 58.9766,376.1069" fill="none" id="Biz-to-ML" style="stroke:#181818;stroke-width:1;"/><polygon fill="#181818" points="57.62,380.9194,63.9119,373.3423,58.9766,376.1069,56.212,371.1717,57.62,380.9194" style="stroke:#181818;stroke-width:1;stroke-linejoin:miter;stroke-miterlimit:10;"/><text fill="#000000" font-family="sans-serif" font-size="13" lengthAdjust="spacing" textLength="113.458" x="86.5" y="343.1045">prediction categorie</text></g><!--link Biz to Groq--><g class="link" data-entity-1="ent0004" data-entity-2="ent0006" data-link-type="dependency" data-source-line="19" id="lnk13"><path d="M208.5,298.8694 C208.5,321.1994 208.5,353.7694 208.5,376.0294" fill="none" id="Biz-to-Groq" style="stroke:#181818;stroke-width:1;"/><polygon fill="#181818" points="208.5,381.0294,212.5,372.0294,208.5,376.0294,204.5,372.0294,208.5,381.0294" style="stroke:#181818;stroke-width:1;stroke-linejoin:miter;stroke-miterlimit:10;"/><text fill="#000000" font-family="sans-serif" font-size="13" lengthAdjust="spacing" textLength="74.4263" x="209.5" y="343.1045">chatbot RAG</text></g><?plantuml-src LK_BQiCm4BphAvPSYtyWXuBTHsYn8Oq3FM_ahRAjBRdQTLzVNqiXmJa8HlFGZ9Ir9oXL-HqZmrqOHXI18gCWw5LWZEmjZpZz62CVx4UCE80SiGlVx1syOI-qK6oAUlBQwk_yU2Ihw5rFnbmKM3t6u9Ly1wLtKuzn1IYGoQMht3v1c_eTL25eDitSqjAIdI8hmVFhFkipSQt7BxOaC90odNeg_hlQWgAfgQcpsjHBSHF3P-hCKhgO3XKFA0IhRH1raTgNK_2-CYP_0OhYDcLW3Rk7TWytQPn9H1BIm3DEI-QJyHm_mwQUesEaZgroy61HoON8T77aMMkmHzH3KDYLcty0?></g></svg>