<svg xmlns="http://www.w3.org/2000/svg" xmlns:xlink="http://www.w3.org/1999/xlink" contentStyleType="text/css" data-diagram-type="DESCRIPTION" height="495px" preserveAspectRatio="none" style="width:405px;height:495px;background:#FFFFFF;" version="1.1" viewBox="0 0 405 495" width="405px" zoomAndPan="magnify"><?plantuml 1.2026.4?><defs/><g><g class="title" data-source-line="1"><text fill="#000000" font-family="sans-serif" font-size="14" font-weight="700" lengthAdjust="spacing" textLength="268.3857" x="65.1092" y="24.5332">Attijari Compass - Deploiement simplifie</text></g><!--entity Client--><g class="entity" data-qualified-name="Client" data-source-line="5" id="ent0001"><polygon fill="#F1F1F1" points="174.5,54.6094,184.5,44.6094,250.293,44.6094,250.293,82.2188,240.293,92.2188,174.5,92.2188,174.5,54.6094" style="stroke:#181818;stroke-width:0.5;stroke-linejoin:miter;stroke-miterlimit:10;"/><line style="stroke:#181818;stroke-width:0.5;" x1="240.293" x2="250.293" y1="54.6094" y2="44.6094"/><line style="stroke:#181818;stroke-width:0.5;" x1="174.5" x2="240.293" y1="54.6094" y2="54.6094"/><line style="stroke:#181818;stroke-width:0.5;" x1="240.293" x2="240.293" y1="54.6094" y2="92.2188"/><text fill="#000000" font-family="sans-serif" font-size="14" lengthAdjust="spacing" textLength="35.793" x="189.5" y="79.1426">Client</text></g><!--entity Front--><g class="entity" data-qualified-name="Front" data-source-line="6" id="ent0002"><polygon fill="#F1F1F1" points="138.5,180.6094,148.5,170.6094,286.6787,170.6094,286.6787,208.2188,276.6787,218.2188,138.5,218.2188,138.5,180.6094" style="stroke:#181818;stroke-width:0.5;stroke-linejoin:miter;stroke-miterlimit:10;"/><line style="stroke:#181818;stroke-width:0.5;" x1="276.6787" x2="286.6787" y1="180.6094" y2="170.6094"/><line style="stroke:#181818;stroke-width:0.5;" x1="138.5" x2="276.6787" y1="180.6094" y2="180.6094"/><line style="stroke:#181818;stroke-width:0.5;" x1="276.6787" x2="276.6787" y1="180.6094" y2="218.2188"/><text fill="#000000" font-family="sans-serif" font-size="14" lengthAdjust="spacing" textLength="108.1787" x="153.5" y="205.1426">Frontend Angular</text></g><!--entity Back--><g class="entity" data-qualified-name="Back" data-source-line="7" id="ent0003"><polygon fill="#F1F1F1" points="126.5,306.6094,136.5,296.6094,298.0303,296.6094,298.0303,334.2188,288.0303,344.2188,126.5,344.2188,126.5,306.6094" style="stroke:#181818;stroke-width:0.5;stroke-linejoin:miter;stroke-miterlimit:10;"/><line style="stroke:#181818;stroke-width:0.5;" x1="288.0303" x2="298.0303" y1="306.6094" y2="296.6094"/><line style="stroke:#181818;stroke-width:0.5;" x1="126.5" x2="288.0303" y1="306.6094" y2="306.6094"/><line style="stroke:#181818;stroke-width:0.5;" x1="288.0303" x2="288.0303" y1="306.6094" y2="344.2188"/><text fill="#000000" font-family="sans-serif" font-size="14" lengthAdjust="spacing" textLength="131.5303" x="141.5" y="331.1426">Backend Spring Boot</text></g><!--entity ML--><g class="entity" data-qualified-name="ML" data-source-line="8" id="ent0004"><polygon fill="#F1F1F1" points="16,432.6094,26,422.6094,129.1309,422.6094,129.1309,460.2188,119.1309,470.2188,16,470.2188,16,432.6094" style="stroke:#181818;stroke-width:0.5;stroke-linejoin:miter;stroke-miterlimit:10;"/><line style="stroke:#181818;stroke-width:0.5;" x1="119.1309" x2="129.1309" y1="432.6094" y2="422.6094"/><line style="stroke:#181818;stroke-width:0.5;" x1="16" x2="119.1309" y1="432.6094" y2="432.6094"/><line style="stroke:#181818;stroke-width:0.5;" x1="119.1309" x2="119.1309" y1="432.6094" y2="470.2188"/><text fill="#000000" font-family="sans-serif" font-size="14" lengthAdjust="spacing" textLength="73.1309" x="31" y="457.1426">FastAPI ML</text></g><!--entity DB--><g class="entity" data-qualified-name="DB" data-source-line="9" id="ent0005"><path d="M164.5,433.1094 C164.5,423.1094 212.6309,423.1094 212.6309,423.1094 C212.6309,423.1094 260.7617,423.1094 260.7617,433.1094 L260.7617,459.7188 C260.7617,469.7188 212.6309,469.7188 212.6309,469.7188 C212.6309,469.7188 164.5,469.7188 164.5,459.7188 L164.5,433.1094" fill="#F1F1F1" style="stroke:#181818;stroke-width:0.5;"/><path d="M164.5,433.1094 C164.5,443.1094 212.6309,443.1094 212.6309,443.1094 C212.6309,443.1094 260.7617,443.1094 260.7617,433.1094" fill="none" style="stroke:#181818;stroke-width:0.5;"/><text fill="#000000" font-family="sans-serif" font-size="14" lengthAdjust="spacing" textLength="76.2617" x="174.5" y="461.6426">PostgreSQL</text></g><!--entity Groq--><g class="entity" data-qualified-name="Groq" data-source-line="10" id="ent0006"><path d="M305.3172,432.2596 C307.4967,425.7026 311.1578,424.2542 316.5342,429.1205 C320.0642,423.2367 324.0655,423.8426 327.75,428.9631 C329.8159,422.961 334.2775,420.543 339.379,425.8384 C343.8045,421.548 348.3255,422.2685 351.2634,427.6637 C356.1333,422.8281 362.6814,423.6213 364.8422,430.7407 C368.1667,424.5934 373.8921,424.57 377.1983,430.7591 C387.2877,431.1169 390.6042,439.5543 385.4845,447.4588 C390.1934,457.235 387.6835,462.91 376.3915,463.7616 C373.552,470.0456 369.5714,470.4496 364.7472,465.8936 C362.9695,473.0204 359.3031,473.9173 353.2588,470.5761 C351.4243,478.4018 345.217,478.9967 340.2974,473.6003 C334.8136,477.851 330.9266,476.2618 328.7026,470.0036 C323.5922,475.0483 318.8759,473.1251 316.6501,466.9147 C311.4604,472.9787 305.9102,469.7766 303.9897,463.5478 C295.544,461.0422 294.0247,455.7172 298.1847,448.3855 C292.8825,441.2112 295.3408,432.6762 305.3172,432.2596" fill="#F1F1F1" style="stroke:#181818;stroke-width:0.5;"/><text fill="#000000" font-family="sans-serif" font-size="14" lengthAdjust="spacing" textLength="57.5791" x="310.5" y="452.1426">Groq API</text></g><!--link Client to Front--><g class="link" data-entity-1="ent0001" data-entity-2="ent0002" data-link-type="dependency" data-source-line="12" id="lnk7"><path d="M212.5,92.6394 C212.5,114.7794 212.5,143.0494 212.5,165.2794" fill="none" id="Client-to-Front" style="stroke:#181818;stroke-width:1;"/><polygon fill="#181818" points="212.5,170.2794,216.5,161.2794,212.5,165.2794,208.5,161.2794,212.5,170.2794" style="stroke:#181818;stroke-width:1;stroke-linejoin:miter;stroke-miterlimit:10;"/><text fill="#000000" font-family="sans-serif" font-size="13" lengthAdjust="spacing" textLength="62.8672" x="213.5" y="137.1045">Navigateur</text></g><!--link Front to Back--><g class="link" data-entity-1="ent0002" data-entity-2="ent0003" data-link-type="dependency" data-source-line="13" id="lnk8"><path d="M212.5,218.6394 C212.5,240.7794 212.5,269.0494 212.5,291.2794" fill="none" id="Front-to-Back" style="stroke:#181818;stroke-width:1;"/><polygon fill="#181818" points="212.5,296.2794,216.5,287.2794,212.5,291.2794,208.5,287.2794,212.5,296.2794" style="stroke:#181818;stroke-width:1;stroke-linejoin:miter;stroke-miterlimit:10;"/><text fill="#000000" font-family="sans-serif" font-size="13" lengthAdjust="spacing" textLength="76.1973" x="213.5" y="263.1045">REST + JWT</text></g><!--link Back to DB--><g class="link" data-entity-1="ent0003" data-entity-2="ent0005" data-link-type="dependency" data-source-line="14" id="lnk9"><path d="M212.5,344.6394 C212.5,366.9194 212.5,395.4694 212.5,417.6994" fill="none" id="Back-to-DB" style="stroke:#181818;stroke-width:1;"/><polygon fill="#181818" points="212.5,422.6994,216.5,413.6994,212.5,417.6994,208.5,413.6994,212.5,422.6994" style="stroke:#181818;stroke-width:1;stroke-linejoin:miter;stroke-miterlimit:10;"/><text fill="#000000" font-family="sans-serif" font-size="13" lengthAdjust="spacing" textLength="61.4009" x="213.5" y="389.1045">JPA/JDBC</text></g><!--link Back to ML--><g class="link" data-entity-1="ent0003" data-entity-2="ent0004" data-link-type="dependency" data-source-line="15" id="lnk10"><path d="M165.65,344.6894 C151.26,352.9994 135.96,363.1794 123.5,374.6094 C108.4,388.4594 97.6956,403.2067 88.4356,418.0567" fill="none" id="Back-to-ML" style="stroke:#181818;stroke-width:1;"/><polygon fill="#181818" points="85.79,422.2994,93.9463,416.779,88.4356,418.0567,87.158,412.546,85.79,422.2994" style="stroke:#181818;stroke-width:1;stroke-linejoin:miter;stroke-miterlimit:10;"/><text fill="#000000" font-family="sans-serif" font-size="13" lengthAdjust="spacing" textLength="79.479" x="124.5" y="389.1045">Prediction ML</text></g><!--link Back to Groq--><g class="link" data-entity-1="ent0003" data-entity-2="ent0006" data-link-type="dependency" data-source-line="16" id="lnk11"><path d="M247.19,344.7094 C259.24,353.4394 272.48,363.8794 283.5,374.6094 C298.57,389.2894 310.2786,403.9988 320.8086,418.5488" fill="none" id="Back-to-Groq" style="stroke:#181818;stroke-width:1;"/><polygon fill="#181818" points="323.74,422.5994,321.7039,412.9633,320.8086,418.5488,315.223,417.6536,323.74,422.5994" style="stroke:#181818;stroke-width:1;stroke-linejoin:miter;stroke-miterlimit:10;"/><text fill="#000000" font-family="sans-serif" font-size="13" lengthAdjust="spacing" textLength="77.3145" x="299.5" y="389.1045">Chatbot RAG</text></g><?plantuml-src HOxBJiCm44Nt_efHjYXYtmLI7b0rIb1eAh6U9cuwrB63FO7Vnuy2E_kScJkNYPM4Wfa-q19KPbdHESYXbgio91Uf6Hmjgw8BII7SZVIA5XTmLvpCD-aPBgYSLzfC4h9AaL_901savvs_MADPwWaAFMyARPo8y3vGudWBVbXj22sDIIc1_sQWuw8_GDT6qxLYGiOpEkzwutYsSdXBhYx5gCmsGRQtvXFyLiJX8qGg1dd-b1h03bxnYsPakLcHK93Xj7V7v-443z2ydqGaGTMb5qrVF3PrMVtZhlMujtAYaSdeKF7FnI8xgAx8PyDmBFO_?></g></svg>