<svg xmlns="http://www.w3.org/2000/svg" xmlns:xlink="http://www.w3.org/1999/xlink" contentStyleType="text/css" data-diagram-type="DESCRIPTION" height="531px" preserveAspectRatio="none" style="width:593px;height:531px;background:#FFFFFF;" version="1.1" viewBox="0 0 593 531" width="593px" zoomAndPan="magnify"><?plantuml 1.2026.4?><defs/><g><g class="title" data-source-line="1"><text fill="#000000" font-family="sans-serif" font-size="14" font-weight="700" lengthAdjust="spacing" textLength="327.5234" x="129.5776" y="24.5332">Attijari Compass - Architecture globale simplifiee</text></g><!--entity User--><g class="entity" data-qualified-name="User" data-source-line="5" id="ent0001"><ellipse cx="265.1206" cy="52.6094" fill="#F1F1F1" rx="8" ry="8" style="stroke:#181818;stroke-width:0.5;"/><path d="M265.1206,60.6094 L265.1206,87.6094 M252.1206,68.6094 L278.1206,68.6094 M265.1206,87.6094 L252.1206,102.6094 M265.1206,87.6094 L278.1206,102.6094" fill="none" style="stroke:#181818;stroke-width:0.5;"/><text fill="#000000" font-family="sans-serif" font-size="14" lengthAdjust="spacing" textLength="62.2412" x="234" y="118.6426">Utilisateur</text></g><!--entity Front--><g class="entity" data-qualified-name="Front" data-source-line="6" id="ent0002"><rect fill="#F1F1F1" height="55.2188" rx="2.5" ry="2.5" style="stroke:#181818;stroke-width:0.5;" width="104.0479" x="213" y="183.1094"/><text fill="#000000" font-family="sans-serif" font-size="14" lengthAdjust="spacing" textLength="67.7168" x="223" y="207.6426">Angular 17</text><text fill="#000000" font-family="sans-serif" font-size="14" lengthAdjust="spacing" textLength="84.0479" x="223" y="225.252">Interface web</text></g><!--entity Back--><g class="entity" data-qualified-name="Back" data-source-line="7" id="ent0003"><rect fill="#F1F1F1" height="55.2188" rx="2.5" ry="2.5" style="stroke:#181818;stroke-width:0.5;" width="147.5996" x="191" y="316.1094"/><text fill="#000000" font-family="sans-serif" font-size="14" lengthAdjust="spacing" textLength="73.1582" x="201" y="340.6426">Spring Boot</text><text fill="#000000" font-family="sans-serif" font-size="14" lengthAdjust="spacing" textLength="127.5996" x="201" y="358.252">API REST securisee</text></g><!--entity DB--><g class="entity" data-qualified-name="DB" data-source-line="8" id="ent0004"><path d="M6,468.1094 C6,458.1094 54.1309,458.1094 54.1309,458.1094 C54.1309,458.1094 102.2617,458.1094 102.2617,468.1094 L102.2617,494.7188 C102.2617,504.7188 54.1309,504.7188 54.1309,504.7188 C54.1309,504.7188 6,504.7188 6,494.7188 L6,468.1094" fill="#F1F1F1" style="stroke:#181818;stroke-width:0.5;"/><path d="M6,468.1094 C6,478.1094 54.1309,478.1094 54.1309,478.1094 C54.1309,478.1094 102.2617,478.1094 102.2617,468.1094" fill="none" style="stroke:#181818;stroke-width:0.5;"/><text fill="#000000" font-family="sans-serif" font-size="14" lengthAdjust="spacing" textLength="76.2617" x="16" y="496.6426">PostgreSQL</text></g><!--entity ML--><g class="entity" data-qualified-name="ML" data-source-line="9" id="ent0005"><rect fill="#F1F1F1" height="55.2188" rx="2.5" ry="2.5" style="stroke:#181818;stroke-width:0.5;" width="110.2754" x="137" y="454.1094"/><text fill="#000000" font-family="sans-serif" font-size="14" lengthAdjust="spacing" textLength="73.1309" x="147" y="478.6426">FastAPI ML</text><text fill="#000000" font-family="sans-serif" font-size="14" lengthAdjust="spacing" textLength="90.2754" x="147" y="496.252">Categorisation</text></g><!--entity Groq--><g class="entity" data-qualified-name="Groq" data-source-line="10" id="ent0006"><path d="M290.7118,457.6514 C294.2944,450.8777 298.5032,449.8406 304.0912,455.492 C306.0272,449.6156 311.3178,448.7614 315.374,453.1649 C318.2095,446.8367 322.9777,446.418 327.2837,451.6499 C330.083,444.7882 334.9649,444.1343 340.0862,449.1463 C343.9352,444.4606 348.3019,444.2099 351.4593,449.9041 C357.094,445.7276 362.6154,446.1453 364.7591,453.8214 C369.674,447.6074 374.8909,449.4538 377.5671,456.0582 C381.8669,452.182 386.4685,452.659 388.0316,458.8913 C394.6504,460.8876 395.9906,464.8405 392.1606,470.5404 C398.7686,471.1953 401.2361,476.8556 397.1021,482.1018 C401.9273,488.2122 399.9602,494.1061 391.7922,494.7705 C397.3225,499.6166 394.6167,504.728 388.7759,506.6987 C385.7486,513.7051 381.2699,512.9639 376.4573,508.6396 C372.7868,514.0309 367.3671,513.571 363.877,508.4243 C361.1699,513.8695 357.9262,515.3991 353.1556,510.5798 C348.1474,516.9989 343.7587,516.5881 339.8387,509.5065 C336.8716,515.413 331.5432,515.1004 327.7261,510.4849 C323.0475,516.4994 319.4283,515.6781 315.7874,509.4712 C311.927,514.1329 307.5672,515.1602 304.4639,508.7004 C299.708,515.2061 294.183,513.0065 291.4094,506.6832 C285.2109,504.9625 284.0106,499.6408 287.9006,494.9127 C281.1224,492.6878 279.0038,488.4291 283.0251,482.0961 C280.1261,476.1522 281.7735,471.7418 288.6701,470.6137 C282.9581,465.3449 284.7385,461.0797 290.7118,457.6514" fill="#F1F1F1" style="stroke:#181818;stroke-width:0.5;"/><text fill="#000000" font-family="sans-serif" font-size="14" lengthAdjust="spacing" textLength="57.5791" x="297.5" y="478.6426">Groq API</text><text fill="#000000" font-family="sans-serif" font-size="14" lengthAdjust="spacing" textLength="83.2617" x="297.5" y="496.252">Chatbot RAG</text></g><!--entity Reporting--><g class="entity" data-qualified-name="Reporting" data-source-line="11" id="ent0007"><rect fill="#F1F1F1" height="37.6094" rx="2.5" ry="2.5" style="stroke:#181818;stroke-width:0.5;" width="149.1787" x="430.5" y="462.6094"/><text fill="#000000" font-family="sans-serif" font-size="14" lengthAdjust="spacing" textLength="129.1787" x="440.5" y="487.1426">Dashboard / Reports</text></g><!--link User to Front--><g class="link" data-entity-1="ent0001" data-entity-2="ent0002" data-link-type="dependency" data-source-line="13" id="lnk8"><path d="M265,122.4494 C265,142.0494 265,160.4294 265,178.0294" fill="none" id="User-to-Front" style="stroke:#181818;stroke-width:1;"/><polygon fill="#181818" points="265,183.0294,269,174.0294,265,178.0294,261,174.0294,265,183.0294" style="stroke:#181818;stroke-width:1;stroke-linejoin:miter;stroke-miterlimit:10;"/></g><!--link Front to Back--><g class="link" data-entity-1="ent0002" data-entity-2="ent0003" data-link-type="dependency" data-source-line="14" id="lnk9"><path d="M265,238.1194 C265,260.6994 265,287.9894 265,310.6894" fill="none" id="Front-to-Back" style="stroke:#181818;stroke-width:1;"/><polygon fill="#181818" points="265,315.6894,269,306.6894,265,310.6894,261,306.6894,265,315.6894" style="stroke:#181818;stroke-width:1;stroke-linejoin:miter;stroke-miterlimit:10;"/><text fill="#000000" font-family="sans-serif" font-size="13" lengthAdjust="spacing" textLength="76.1973" x="266" y="282.6045">REST + JWT</text></g><!--link Back to DB--><g class="link" data-entity-1="ent0003" data-entity-2="ent0004" data-link-type="dependency" data-source-line="15" id="lnk10"><path d="M223.82,371.1594 C184.6,396.4294 130.4126,431.3605 93.3326,455.2605" fill="none" id="Back-to-DB" style="stroke:#181818;stroke-width:1;"/><polygon fill="#181818" points="89.13,457.9694,98.8618,456.4556,93.3326,455.2605,94.5277,449.7314,89.13,457.9694" style="stroke:#181818;stroke-width:1;stroke-linejoin:miter;stroke-miterlimit:10;"/><text fill="#000000" font-family="sans-serif" font-size="13" lengthAdjust="spacing" textLength="23.8418" x="174" y="415.6045">JPA</text></g><!--link Back to ML--><g class="link" data-entity-1="ent0003" data-entity-2="ent0005" data-link-type="dependency" data-source-line="16" id="lnk11"><path d="M250.75,371.1594 C237.97,394.9594 221.6754,425.3343 208.8254,449.2643" fill="none" id="Back-to-ML" style="stroke:#181818;stroke-width:1;"/><polygon fill="#181818" points="206.46,453.6694,214.2419,447.6326,208.8254,449.2643,207.1937,443.8479,206.46,453.6694" style="stroke:#181818;stroke-width:1;stroke-linejoin:miter;stroke-miterlimit:10;"/><text fill="#000000" font-family="sans-serif" font-size="13" lengthAdjust="spacing" textLength="42.6309" x="234" y="415.6045">/predict</text></g><!--link Back to Groq--><g class="link" data-entity-1="ent0003" data-entity-2="ent0006" data-link-type="dependency" data-source-line="17" id="lnk12"><path d="M279.44,371.1594 C291.56,393.4194 306.5004,420.8773 319.3404,444.4773" fill="none" id="Back-to-Groq" style="stroke:#181818;stroke-width:1;"/><polygon fill="#181818" points="321.73,448.8694,320.9424,439.0521,319.3404,444.4773,313.9152,442.8754,321.73,448.8694" style="stroke:#181818;stroke-width:1;stroke-linejoin:miter;stroke-miterlimit:10;"/><text fill="#000000" font-family="sans-serif" font-size="13" lengthAdjust="spacing" textLength="104.4189" x="306" y="415.6045">prompt + contexte</text></g><!--link Back to Reporting--><g class="link" data-entity-1="ent0003" data-entity-2="ent0007" data-link-type="dependency" data-source-line="18" id="lnk13"><path d="M339.02,365.1594 C365.31,374.1394 394.46,386.0994 419,401.1094 C446.58,417.9794 469.7165,440.8598 485.8265,458.5798" fill="none" id="Back-to-Reporting" style="stroke:#181818;stroke-width:1;"/><polygon fill="#181818" points="489.19,462.2794,486.0954,452.9293,485.8265,458.5798,480.1761,458.3109,489.19,462.2794" style="stroke:#181818;stroke-width:1;stroke-linejoin:miter;stroke-miterlimit:10;"/></g><?plantuml-src JP5FRy8m3CNl-HGMrmcXdIPncDJ2GA0YCVve5ovkQjgCadIsA_RnbsRJu18bVZ-_F2Vgj2N8LDqdieDPk7Oe0cF8s3PEoMhF17KRIeoSk6lNkhCZCaOkpdV8U0Lfi0etvsiuOojHGgk1ONHKrpf1fPv7W0978JOSBT7NqMoK-RflaU7vvUHNNedFQ0bkL2PwmS7h8xxlUBWZ3q5FFjkkOFUsFu2GxTa9KMhAqLvCXOebIcpP1j6QQVzU97MUF_ejK7ImsHGdFuifwy13MXTyWZU5iMteAnWjENn192FMe9P1OPSj4pCeZvPpbAOCo1LCO4TTO9N4_UvZUcE6Hu3n-FLllhIcyn0Tfhz3FS7wus1IPP3cUHJMs-nUsHInCkcOAcVrNav9fz1n_4QDBZQQqxVIdVXFyWC0?></g></svg>