<svg xmlns="http://www.w3.org/2000/svg" xmlns:xlink="http://www.w3.org/1999/xlink" contentStyleType="text/css" data-diagram-type="DESCRIPTION" height="1377px" preserveAspectRatio="none" style="width:638px;height:1377px;background:#FFFFFF;" version="1.1" viewBox="0 0 638 1377" width="638px" zoomAndPan="magnify"><?plantuml 1.2026.4?><defs/><g><g class="title" data-source-line="1"><text fill="#000000" font-family="sans-serif" font-size="14" font-weight="700" lengthAdjust="spacing" textLength="374.4111" x="128.2944" y="24.5332">Attijari Compass - Diagramme de cas d'utilisation global</text></g><!--cluster Systeme Attijari Compass--><g class="cluster" data-qualified-name="Systeme Attijari Compass" data-source-line="21" id="ent0007"><rect fill="none" height="1299" rx="2.5" ry="2.5" style="stroke:#181818;stroke-width:1;" width="233" x="391" y="45.6094"/><text fill="#000000" font-family="sans-serif" font-size="14" font-weight="700" lengthAdjust="spacing" textLength="172.7305" x="421.1348" y="62.1426">Systeme Attijari Compass</text></g><!--entity UC_Register--><g class="entity" data-qualified-name="Systeme Attijari Compass.UC_Register" data-source-line="22" id="ent0008"><ellipse cx="507.7352" cy="164.7564" fill="#F8FAFC" rx="71.2352" ry="16.647" style="stroke:#334155;stroke-width:0.5;"/><text fill="#000000" font-family="sans-serif" font-size="14" lengthAdjust="spacing" textLength="104.2686" x="455.6009" y="170.0611">Creer un compte</text></g><!--entity UC_Login--><g class="entity" data-qualified-name="Systeme Attijari Compass.UC_Login" data-source-line="23" id="ent0009"><ellipse cx="507.3335" cy="97.5611" fill="#F8FAFC" rx="61.3335" ry="15.4517" style="stroke:#334155;stroke-width:0.5;"/><text fill="#000000" font-family="sans-serif" font-size="14" lengthAdjust="spacing" textLength="82.4961" x="466.0855" y="102.8658">Se connecter</text></g><!--entity UC_Profile--><g class="entity" data-qualified-name="Systeme Attijari Compass.UC_Profile" data-source-line="24" id="ent0010"><ellipse cx="507.4674" cy="885.5611" fill="#F8FAFC" rx="62.9674" ry="15.4517" style="stroke:#334155;stroke-width:0.5;"/><text fill="#000000" font-family="sans-serif" font-size="14" lengthAdjust="spacing" textLength="84.8066" x="465.064" y="890.8658">Gerer le profil</text></g><!--entity UC_Dashboard--><g class="entity" data-qualified-name="Systeme Attijari Compass.UC_Dashboard" data-source-line="26" id="ent0011"><ellipse cx="507.707" cy="962.651" fill="#F8FAFC" rx="97.707" ry="26.0417" style="stroke:#334155;stroke-width:0.5;"/><text fill="#000000" font-family="sans-serif" font-size="14" lengthAdjust="spacing" textLength="144.7578" x="435.3281" y="961.9001">Consulter le dashboard</text><text fill="#000000" font-family="sans-serif" font-size="14" lengthAdjust="spacing" textLength="88.71" x="463.352" y="979.5095">et les rapports</text></g><!--entity UC_Transactions--><g class="entity" data-qualified-name="Systeme Attijari Compass.UC_Transactions" data-source-line="27" id="ent0012"><ellipse cx="507.4033" cy="629.39" fill="#F8FAFC" rx="84.4033" ry="19.2807" style="stroke:#334155;stroke-width:0.5;"/><text fill="#000000" font-family="sans-serif" font-size="14" lengthAdjust="spacing" textLength="136.9443" x="438.9312" y="634.6947">Gerer les transactions</text></g><!--entity UC_Import--><g class="entity" data-qualified-name="Systeme Attijari Compass.UC_Import" data-source-line="28" id="ent0013"><ellipse cx="507.6018" cy="556.7297" fill="#F8FAFC" rx="78.6018" ry="18.1204" style="stroke:#334155;stroke-width:0.5;"/><text fill="#000000" font-family="sans-serif" font-size="14" lengthAdjust="spacing" textLength="122.9238" x="446.1399" y="562.0344">Importer CSV/Excel</text></g><!--entity UC_Categorize--><g class="entity" data-qualified-name="Systeme Attijari Compass.UC_Categorize" data-source-line="29" id="ent0014"><ellipse cx="507.2916" cy="1305.5677" fill="#F8FAFC" rx="100.2916" ry="22.4583" style="stroke:#334155;stroke-width:0.5;"/><text fill="#000000" font-family="sans-serif" font-size="14" lengthAdjust="spacing" textLength="173.5234" x="420.5299" y="1310.8724">Categoriser les transactions</text></g><!--entity UC_Cards--><g class="entity" data-qualified-name="Systeme Attijari Compass.UC_Cards" data-source-line="31" id="ent0015"><ellipse cx="507.6489" cy="705.7392" fill="#F8FAFC" rx="96.1489" ry="21.6298" style="stroke:#334155;stroke-width:0.5;"/><text fill="#000000" font-family="sans-serif" font-size="14" lengthAdjust="spacing" textLength="164.1787" x="425.5596" y="711.0439">Gerer les cartes bancaires</text></g><!--entity UC_Sync--><g class="entity" data-qualified-name="Systeme Attijari Compass.UC_Sync" data-source-line="32" id="ent0016"><ellipse cx="507.4425" cy="807.6335" fill="#F8FAFC" rx="79.9425" ry="27.5241" style="stroke:#334155;stroke-width:0.5;"/><text fill="#000000" font-family="sans-serif" font-size="14" lengthAdjust="spacing" textLength="103.4893" x="455.6979" y="803.5929">Synchroniser les</text><text fill="#000000" font-family="sans-serif" font-size="14" lengthAdjust="spacing" textLength="110.4961" x="452.1945" y="821.2022">transactions carte</text></g><!--entity UC_Budgets--><g class="entity" data-qualified-name="Systeme Attijari Compass.UC_Budgets" data-source-line="34" id="ent0017"><ellipse cx="507.3867" cy="1051.3932" fill="#F8FAFC" rx="87.8867" ry="27.7839" style="stroke:#334155;stroke-width:0.5;"/><text fill="#000000" font-family="sans-serif" font-size="14" lengthAdjust="spacing" textLength="120.627" x="447.0732" y="1048.0627">Definir des budgets</text><text fill="#000000" font-family="sans-serif" font-size="14" lengthAdjust="spacing" textLength="118.2822" x="448.2456" y="1065.6721">et consulter alertes</text></g><!--entity UC_Goals--><g class="entity" data-qualified-name="Systeme Attijari Compass.UC_Goals" data-source-line="35" id="ent0018"><ellipse cx="507.4687" cy="242.3878" fill="#F8FAFC" rx="75.9687" ry="25.7784" style="stroke:#334155;stroke-width:0.5;"/><text fill="#000000" font-family="sans-serif" font-size="14" lengthAdjust="spacing" textLength="112.8203" x="451.0585" y="242.0484">Gerer les objectifs</text><text fill="#000000" font-family="sans-serif" font-size="14" lengthAdjust="spacing" textLength="59.917" x="477.5102" y="259.6578">financiers</text></g><!--entity UC_Reco--><g class="entity" data-qualified-name="Systeme Attijari Compass.UC_Reco" data-source-line="36" id="ent0019"><ellipse cx="507.3052" cy="329.7347" fill="#F8FAFC" rx="87.3052" ry="26.1254" style="stroke:#334155;stroke-width:0.5;"/><text fill="#000000" font-family="sans-serif" font-size="14" lengthAdjust="spacing" textLength="81.7031" x="466.4537" y="323.6151">Consulter les</text><text fill="#000000" font-family="sans-serif" font-size="14" lengthAdjust="spacing" textLength="128.3926" x="443.109" y="341.2245">recommandations IA</text></g><!--entity UC_Sim--><g class="entity" data-qualified-name="Systeme Attijari Compass.UC_Sim" data-source-line="37" id="ent0020"><ellipse cx="507.707" cy="410.6508" fill="#F8FAFC" rx="85.707" ry="19.5414" style="stroke:#334155;stroke-width:0.5;"/><text fill="#000000" font-family="sans-serif" font-size="14" lengthAdjust="spacing" textLength="140.0342" x="437.69" y="415.9555">Utiliser les simulateurs</text></g><!--entity UC_Chat--><g class="entity" data-qualified-name="Systeme Attijari Compass.UC_Chat" data-source-line="38" id="ent0021"><ellipse cx="507.5973" cy="1142.8262" fill="#F8FAFC" rx="75.0973" ry="27.7169" style="stroke:#334155;stroke-width:0.5;"/><text fill="#000000" font-family="sans-serif" font-size="14" lengthAdjust="spacing" textLength="99.5928" x="457.8009" y="1139.0614">Discuter avec le</text><text fill="#000000" font-family="sans-serif" font-size="14" lengthAdjust="spacing" textLength="102.7305" x="456.232" y="1156.6708">chatbot financier</text></g><!--entity UC_Notifs--><g class="entity" data-qualified-name="Systeme Attijari Compass.UC_Notifs" data-source-line="39" id="ent0022"><ellipse cx="507.2518" cy="484.7597" fill="#F8FAFC" rx="83.7518" ry="19.1504" style="stroke:#334155;stroke-width:0.5;"/><text fill="#000000" font-family="sans-serif" font-size="14" lengthAdjust="spacing" textLength="135.3926" x="439.5555" y="490.0644">Gerer les notifications</text></g><!--entity UC_AdminUsers--><g class="entity" data-qualified-name="Systeme Attijari Compass.UC_AdminUsers" data-source-line="41" id="ent0023"><ellipse cx="507.2997" cy="1226.6693" fill="#F8FAFC" rx="95.7997" ry="21.5599" style="stroke:#334155;stroke-width:0.5;"/><text fill="#000000" font-family="sans-serif" font-size="14" lengthAdjust="spacing" textLength="163.3857" x="425.6069" y="1231.974">Administrer les utilisateurs</text></g><!--entity Visitor--><g class="entity" data-qualified-name="Visitor" data-source-line="13" id="ent0001"><ellipse cx="222.3413" cy="101.1094" fill="#F1F1F1" rx="8" ry="8" style="stroke:#181818;stroke-width:0.5;"/><path d="M222.3413,109.1094 L222.3413,136.1094 M209.3413,117.1094 L235.3413,117.1094 M222.3413,136.1094 L209.3413,151.1094 M222.3413,136.1094 L235.3413,151.1094" fill="none" style="stroke:#181818;stroke-width:0.5;"/><text fill="#000000" font-family="sans-serif" font-size="14" lengthAdjust="spacing" textLength="46.6826" x="199" y="167.1426">Visiteur</text></g><!--entity User--><g class="entity" data-qualified-name="User" data-source-line="14" id="ent0002"><ellipse cx="222.3687" cy="675.1094" fill="#F1F1F1" rx="8" ry="8" style="stroke:#181818;stroke-width:0.5;"/><path d="M222.3687,683.1094 L222.3687,710.1094 M209.3687,691.1094 L235.3687,691.1094 M222.3687,710.1094 L209.3687,725.1094 M222.3687,710.1094 L235.3687,725.1094" fill="none" style="stroke:#181818;stroke-width:0.5;"/><text fill="#000000" font-family="sans-serif" font-size="14" lengthAdjust="spacing" textLength="130.7373" x="157" y="741.1426">Utilisateur authentifie</text></g><!--entity Admin--><g class="entity" data-qualified-name="Admin" data-source-line="15" id="ent0003"><ellipse cx="51.1274" cy="1165.1094" fill="#F1F1F1" rx="8" ry="8" style="stroke:#181818;stroke-width:0.5;"/><path d="M51.1274,1173.1094 L51.1274,1200.1094 M38.1274,1181.1094 L64.1274,1181.1094 M51.1274,1200.1094 L38.1274,1215.1094 M51.1274,1200.1094 L64.1274,1215.1094" fill="none" style="stroke:#181818;stroke-width:0.5;"/><text fill="#000000" font-family="sans-serif" font-size="14" lengthAdjust="spacing" textLength="90.2549" x="6" y="1231.1426">Administrateur</text></g><!--entity ML--><g class="entity" data-qualified-name="ML" data-source-line="16" id="ent0004"><ellipse cx="222.5103" cy="1277.6094" fill="#F1F1F1" rx="8" ry="8" style="stroke:#181818;stroke-width:0.5;"/><path d="M222.5103,1285.6094 L222.5103,1312.6094 M209.5103,1293.6094 L235.5103,1293.6094 M222.5103,1312.6094 L209.5103,1327.6094 M222.5103,1312.6094 L235.5103,1327.6094" fill="none" style="stroke:#181818;stroke-width:0.5;"/><text fill="#000000" font-family="sans-serif" font-size="14" lengthAdjust="spacing" textLength="70.0205" x="187.5" y="1343.6426">Service ML</text><text fill="#000000" font-family="sans-serif" font-size="14" lengthAdjust="spacing" textLength="49.793" x="187.5" y="1361.252">FastAPI</text></g><!--entity Groq--><g class="entity" data-qualified-name="Groq" data-source-line="17" id="ent0005"><ellipse cx="222.4033" cy="1075.6094" fill="#F1F1F1" rx="8" ry="8" style="stroke:#181818;stroke-width:0.5;"/><path d="M222.4033,1083.6094 L222.4033,1110.6094 M209.4033,1091.6094 L235.4033,1091.6094 M222.4033,1110.6094 L209.4033,1125.6094 M222.4033,1110.6094 L235.4033,1125.6094" fill="none" style="stroke:#181818;stroke-width:0.5;"/><text fill="#000000" font-family="sans-serif" font-size="14" lengthAdjust="spacing" textLength="77.8066" x="183.5" y="1141.6426">Service LLM</text><text fill="#000000" font-family="sans-serif" font-size="14" lengthAdjust="spacing" textLength="31.124" x="183.5" y="1159.252">Groq</text></g><!--link Admin to User--><g class="link" data-entity-1="ent0003" data-entity-2="ent0002" data-link-type="extension" data-source-line="19" id="lnk6"><path d="M65.58,1156.3394 C97.36,1064.4794 170.3546,853.45 202.0846,761.74" fill="none" id="Admin-to-User" style="stroke:#334155;stroke-width:1;"/><polygon fill="none" points="207.97,744.7294,196.4144,759.7782,207.7548,763.7018,207.97,744.7294" style="stroke:#334155;stroke-width:1;stroke-linejoin:miter;stroke-miterlimit:10;"/></g><!--link Visitor to UC_Register--><g class="link" data-entity-1="ent0001" data-entity-2="ent0008" data-link-type="dependency" data-source-line="44" id="lnk24"><path d="M246.18,134.2494 C288.55,139.1894 376.0936,149.4004 438.6236,156.6904" fill="none" id="Visitor-to-UC_Register" style="stroke:#334155;stroke-width:1;"/><polygon fill="#334155" points="443.59,157.2694,435.1137,152.2541,438.6236,156.6904,434.1873,160.2003,443.59,157.2694" style="stroke:#334155;stroke-width:1;stroke-linejoin:miter;stroke-miterlimit:10;"/></g><!--link Visitor to UC_Login--><g class="link" data-entity-1="ent0001" data-entity-2="ent0009" data-link-type="dependency" data-source-line="45" id="lnk25"><path d="M246.18,128.8894 C290.38,123.5694 384.2158,112.3063 446.5858,104.8063" fill="none" id="Visitor-to-UC_Login" style="stroke:#334155;stroke-width:1;"/><polygon fill="#334155" points="451.55,104.2094,442.1368,101.3125,446.5858,104.8063,443.0919,109.2553,451.55,104.2094" style="stroke:#334155;stroke-width:1;stroke-linejoin:miter;stroke-miterlimit:10;"/></g><!--link User to UC_Profile--><g class="link" data-entity-1="ent0002" data-entity-2="ent0010" data-link-type="dependency" data-source-line="47" id="lnk26"><path d="M255.96,744.6894 C285.71,778.0694 332.68,824.9294 383,852.6094 C404.78,864.5894 426.2564,871.327 449.0264,876.327" fill="none" id="User-to-UC_Profile" style="stroke:#334155;stroke-width:1;"/><polygon fill="#334155" points="453.91,877.3994,445.9773,871.5622,449.0264,876.327,444.2615,879.376,453.91,877.3994" style="stroke:#334155;stroke-width:1;stroke-linejoin:miter;stroke-miterlimit:10;"/></g><!--link User to UC_Dashboard--><g class="link" data-entity-1="ent0002" data-entity-2="ent0011" data-link-type="dependency" data-source-line="48" id="lnk27"><path d="M241.52,744.9594 C266.14,793.9794 315.12,876.4294 383,918.6094 C399.92,929.1194 414.984,935.9283 433.694,942.5183" fill="none" id="User-to-UC_Dashboard" style="stroke:#334155;stroke-width:1;"/><polygon fill="#334155" points="438.41,944.1794,431.25,937.4166,433.694,942.5183,428.5923,944.9623,438.41,944.1794" style="stroke:#334155;stroke-width:1;stroke-linejoin:miter;stroke-miterlimit:10;"/></g><!--link User to UC_Transactions--><g class="link" data-entity-1="ent0002" data-entity-2="ent0012" data-link-type="dependency" data-source-line="49" id="lnk28"><path d="M288.04,687.7694 C298.06,685.0194 308.31,682.2294 318,679.6094 C362.62,667.5594 408.4052,655.4141 445.9552,645.5141" fill="none" id="User-to-UC_Transactions" style="stroke:#334155;stroke-width:1;"/><polygon fill="#334155" points="450.79,644.2394,441.0676,642.666,445.9552,645.5141,443.1071,650.4016,450.79,644.2394" style="stroke:#334155;stroke-width:1;stroke-linejoin:miter;stroke-miterlimit:10;"/></g><!--link User to UC_Import--><g class="link" data-entity-1="ent0002" data-entity-2="ent0013" data-link-type="dependency" data-source-line="50" id="lnk29"><path d="M269.75,666.5594 C300.27,642.4194 342.05,612.3894 383,592.6094 C403.91,582.5094 423.3893,575.9596 444.8793,570.2196" fill="none" id="User-to-UC_Import" style="stroke:#334155;stroke-width:1;"/><polygon fill="#334155" points="449.71,568.9294,439.9826,567.3873,444.8793,570.2196,442.047,575.1164,449.71,568.9294" style="stroke:#334155;stroke-width:1;stroke-linejoin:miter;stroke-miterlimit:10;"/></g><!--link User to UC_Cards--><g class="link" data-entity-1="ent0002" data-entity-2="ent0015" data-link-type="dependency" data-source-line="51" id="lnk30"><path d="M288.07,705.6094 C324.53,705.6094 365.78,705.6094 406.33,705.6094" fill="none" id="User-to-UC_Cards" style="stroke:#334155;stroke-width:1;"/><polygon fill="#334155" points="411.33,705.6094,402.33,701.6094,406.33,705.6094,402.33,709.6094,411.33,705.6094" style="stroke:#334155;stroke-width:1;stroke-linejoin:miter;stroke-miterlimit:10;"/></g><!--link User to UC_Sync--><g class="link" data-entity-1="ent0002" data-entity-2="ent0016" data-link-type="dependency" data-source-line="52" id="lnk31"><path d="M288.07,728.8794 C337.5,746.6994 400.2162,769.3041 447.0262,786.1741" fill="none" id="User-to-UC_Sync" style="stroke:#334155;stroke-width:1;"/><polygon fill="#334155" points="451.73,787.8694,444.6193,781.0549,447.0262,786.1741,441.9069,788.581,451.73,787.8694" style="stroke:#334155;stroke-width:1;stroke-linejoin:miter;stroke-miterlimit:10;"/></g><!--link User to UC_Budgets--><g class="link" data-entity-1="ent0002" data-entity-2="ent0017" data-link-type="dependency" data-source-line="53" id="lnk32"><path d="M230.17,744.8394 C240.9,798.4894 266.28,895.6094 318,961.6094 C339.52,989.0694 351.99,989.6294 383,1005.6094 C402.42,1015.6194 419.8389,1022.8567 439.9389,1030.1367" fill="none" id="User-to-UC_Budgets" style="stroke:#334155;stroke-width:1;"/><polygon fill="#334155" points="444.64,1031.8394,437.5401,1025.0136,439.9389,1030.1367,434.8158,1032.5354,444.64,1031.8394" style="stroke:#334155;stroke-width:1;stroke-linejoin:miter;stroke-miterlimit:10;"/></g><!--link User to UC_Goals--><g class="link" data-entity-1="ent0002" data-entity-2="ent0018" data-link-type="dependency" data-source-line="54" id="lnk33"><path d="M225.56,666.3394 C232.29,581.5294 260.99,381.2294 383,285.6094 C400.24,272.0994 417.2754,264.1754 437.7354,257.6654" fill="none" id="User-to-UC_Goals" style="stroke:#334155;stroke-width:1;"/><polygon fill="#334155" points="442.5,256.1494,432.7109,255.0665,437.7354,257.6654,435.1365,262.6899,442.5,256.1494" style="stroke:#334155;stroke-width:1;stroke-linejoin:miter;stroke-miterlimit:10;"/></g><!--link User to UC_Reco--><g class="link" data-entity-1="ent0002" data-entity-2="ent0019" data-link-type="dependency" data-source-line="55" id="lnk34"><path d="M229.77,666.5194 C243.47,595.1594 283.22,444.5994 383,373.6094 C399.78,361.6694 415.4123,354.2968 434.7023,347.6568" fill="none" id="User-to-UC_Reco" style="stroke:#334155;stroke-width:1;"/><polygon fill="#334155" points="439.43,346.0294,429.6181,345.1765,434.7023,347.6568,432.222,352.7409,439.43,346.0294" style="stroke:#334155;stroke-width:1;stroke-linejoin:miter;stroke-miterlimit:10;"/></g><!--link User to UC_Sim--><g class="link" data-entity-1="ent0002" data-entity-2="ent0020" data-link-type="dependency" data-source-line="56" id="lnk35"><path d="M235.64,666.5094 C255.95,608.2494 302.68,499.9094 383,447.6094 C400.26,436.3694 416.2503,429.8058 435.8203,424.2458" fill="none" id="User-to-UC_Sim" style="stroke:#334155;stroke-width:1;"/><polygon fill="#334155" points="440.63,422.8794,430.8795,421.4913,435.8203,424.2458,433.0658,429.1867,440.63,422.8794" style="stroke:#334155;stroke-width:1;stroke-linejoin:miter;stroke-miterlimit:10;"/></g><!--link User to UC_Chat--><g class="link" data-entity-1="ent0002" data-entity-2="ent0021" data-link-type="dependency" data-source-line="57" id="lnk36"><path d="M226.74,744.6994 C235.67,825.1994 268.25,1009.2094 383,1096.6094 C401.11,1110.3994 419.0641,1118.8159 440.0341,1125.9159" fill="none" id="User-to-UC_Chat" style="stroke:#334155;stroke-width:1;"/><polygon fill="#334155" points="444.77,1127.5194,437.5281,1120.8444,440.0341,1125.9159,434.9626,1128.4218,444.77,1127.5194" style="stroke:#334155;stroke-width:1;stroke-linejoin:miter;stroke-miterlimit:10;"/></g><!--link User to UC_Notifs--><g class="link" data-entity-1="ent0002" data-entity-2="ent0022" data-link-type="dependency" data-source-line="58" id="lnk37"><path d="M246.72,666.2594 C273.93,623.6894 323.01,557.0394 383,520.6094 C400.85,509.7694 417.3082,503.3722 437.1382,497.9322" fill="none" id="User-to-UC_Notifs" style="stroke:#334155;stroke-width:1;"/><polygon fill="#334155" points="441.96,496.6094,432.2224,495.1329,437.1382,497.9322,434.3389,502.8479,441.96,496.6094" style="stroke:#334155;stroke-width:1;stroke-linejoin:miter;stroke-miterlimit:10;"/></g><!--link Admin to UC_AdminUsers--><g class="link" data-entity-1="ent0003" data-entity-2="ent0023" data-link-type="dependency" data-source-line="60" id="lnk38"><path d="M96.41,1198.6394 C170.01,1203.6594 313.7316,1213.4588 410.4016,1220.0588" fill="none" id="Admin-to-UC_AdminUsers" style="stroke:#334155;stroke-width:1;"/><polygon fill="#334155" points="415.39,1220.3994,406.6834,1215.7956,410.4016,1220.0588,406.1384,1223.7771,415.39,1220.3994" style="stroke:#334155;stroke-width:1;stroke-linejoin:miter;stroke-miterlimit:10;"/></g><!--link UC_Import to UC_Categorize--><g class="link" data-entity-1="ent0013" data-entity-2="ent0014" data-link-type="dependency" data-source-line="62" id="lnk39"><path d="M434.24,563.0994 C414.97,568.3494 395.97,577.3494 383,592.6094 C283.91,709.1694 335.03,781.8894 344,934.6094 C352.68,1082.4794 288.87,1151.2294 383,1265.6094 C393.53,1278.4094 403.5118,1285.3683 419.0718,1291.3383" fill="none" id="UC_Import-to-UC_Categorize" style="stroke:#334155;stroke-width:1;stroke-dasharray:7,7;"/><polygon fill="#334155" points="423.74,1293.1294,416.7701,1286.1709,419.0718,1291.3383,413.9044,1293.64,423.74,1293.1294" style="stroke:#334155;stroke-width:1;stroke-linejoin:miter;stroke-miterlimit:10;"/><text fill="#000000" font-family="sans-serif" font-size="13" lengthAdjust="spacing" textLength="55.6563" x="319" y="931.1045">&#171;include&#187;</text></g><!--link UC_Transactions to UC_Categorize--><g class="link" data-entity-1="ent0012" data-entity-2="ent0014" data-link-type="dependency" data-source-line="63" id="lnk40"><path d="M430.84,637.9494 C412.82,643.4594 395.3,652.3494 383,666.6094 C302.67,759.7594 352.69,817.9094 344,940.6094 C333.72,1085.7294 290.04,1153.6994 383,1265.6094 C393.59,1278.3594 403.5914,1285.2993 419.1614,1291.2693" fill="none" id="UC_Transactions-to-UC_Categorize" style="stroke:#334155;stroke-width:1;stroke-dasharray:7,7;"/><polygon fill="#334155" points="423.83,1293.0594,416.8586,1286.1024,419.1614,1291.2693,413.9945,1293.5721,423.83,1293.0594" style="stroke:#334155;stroke-width:1;stroke-linejoin:miter;stroke-miterlimit:10;"/><text fill="#000000" font-family="sans-serif" font-size="13" lengthAdjust="spacing" textLength="55.6563" x="319" y="955.1045">&#171;include&#187;</text></g><!--link UC_Cards to UC_Sync--><g class="link" data-entity-1="ent0015" data-entity-2="ent0016" data-link-type="dependency" data-source-line="64" id="lnk41"><path d="M507.5,727.4194 C507.5,742.7894 507.5,758.4894 507.5,775.0094" fill="none" id="UC_Cards-to-UC_Sync" style="stroke:#334155;stroke-width:1;stroke-dasharray:7,7;"/><polygon fill="#334155" points="507.5,780.0094,511.5,771.0094,507.5,775.0094,503.5,771.0094,507.5,780.0094" style="stroke:#334155;stroke-width:1;stroke-linejoin:miter;stroke-miterlimit:10;"/><text fill="#000000" font-family="sans-serif" font-size="13" lengthAdjust="spacing" textLength="55.6563" x="468" y="759.1045">&#171;include&#187;</text></g><!--link ML to UC_Categorize--><g class="link" data-entity-1="ent0004" data-entity-2="ent0014" data-link-type="dependency" data-source-line="66" id="lnk42"><path d="M257.64,1315.2794 C294.83,1313.8394 351.0338,1311.6539 403.4338,1309.6139" fill="none" id="ML-to-UC_Categorize" style="stroke:#334155;stroke-width:1;"/><polygon fill="#334155" points="408.43,1309.4194,399.2812,1305.7725,403.4338,1309.6139,399.5924,1313.7665,408.43,1309.4194" style="stroke:#334155;stroke-width:1;stroke-linejoin:miter;stroke-miterlimit:10;"/></g><!--link Groq to UC_Chat--><g class="link" data-entity-1="ent0005" data-entity-2="ent0021" data-link-type="dependency" data-source-line="67" id="lnk43"><path d="M261.67,1118.3894 C305.95,1122.7694 374.9442,1129.5978 430.0042,1135.0378" fill="none" id="Groq-to-UC_Chat" style="stroke:#334155;stroke-width:1;"/><polygon fill="#334155" points="434.98,1135.5294,426.4169,1130.6639,430.0042,1135.0378,425.6303,1138.6251,434.98,1135.5294" style="stroke:#334155;stroke-width:1;stroke-linejoin:miter;stroke-miterlimit:10;"/></g><?plantuml-src ZLHDRnCn4BtlhnY50wU2KAc4K1KfJKbLAK4LeJr5Gevtid6xQuUnjwLy_7V6tlN63W5nsttpvdkUdN8rmiGvTIz8mTGqEs4jdC2b4XM9fa4e4QImKBvidQgL5KuP3LLjrg8kYXet3fm1KjNMGQa8fRSNza7fdU00OBUYD4zALx0HjSN4iXFoGLIuTCzSWdSKkgfJWf3EK6UsJic7nDHQvA8GVXG05nod8jFgScfgG_1YzcuscKsznL29rAEdfs_Vd9qnEY4oJpdugoX2CXZTAQiSjZG2xZdy68gsstu0R0RHkYrgfpOA0_NMui2Rb8tIoZeIGwG0HViIwL59XCLyfMV2kidDTI0jveUC-NonqbTalWQx_oYA40fEJdwEkwJ5C3hsUxOEcpyNEWg3YaCRJGcHeDKWsUpw1gPVFc75LNF8XBhaxHkjEGLIvCrDnSqaf2iaZiS5xCXiL1rvD-4FYoorqRQjNKSlXTskZQ1ofT4nO874RcV8sHZYCZAEfRF08zPMX9CRN3udMEfrtVZ8x3XTtht-y4tYK6TdoQhapLM6bFr7diZvdZUuBquAJcTXBRGKB8p4aSgiikMpbbioEgPRwJHV5oSwUswMxn8tV6p4CkLKRLcXis6QSXYqgD4N4YDSTAJZDPlrlLVmXcDmMAvS8GsULuOL_BTbiWSVecaQeKlH5NuzsL-MDAbZfwG-frLDMmUf39cMgibwL5QsePL7bEopuda9jpOEXYA7uRBXU6lQUBLAaItnemTjDj11lRrVkrVzu1OuNdtMFntzCy6Q76SoEi0xsHJUBK9H8IcsF_aKpQuwDVJ7cqBTWQL8k9eKY4UGOjrwKoIiBOl3Uyao-McdG9ndVAJ61zCgXehXrJXN4Ro7ytEbPTsME1uN1pt_1psqtVDymmUCOZ7V3sYGhdzJqsv-0m00?></g></svg>