<svg xmlns="http://www.w3.org/2000/svg" xmlns:xlink="http://www.w3.org/1999/xlink" contentStyleType="text/css" data-diagram-type="CLASS" height="928px" preserveAspectRatio="none" style="width:1429px;height:928px;background:#FFFFFF;" version="1.1" viewBox="0 0 1429 928" width="1429px" zoomAndPan="magnify"><?plantuml 1.2026.4?><defs/><g><g class="title" data-source-line="1"><text fill="#000000" font-family="sans-serif" font-size="14" font-weight="700" lengthAdjust="spacing" textLength="320.5781" x="550.8589" y="24.5332">Attijari Compass - Diagramme de classes metier</text></g><!--class User--><g class="entity" data-qualified-name="User" data-source-line="8" id="ent0001"><rect fill="#F1F1F1" height="128.0469" rx="2.5" ry="2.5" style="stroke:#181818;stroke-width:0.5;" width="178.1406" x="460.5" y="63.1094"/><ellipse cx="530.541" cy="79.1094" fill="#ADD1B2" rx="11" ry="11" style="stroke:#181818;stroke-width:1;"/><path d="M533.3066,74.9844 Q533.4629,74.7656 533.6504,74.6563 Q533.8379,74.5469 534.0566,74.5469 Q534.4316,74.5469 534.666,74.8125 Q534.9004,75.0625 534.9004,75.6719 L534.9004,77.125 Q534.9004,77.7344 534.666,78 Q534.4316,78.2656 534.0566,78.2656 Q533.7129,78.2656 533.5098,78.0625 Q533.3066,77.875 533.1973,77.3594 Q533.1504,77 532.9629,76.8125 Q532.6348,76.4375 532.0254,76.2188 Q531.416,76 530.791,76 Q530.0254,76 529.3848,76.3281 Q528.7598,76.6563 528.2598,77.4063 Q527.7754,78.1563 527.7754,79.1875 L527.7754,80.2813 Q527.7754,81.5156 528.666,82.3438 Q529.5566,83.1563 531.1504,83.1563 Q532.0879,83.1563 532.7441,82.9063 Q533.1348,82.75 533.5566,82.3125 Q533.8223,82.0469 533.9629,81.9688 Q534.1191,81.8906 534.3223,81.8906 Q534.6504,81.8906 534.9004,82.1563 Q535.166,82.4063 535.166,82.75 Q535.166,83.0938 534.8223,83.5 Q534.3223,84.0781 533.5254,84.4063 Q532.4473,84.8594 531.1504,84.8594 Q529.6348,84.8594 528.4316,84.2344 Q527.4473,83.7344 526.7598,82.6719 Q526.0723,81.5938 526.0723,80.3125 L526.0723,79.1563 Q526.0723,77.8281 526.6816,76.6875 Q527.3066,75.5313 528.4004,74.9219 Q529.4941,74.2969 530.7285,74.2969 Q531.4629,74.2969 532.1035,74.4688 Q532.7598,74.625 533.3066,74.9844 Z " fill="#000000"/><text fill="#000000" font-family="sans-serif" font-size="14" lengthAdjust="spacing" textLength="29.5586" x="551.041" y="84.8379">User</text><line style="stroke:#181818;stroke-width:0.5;" x1="461.5" x2="637.6406" y1="95.1094" y2="95.1094"/><text fill="#000000" font-family="sans-serif" font-size="14" lengthAdjust="spacing" textLength="54.1064" x="466.5" y="113.6426">+Long id</text><text fill="#000000" font-family="sans-serif" font-size="14" lengthAdjust="spacing" textLength="82.0928" x="466.5" y="131.252">+String email</text><text fill="#000000" font-family="sans-serif" font-size="14" lengthAdjust="spacing" textLength="108.5547" x="466.5" y="148.8613">+String password</text><text fill="#000000" font-family="sans-serif" font-size="14" lengthAdjust="spacing" textLength="64.2031" x="466.5" y="166.4707">+Role role</text><text fill="#000000" font-family="sans-serif" font-size="14" lengthAdjust="spacing" textLength="166.1406" x="466.5" y="184.0801">+LocalDateTime createdAt</text></g><!--class RefreshToken--><g class="entity" data-qualified-name="RefreshToken" data-source-line="16" id="ent0002"><rect fill="#F1F1F1" height="92.8281" rx="2.5" ry="2.5" style="stroke:#181818;stroke-width:0.5;" width="185.1338" x="7" y="321.1094"/><ellipse cx="51.3516" cy="337.1094" fill="#ADD1B2" rx="11" ry="11" style="stroke:#181818;stroke-width:1;"/><path d="M54.1172,332.9844 Q54.2734,332.7656 54.4609,332.6563 Q54.6484,332.5469 54.8672,332.5469 Q55.2422,332.5469 55.4766,332.8125 Q55.7109,333.0625 55.7109,333.6719 L55.7109,335.125 Q55.7109,335.7344 55.4766,336 Q55.2422,336.2656 54.8672,336.2656 Q54.5234,336.2656 54.3203,336.0625 Q54.1172,335.875 54.0078,335.3594 Q53.9609,335 53.7734,334.8125 Q53.4453,334.4375 52.8359,334.2188 Q52.2266,334 51.6016,334 Q50.8359,334 50.1953,334.3281 Q49.5703,334.6563 49.0703,335.4063 Q48.5859,336.1563 48.5859,337.1875 L48.5859,338.2813 Q48.5859,339.5156 49.4766,340.3438 Q50.3672,341.1563 51.9609,341.1563 Q52.8984,341.1563 53.5547,340.9063 Q53.9453,340.75 54.3672,340.3125 Q54.6328,340.0469 54.7734,339.9688 Q54.9297,339.8906 55.1328,339.8906 Q55.4609,339.8906 55.7109,340.1563 Q55.9766,340.4063 55.9766,340.75 Q55.9766,341.0938 55.6328,341.5 Q55.1328,342.0781 54.3359,342.4063 Q53.2578,342.8594 51.9609,342.8594 Q50.4453,342.8594 49.2422,342.2344 Q48.2578,341.7344 47.5703,340.6719 Q46.8828,339.5938 46.8828,338.3125 L46.8828,337.1563 Q46.8828,335.8281 47.4922,334.6875 Q48.1172,333.5313 49.2109,332.9219 Q50.3047,332.2969 51.5391,332.2969 Q52.2734,332.2969 52.9141,332.4688 Q53.5703,332.625 54.1172,332.9844 Z " fill="#000000"/><text fill="#000000" font-family="sans-serif" font-size="14" lengthAdjust="spacing" textLength="87.9307" x="71.8516" y="342.8379">RefreshToken</text><line style="stroke:#181818;stroke-width:0.5;" x1="8" x2="191.1338" y1="353.1094" y2="353.1094"/><text fill="#000000" font-family="sans-serif" font-size="14" lengthAdjust="spacing" textLength="54.1064" x="13" y="371.6426">+Long id</text><text fill="#000000" font-family="sans-serif" font-size="14" lengthAdjust="spacing" textLength="82.8857" x="13" y="389.252">+String token</text><text fill="#000000" font-family="sans-serif" font-size="14" lengthAdjust="spacing" textLength="173.1338" x="13" y="406.8613">+LocalDateTime expiryDate</text></g><!--class Transaction--><g class="entity" data-qualified-name="Transaction" data-source-line="22" id="ent0003"><rect fill="#F1F1F1" height="216.0938" rx="2.5" ry="2.5" style="stroke:#181818;stroke-width:0.5;" width="226.4229" x="425.5" y="526.6094"/><ellipse cx="497.8892" cy="542.6094" fill="#ADD1B2" rx="11" ry="11" style="stroke:#181818;stroke-width:1;"/><path d="M500.6548,538.4844 Q500.811,538.2656 500.9985,538.1563 Q501.186,538.0469 501.4048,538.0469 Q501.7798,538.0469 502.0142,538.3125 Q502.2485,538.5625 502.2485,539.1719 L502.2485,540.625 Q502.2485,541.2344 502.0142,541.5 Q501.7798,541.7656 501.4048,541.7656 Q501.061,541.7656 500.8579,541.5625 Q500.6548,541.375 500.5454,540.8594 Q500.4985,540.5 500.311,540.3125 Q499.9829,539.9375 499.3735,539.7188 Q498.7642,539.5 498.1392,539.5 Q497.3735,539.5 496.7329,539.8281 Q496.1079,540.1563 495.6079,540.9063 Q495.1235,541.6563 495.1235,542.6875 L495.1235,543.7813 Q495.1235,545.0156 496.0142,545.8438 Q496.9048,546.6563 498.4985,546.6563 Q499.436,546.6563 500.0923,546.4063 Q500.4829,546.25 500.9048,545.8125 Q501.1704,545.5469 501.311,545.4688 Q501.4673,545.3906 501.6704,545.3906 Q501.9985,545.3906 502.2485,545.6563 Q502.5142,545.9063 502.5142,546.25 Q502.5142,546.5938 502.1704,547 Q501.6704,547.5781 500.8735,547.9063 Q499.7954,548.3594 498.4985,548.3594 Q496.9829,548.3594 495.7798,547.7344 Q494.7954,547.2344 494.1079,546.1719 Q493.4204,545.0938 493.4204,543.8125 L493.4204,542.6563 Q493.4204,541.3281 494.0298,540.1875 Q494.6548,539.0313 495.7485,538.4219 Q496.8423,537.7969 498.0767,537.7969 Q498.811,537.7969 499.4517,537.9688 Q500.1079,538.125 500.6548,538.4844 Z " fill="#000000"/><text fill="#000000" font-family="sans-serif" font-size="14" lengthAdjust="spacing" textLength="73.1445" x="518.3892" y="548.3379">Transaction</text><line style="stroke:#181818;stroke-width:0.5;" x1="426.5" x2="650.9229" y1="558.6094" y2="558.6094"/><text fill="#000000" font-family="sans-serif" font-size="14" lengthAdjust="spacing" textLength="54.1064" x="431.5" y="577.1426">+Long id</text><text fill="#000000" font-family="sans-serif" font-size="14" lengthAdjust="spacing" textLength="116.3408" x="431.5" y="594.752">+String description</text><text fill="#000000" font-family="sans-serif" font-size="14" lengthAdjust="spacing" textLength="103.127" x="431.5" y="612.3613">+Double amount</text><text fill="#000000" font-family="sans-serif" font-size="14" lengthAdjust="spacing" textLength="102.3545" x="431.5" y="629.9707">+LocalDate date</text><text fill="#000000" font-family="sans-serif" font-size="14" lengthAdjust="spacing" textLength="195.7129" x="431.5" y="647.5801">+TransactionCategory category</text><text fill="#000000" font-family="sans-serif" font-size="14" lengthAdjust="spacing" textLength="142.7959" x="431.5" y="665.1895">+TransactionType type</text><text fill="#000000" font-family="sans-serif" font-size="14" lengthAdjust="spacing" textLength="214.4023" x="431.5" y="682.7988">+PaymentMethod paymentMethod</text><text fill="#000000" font-family="sans-serif" font-size="14" lengthAdjust="spacing" textLength="171.5889" x="431.5" y="700.4082">+TransactionSource source</text><text fill="#000000" font-family="sans-serif" font-size="14" lengthAdjust="spacing" textLength="144.3408" x="431.5" y="718.0176">+String merchantName</text><text fill="#000000" font-family="sans-serif" font-size="14" lengthAdjust="spacing" textLength="214.4229" x="431.5" y="735.627">+Double categorizationConfidence</text></g><!--class TransactionCashBreakdown--><g class="entity" data-qualified-name="TransactionCashBreakdown" data-source-line="35" id="ent0004"><rect fill="#F1F1F1" height="110.4375" rx="2.5" ry="2.5" style="stroke:#181818;stroke-width:0.5;" width="207.8682" x="297.5" y="802.6094"/><ellipse cx="312.5" cy="818.6094" fill="#ADD1B2" rx="11" ry="11" style="stroke:#181818;stroke-width:1;"/><path d="M315.2656,814.4844 Q315.4219,814.2656 315.6094,814.1563 Q315.7969,814.0469 316.0156,814.0469 Q316.3906,814.0469 316.625,814.3125 Q316.8594,814.5625 316.8594,815.1719 L316.8594,816.625 Q316.8594,817.2344 316.625,817.5 Q316.3906,817.7656 316.0156,817.7656 Q315.6719,817.7656 315.4688,817.5625 Q315.2656,817.375 315.1563,816.8594 Q315.1094,816.5 314.9219,816.3125 Q314.5938,815.9375 313.9844,815.7188 Q313.375,815.5 312.75,815.5 Q311.9844,815.5 311.3438,815.8281 Q310.7188,816.1563 310.2188,816.9063 Q309.7344,817.6563 309.7344,818.6875 L309.7344,819.7813 Q309.7344,821.0156 310.625,821.8438 Q311.5156,822.6563 313.1094,822.6563 Q314.0469,822.6563 314.7031,822.4063 Q315.0938,822.25 315.5156,821.8125 Q315.7813,821.5469 315.9219,821.4688 Q316.0781,821.3906 316.2813,821.3906 Q316.6094,821.3906 316.8594,821.6563 Q317.125,821.9063 317.125,822.25 Q317.125,822.5938 316.7813,823 Q316.2813,823.5781 315.4844,823.9063 Q314.4063,824.3594 313.1094,824.3594 Q311.5938,824.3594 310.3906,823.7344 Q309.4063,823.2344 308.7188,822.1719 Q308.0313,821.0938 308.0313,819.8125 L308.0313,818.6563 Q308.0313,817.3281 308.6406,816.1875 Q309.2656,815.0313 310.3594,814.4219 Q311.4531,813.7969 312.6875,813.7969 Q313.4219,813.7969 314.0625,813.9688 Q314.7188,814.125 315.2656,814.4844 Z " fill="#000000"/><text fill="#000000" font-family="sans-serif" font-size="14" lengthAdjust="spacing" textLength="175.8682" x="326.5" y="824.3379">TransactionCashBreakdown</text><line style="stroke:#181818;stroke-width:0.5;" x1="298.5" x2="504.3682" y1="834.6094" y2="834.6094"/><text fill="#000000" font-family="sans-serif" font-size="14" lengthAdjust="spacing" textLength="54.1064" x="303.5" y="853.1426">+Long id</text><text fill="#000000" font-family="sans-serif" font-size="14" lengthAdjust="spacing" textLength="195.7129" x="303.5" y="870.752">+TransactionCategory category</text><text fill="#000000" font-family="sans-serif" font-size="14" lengthAdjust="spacing" textLength="103.127" x="303.5" y="888.3613">+Double amount</text><text fill="#000000" font-family="sans-serif" font-size="14" lengthAdjust="spacing" textLength="75.8857" x="303.5" y="905.9707">+String note</text></g><!--class TransactionCategoryFeedback--><g class="entity" data-qualified-name="TransactionCategoryFeedback" data-source-line="42" id="ent0005"><rect fill="#F1F1F1" height="92.8281" rx="2.5" ry="2.5" style="stroke:#181818;stroke-width:0.5;" width="269.1816" x="541" y="811.1094"/><ellipse cx="576.5866" cy="827.1094" fill="#ADD1B2" rx="11" ry="11" style="stroke:#181818;stroke-width:1;"/><path d="M579.3522,822.9844 Q579.5085,822.7656 579.696,822.6563 Q579.8835,822.5469 580.1022,822.5469 Q580.4772,822.5469 580.7116,822.8125 Q580.946,823.0625 580.946,823.6719 L580.946,825.125 Q580.946,825.7344 580.7116,826 Q580.4772,826.2656 580.1022,826.2656 Q579.7585,826.2656 579.5554,826.0625 Q579.3522,825.875 579.2429,825.3594 Q579.196,825 579.0085,824.8125 Q578.6804,824.4375 578.071,824.2188 Q577.4616,824 576.8366,824 Q576.071,824 575.4304,824.3281 Q574.8054,824.6563 574.3054,825.4063 Q573.821,826.1563 573.821,827.1875 L573.821,828.2813 Q573.821,829.5156 574.7116,830.3438 Q575.6022,831.1563 577.196,831.1563 Q578.1335,831.1563 578.7897,830.9063 Q579.1804,830.75 579.6022,830.3125 Q579.8679,830.0469 580.0085,829.9688 Q580.1647,829.8906 580.3679,829.8906 Q580.696,829.8906 580.946,830.1563 Q581.2116,830.4063 581.2116,830.75 Q581.2116,831.0938 580.8679,831.5 Q580.3679,832.0781 579.571,832.4063 Q578.4929,832.8594 577.196,832.8594 Q575.6804,832.8594 574.4772,832.2344 Q573.4929,831.7344 572.8054,830.6719 Q572.1179,829.5938 572.1179,828.3125 L572.1179,827.1563 Q572.1179,825.8281 572.7272,824.6875 Q573.3522,823.5313 574.446,822.9219 Q575.5397,822.2969 576.7741,822.2969 Q577.5085,822.2969 578.1491,822.4688 Q578.8054,822.625 579.3522,822.9844 Z " fill="#000000"/><text fill="#000000" font-family="sans-serif" font-size="14" lengthAdjust="spacing" textLength="191.4336" x="595.1614" y="832.8379">TransactionCategoryFeedback</text><line style="stroke:#181818;stroke-width:0.5;" x1="542" x2="809.1816" y1="843.1094" y2="843.1094"/><text fill="#000000" font-family="sans-serif" font-size="14" lengthAdjust="spacing" textLength="54.1064" x="547" y="861.6426">+Long id</text><text fill="#000000" font-family="sans-serif" font-size="14" lengthAdjust="spacing" textLength="243.9609" x="547" y="879.252">+TransactionCategory originalCategory</text><text fill="#000000" font-family="sans-serif" font-size="14" lengthAdjust="spacing" textLength="257.1816" x="547" y="896.8613">+TransactionCategory correctedCategory</text></g><!--class UserCard--><g class="entity" data-qualified-name="UserCard" data-source-line="48" id="ent0006"><rect fill="#F1F1F1" height="198.4844" rx="2.5" ry="2.5" style="stroke:#181818;stroke-width:0.5;" width="203.0371" x="986" y="268.6094"/><ellipse cx="1053.3169" cy="284.6094" fill="#ADD1B2" rx="11" ry="11" style="stroke:#181818;stroke-width:1;"/><path d="M1056.0825,280.4844 Q1056.2388,280.2656 1056.4263,280.1563 Q1056.6138,280.0469 1056.8325,280.0469 Q1057.2075,280.0469 1057.4419,280.3125 Q1057.6763,280.5625 1057.6763,281.1719 L1057.6763,282.625 Q1057.6763,283.2344 1057.4419,283.5 Q1057.2075,283.7656 1056.8325,283.7656 Q1056.4888,283.7656 1056.2856,283.5625 Q1056.0825,283.375 1055.9731,282.8594 Q1055.9263,282.5 1055.7388,282.3125 Q1055.4106,281.9375 1054.8013,281.7188 Q1054.1919,281.5 1053.5669,281.5 Q1052.8013,281.5 1052.1606,281.8281 Q1051.5356,282.1563 1051.0356,282.9063 Q1050.5513,283.6563 1050.5513,284.6875 L1050.5513,285.7813 Q1050.5513,287.0156 1051.4419,287.8438 Q1052.3325,288.6563 1053.9263,288.6563 Q1054.8638,288.6563 1055.52,288.4063 Q1055.9106,288.25 1056.3325,287.8125 Q1056.5981,287.5469 1056.7388,287.4688 Q1056.895,287.3906 1057.0981,287.3906 Q1057.4263,287.3906 1057.6763,287.6563 Q1057.9419,287.9063 1057.9419,288.25 Q1057.9419,288.5938 1057.5981,289 Q1057.0981,289.5781 1056.3013,289.9063 Q1055.2231,290.3594 1053.9263,290.3594 Q1052.4106,290.3594 1051.2075,289.7344 Q1050.2231,289.2344 1049.5356,288.1719 Q1048.8481,287.0938 1048.8481,285.8125 L1048.8481,284.6563 Q1048.8481,283.3281 1049.4575,282.1875 Q1050.0825,281.0313 1051.1763,280.4219 Q1052.27,279.7969 1053.5044,279.7969 Q1054.2388,279.7969 1054.8794,279.9688 Q1055.5356,280.125 1056.0825,280.4844 Z " fill="#000000"/><text fill="#000000" font-family="sans-serif" font-size="14" lengthAdjust="spacing" textLength="59.9033" x="1073.8169" y="290.3379">UserCard</text><line style="stroke:#181818;stroke-width:0.5;" x1="987" x2="1188.0371" y1="300.6094" y2="300.6094"/><text fill="#000000" font-family="sans-serif" font-size="14" lengthAdjust="spacing" textLength="54.1064" x="992" y="319.1426">+Long id</text><text fill="#000000" font-family="sans-serif" font-size="14" lengthAdjust="spacing" textLength="124.8994" x="992" y="336.752">+String holderName</text><text fill="#000000" font-family="sans-serif" font-size="14" lengthAdjust="spacing" textLength="177.7959" x="992" y="354.3613">+String maskedCardNumber</text><text fill="#000000" font-family="sans-serif" font-size="14" lengthAdjust="spacing" textLength="78.21" x="992" y="371.9707">+String last4</text><text fill="#000000" font-family="sans-serif" font-size="14" lengthAdjust="spacing" textLength="131.8926" x="992" y="389.5801">+CardType cardType</text><text fill="#000000" font-family="sans-serif" font-size="14" lengthAdjust="spacing" textLength="119.4512" x="992" y="407.1895">+CardStatus status</text><text fill="#000000" font-family="sans-serif" font-size="14" lengthAdjust="spacing" textLength="191.0371" x="992" y="424.7988">+CardSourceType sourceType</text><text fill="#000000" font-family="sans-serif" font-size="14" lengthAdjust="spacing" textLength="184.0508" x="992" y="442.4082">+LocalDateTime connectedAt</text><text fill="#000000" font-family="sans-serif" font-size="14" lengthAdjust="spacing" textLength="172.3545" x="992" y="460.0176">+LocalDateTime lastSyncAt</text></g><!--class CardCatalog--><g class="entity" data-qualified-name="CardCatalog" data-source-line="60" id="ent0007"><rect fill="#F1F1F1" height="163.2656" rx="2.5" ry="2.5" style="stroke:#181818;stroke-width:0.5;" width="206.1201" x="1100.5" y="45.6094"/><ellipse cx="1160.0103" cy="61.6094" fill="#ADD1B2" rx="11" ry="11" style="stroke:#181818;stroke-width:1;"/><path d="M1162.7759,57.4844 Q1162.9321,57.2656 1163.1196,57.1563 Q1163.3071,57.0469 1163.5259,57.0469 Q1163.9009,57.0469 1164.1353,57.3125 Q1164.3696,57.5625 1164.3696,58.1719 L1164.3696,59.625 Q1164.3696,60.2344 1164.1353,60.5 Q1163.9009,60.7656 1163.5259,60.7656 Q1163.1821,60.7656 1162.979,60.5625 Q1162.7759,60.375 1162.6665,59.8594 Q1162.6196,59.5 1162.4321,59.3125 Q1162.104,58.9375 1161.4946,58.7188 Q1160.8853,58.5 1160.2603,58.5 Q1159.4946,58.5 1158.854,58.8281 Q1158.229,59.1563 1157.729,59.9063 Q1157.2446,60.6563 1157.2446,61.6875 L1157.2446,62.7813 Q1157.2446,64.0156 1158.1353,64.8438 Q1159.0259,65.6563 1160.6196,65.6563 Q1161.5571,65.6563 1162.2134,65.4063 Q1162.604,65.25 1163.0259,64.8125 Q1163.2915,64.5469 1163.4321,64.4688 Q1163.5884,64.3906 1163.7915,64.3906 Q1164.1196,64.3906 1164.3696,64.6563 Q1164.6353,64.9063 1164.6353,65.25 Q1164.6353,65.5938 1164.2915,66 Q1163.7915,66.5781 1162.9946,66.9063 Q1161.9165,67.3594 1160.6196,67.3594 Q1159.104,67.3594 1157.9009,66.7344 Q1156.9165,66.2344 1156.229,65.1719 Q1155.5415,64.0938 1155.5415,62.8125 L1155.5415,61.6563 Q1155.5415,60.3281 1156.1509,59.1875 Q1156.7759,58.0313 1157.8696,57.4219 Q1158.9634,56.7969 1160.1978,56.7969 Q1160.9321,56.7969 1161.5728,56.9688 Q1162.229,57.125 1162.7759,57.4844 Z " fill="#000000"/><text fill="#000000" font-family="sans-serif" font-size="14" lengthAdjust="spacing" textLength="78.5996" x="1180.5103" y="67.3379">CardCatalog</text><line style="stroke:#181818;stroke-width:0.5;" x1="1101.5" x2="1305.6201" y1="77.6094" y2="77.6094"/><text fill="#000000" font-family="sans-serif" font-size="14" lengthAdjust="spacing" textLength="54.1064" x="1106.5" y="96.1426">+Long id</text><text fill="#000000" font-family="sans-serif" font-size="14" lengthAdjust="spacing" textLength="78.9961" x="1106.5" y="113.752">+String code</text><text fill="#000000" font-family="sans-serif" font-size="14" lengthAdjust="spacing" textLength="83.6582" x="1106.5" y="131.3613">+String name</text><text fill="#000000" font-family="sans-serif" font-size="14" lengthAdjust="spacing" textLength="84.4443" x="1106.5" y="148.9707">+String brand</text><text fill="#000000" font-family="sans-serif" font-size="14" lengthAdjust="spacing" textLength="119.4648" x="1106.5" y="166.5801">+CardScope scope</text><text fill="#000000" font-family="sans-serif" font-size="14" lengthAdjust="spacing" textLength="194.1201" x="1106.5" y="184.1895">+BigDecimal maxPaymentLimit</text><text fill="#000000" font-family="sans-serif" font-size="14" lengthAdjust="spacing" textLength="98.4648" x="1106.5" y="201.7988">+boolean active</text></g><!--class CardPool--><g class="entity" data-qualified-name="CardPool" data-source-line="70" id="ent0008"><rect fill="#F1F1F1" height="128.0469" rx="2.5" ry="2.5" style="stroke:#181818;stroke-width:0.5;" width="189.7959" x="1224.5" y="303.6094"/><ellipse cx="1285.9653" cy="319.6094" fill="#ADD1B2" rx="11" ry="11" style="stroke:#181818;stroke-width:1;"/><path d="M1288.731,315.4844 Q1288.8872,315.2656 1289.0747,315.1563 Q1289.2622,315.0469 1289.481,315.0469 Q1289.856,315.0469 1290.0903,315.3125 Q1290.3247,315.5625 1290.3247,316.1719 L1290.3247,317.625 Q1290.3247,318.2344 1290.0903,318.5 Q1289.856,318.7656 1289.481,318.7656 Q1289.1372,318.7656 1288.9341,318.5625 Q1288.731,318.375 1288.6216,317.8594 Q1288.5747,317.5 1288.3872,317.3125 Q1288.0591,316.9375 1287.4497,316.7188 Q1286.8403,316.5 1286.2153,316.5 Q1285.4497,316.5 1284.8091,316.8281 Q1284.1841,317.1563 1283.6841,317.9063 Q1283.1997,318.6563 1283.1997,319.6875 L1283.1997,320.7813 Q1283.1997,322.0156 1284.0903,322.8438 Q1284.981,323.6563 1286.5747,323.6563 Q1287.5122,323.6563 1288.1685,323.4063 Q1288.5591,323.25 1288.981,322.8125 Q1289.2466,322.5469 1289.3872,322.4688 Q1289.5435,322.3906 1289.7466,322.3906 Q1290.0747,322.3906 1290.3247,322.6563 Q1290.5903,322.9063 1290.5903,323.25 Q1290.5903,323.5938 1290.2466,324 Q1289.7466,324.5781 1288.9497,324.9063 Q1287.8716,325.3594 1286.5747,325.3594 Q1285.0591,325.3594 1283.856,324.7344 Q1282.8716,324.2344 1282.1841,323.1719 Q1281.4966,322.0938 1281.4966,320.8125 L1281.4966,319.6563 Q1281.4966,318.3281 1282.106,317.1875 Q1282.731,316.0313 1283.8247,315.4219 Q1284.9185,314.7969 1286.1528,314.7969 Q1286.8872,314.7969 1287.5278,314.9688 Q1288.1841,315.125 1288.731,315.4844 Z " fill="#000000"/><text fill="#000000" font-family="sans-serif" font-size="14" lengthAdjust="spacing" textLength="58.3652" x="1306.4653" y="325.3379">CardPool</text><line style="stroke:#181818;stroke-width:0.5;" x1="1225.5" x2="1413.2959" y1="335.6094" y2="335.6094"/><text fill="#000000" font-family="sans-serif" font-size="14" lengthAdjust="spacing" textLength="54.1064" x="1230.5" y="354.1426">+Long id</text><text fill="#000000" font-family="sans-serif" font-size="14" lengthAdjust="spacing" textLength="177.7959" x="1230.5" y="371.752">+String maskedCardNumber</text><text fill="#000000" font-family="sans-serif" font-size="14" lengthAdjust="spacing" textLength="78.21" x="1230.5" y="389.3613">+String last4</text><text fill="#000000" font-family="sans-serif" font-size="14" lengthAdjust="spacing" textLength="109.3408" x="1230.5" y="406.9707">+String cardCode</text><text fill="#000000" font-family="sans-serif" font-size="14" lengthAdjust="spacing" textLength="117.9336" x="1230.5" y="424.5801">+boolean assigned</text></g><!--class CardTransaction--><g class="entity" data-qualified-name="CardTransaction" data-source-line="78" id="ent0009"><rect fill="#F1F1F1" height="145.6563" rx="2.5" ry="2.5" style="stroke:#181818;stroke-width:0.5;" width="216.2715" x="979.5" y="561.6094"/><ellipse cx="1031.6411" cy="577.6094" fill="#ADD1B2" rx="11" ry="11" style="stroke:#181818;stroke-width:1;"/><path d="M1034.4067,573.4844 Q1034.563,573.2656 1034.7505,573.1563 Q1034.938,573.0469 1035.1567,573.0469 Q1035.5317,573.0469 1035.7661,573.3125 Q1036.0005,573.5625 1036.0005,574.1719 L1036.0005,575.625 Q1036.0005,576.2344 1035.7661,576.5 Q1035.5317,576.7656 1035.1567,576.7656 Q1034.813,576.7656 1034.6099,576.5625 Q1034.4067,576.375 1034.2974,575.8594 Q1034.2505,575.5 1034.063,575.3125 Q1033.7349,574.9375 1033.1255,574.7188 Q1032.5161,574.5 1031.8911,574.5 Q1031.1255,574.5 1030.4849,574.8281 Q1029.8599,575.1563 1029.3599,575.9063 Q1028.8755,576.6563 1028.8755,577.6875 L1028.8755,578.7813 Q1028.8755,580.0156 1029.7661,580.8438 Q1030.6567,581.6563 1032.2505,581.6563 Q1033.188,581.6563 1033.8442,581.4063 Q1034.2349,581.25 1034.6567,580.8125 Q1034.9224,580.5469 1035.063,580.4688 Q1035.2192,580.3906 1035.4224,580.3906 Q1035.7505,580.3906 1036.0005,580.6563 Q1036.2661,580.9063 1036.2661,581.25 Q1036.2661,581.5938 1035.9224,582 Q1035.4224,582.5781 1034.6255,582.9063 Q1033.5474,583.3594 1032.2505,583.3594 Q1030.7349,583.3594 1029.5317,582.7344 Q1028.5474,582.2344 1027.8599,581.1719 Q1027.1724,580.0938 1027.1724,578.8125 L1027.1724,577.6563 Q1027.1724,576.3281 1027.7817,575.1875 Q1028.4067,574.0313 1029.5005,573.4219 Q1030.5942,572.7969 1031.8286,572.7969 Q1032.563,572.7969 1033.2036,572.9688 Q1033.8599,573.125 1034.4067,573.4844 Z " fill="#000000"/><text fill="#000000" font-family="sans-serif" font-size="14" lengthAdjust="spacing" textLength="103.4893" x="1052.1411" y="583.3379">CardTransaction</text><line style="stroke:#181818;stroke-width:0.5;" x1="980.5" x2="1194.7715" y1="593.6094" y2="593.6094"/><text fill="#000000" font-family="sans-serif" font-size="14" lengthAdjust="spacing" textLength="54.1064" x="985.5" y="612.1426">+Long id</text><text fill="#000000" font-family="sans-serif" font-size="14" lengthAdjust="spacing" textLength="204.2715" x="985.5" y="629.752">+LocalDateTime transactionDate</text><text fill="#000000" font-family="sans-serif" font-size="14" lengthAdjust="spacing" textLength="129.5615" x="985.5" y="647.3613">+BigDecimal amount</text><text fill="#000000" font-family="sans-serif" font-size="14" lengthAdjust="spacing" textLength="144.3408" x="985.5" y="664.9707">+String merchantName</text><text fill="#000000" font-family="sans-serif" font-size="14" lengthAdjust="spacing" textLength="102.334" x="985.5" y="682.5801">+String category</text><text fill="#000000" font-family="sans-serif" font-size="14" lengthAdjust="spacing" textLength="162.251" x="985.5" y="700.1895">+TransactionStatus status</text></g><!--class BudgetTarget--><g class="entity" data-qualified-name="BudgetTarget" data-source-line="87" id="ent0010"><rect fill="#F1F1F1" height="145.6563" rx="2.5" ry="2.5" style="stroke:#181818;stroke-width:0.5;" width="256.7402" x="299" y="294.6094"/><ellipse cx="380.7031" cy="310.6094" fill="#ADD1B2" rx="11" ry="11" style="stroke:#181818;stroke-width:1;"/><path d="M383.4688,306.4844 Q383.625,306.2656 383.8125,306.1563 Q384,306.0469 384.2188,306.0469 Q384.5938,306.0469 384.8281,306.3125 Q385.0625,306.5625 385.0625,307.1719 L385.0625,308.625 Q385.0625,309.2344 384.8281,309.5 Q384.5938,309.7656 384.2188,309.7656 Q383.875,309.7656 383.6719,309.5625 Q383.4688,309.375 383.3594,308.8594 Q383.3125,308.5 383.125,308.3125 Q382.7969,307.9375 382.1875,307.7188 Q381.5781,307.5 380.9531,307.5 Q380.1875,307.5 379.5469,307.8281 Q378.9219,308.1563 378.4219,308.9063 Q377.9375,309.6563 377.9375,310.6875 L377.9375,311.7813 Q377.9375,313.0156 378.8281,313.8438 Q379.7188,314.6563 381.3125,314.6563 Q382.25,314.6563 382.9063,314.4063 Q383.2969,314.25 383.7188,313.8125 Q383.9844,313.5469 384.125,313.4688 Q384.2813,313.3906 384.4844,313.3906 Q384.8125,313.3906 385.0625,313.6563 Q385.3281,313.9063 385.3281,314.25 Q385.3281,314.5938 384.9844,315 Q384.4844,315.5781 383.6875,315.9063 Q382.6094,316.3594 381.3125,316.3594 Q379.7969,316.3594 378.5938,315.7344 Q377.6094,315.2344 376.9219,314.1719 Q376.2344,313.0938 376.2344,311.8125 L376.2344,310.6563 Q376.2344,309.3281 376.8438,308.1875 Q377.4688,307.0313 378.5625,306.4219 Q379.6563,305.7969 380.8906,305.7969 Q381.625,305.7969 382.2656,305.9688 Q382.9219,306.125 383.4688,306.4844 Z " fill="#000000"/><text fill="#000000" font-family="sans-serif" font-size="14" lengthAdjust="spacing" textLength="84.834" x="401.2031" y="316.3379">BudgetTarget</text><line style="stroke:#181818;stroke-width:0.5;" x1="300" x2="554.7402" y1="326.6094" y2="326.6094"/><text fill="#000000" font-family="sans-serif" font-size="14" lengthAdjust="spacing" textLength="54.1064" x="305" y="345.1426">+Long id</text><text fill="#000000" font-family="sans-serif" font-size="14" lengthAdjust="spacing" textLength="195.7129" x="305" y="362.752">+TransactionCategory category</text><text fill="#000000" font-family="sans-serif" font-size="14" lengthAdjust="spacing" textLength="183.2783" x="305" y="380.3613">+BudgetTargetSource source</text><text fill="#000000" font-family="sans-serif" font-size="14" lengthAdjust="spacing" textLength="244.7402" x="305" y="397.9707">+BigDecimal suggestedMonthlyAmount</text><text fill="#000000" font-family="sans-serif" font-size="14" lengthAdjust="spacing" textLength="215.9814" x="305" y="415.5801">+BudgetTargetLevel selectedLevel</text><text fill="#000000" font-family="sans-serif" font-size="14" lengthAdjust="spacing" textLength="173.9404" x="305" y="433.1895">+BudgetTargetStatus status</text></g><!--class FinancialGoal--><g class="entity" data-qualified-name="FinancialGoal" data-source-line="96" id="ent0011"><rect fill="#F1F1F1" height="145.6563" rx="2.5" ry="2.5" style="stroke:#181818;stroke-width:0.5;" width="160.251" x="591.5" y="294.6094"/><ellipse cx="625.6931" cy="310.6094" fill="#ADD1B2" rx="11" ry="11" style="stroke:#181818;stroke-width:1;"/><path d="M628.4587,306.4844 Q628.615,306.2656 628.8025,306.1563 Q628.99,306.0469 629.2087,306.0469 Q629.5837,306.0469 629.8181,306.3125 Q630.0525,306.5625 630.0525,307.1719 L630.0525,308.625 Q630.0525,309.2344 629.8181,309.5 Q629.5837,309.7656 629.2087,309.7656 Q628.865,309.7656 628.6619,309.5625 Q628.4587,309.375 628.3494,308.8594 Q628.3025,308.5 628.115,308.3125 Q627.7869,307.9375 627.1775,307.7188 Q626.5681,307.5 625.9431,307.5 Q625.1775,307.5 624.5369,307.8281 Q623.9119,308.1563 623.4119,308.9063 Q622.9275,309.6563 622.9275,310.6875 L622.9275,311.7813 Q622.9275,313.0156 623.8181,313.8438 Q624.7087,314.6563 626.3025,314.6563 Q627.24,314.6563 627.8962,314.4063 Q628.2869,314.25 628.7087,313.8125 Q628.9744,313.5469 629.115,313.4688 Q629.2712,313.3906 629.4744,313.3906 Q629.8025,313.3906 630.0525,313.6563 Q630.3181,313.9063 630.3181,314.25 Q630.3181,314.5938 629.9744,315 Q629.4744,315.5781 628.6775,315.9063 Q627.5994,316.3594 626.3025,316.3594 Q624.7869,316.3594 623.5837,315.7344 Q622.5994,315.2344 621.9119,314.1719 Q621.2244,313.0938 621.2244,311.8125 L621.2244,310.6563 Q621.2244,309.3281 621.8337,308.1875 Q622.4587,307.0313 623.5525,306.4219 Q624.6462,305.7969 625.8806,305.7969 Q626.615,305.7969 627.2556,305.9688 Q627.9119,306.125 628.4587,306.4844 Z " fill="#000000"/><text fill="#000000" font-family="sans-serif" font-size="14" lengthAdjust="spacing" textLength="85.5996" x="643.9583" y="316.3379">FinancialGoal</text><line style="stroke:#181818;stroke-width:0.5;" x1="592.5" x2="750.751" y1="326.6094" y2="326.6094"/><text fill="#000000" font-family="sans-serif" font-size="14" lengthAdjust="spacing" textLength="54.1064" x="597.5" y="345.1426">+Long id</text><text fill="#000000" font-family="sans-serif" font-size="14" lengthAdjust="spacing" textLength="83.6582" x="597.5" y="362.752">+String name</text><text fill="#000000" font-family="sans-serif" font-size="14" lengthAdjust="spacing" textLength="140.4785" x="597.5" y="380.3613">+Double targetAmount</text><text fill="#000000" font-family="sans-serif" font-size="14" lengthAdjust="spacing" textLength="148.251" x="597.5" y="397.9707">+Double currentAmount</text><text fill="#000000" font-family="sans-serif" font-size="14" lengthAdjust="spacing" textLength="140.4785" x="597.5" y="415.5801">+LocalDate targetDate</text><text fill="#000000" font-family="sans-serif" font-size="14" lengthAdjust="spacing" textLength="118.6787" x="597.5" y="433.1895">+GoalStatus status</text></g><!--class UserNotificationState--><g class="entity" data-qualified-name="UserNotificationState" data-source-line="105" id="ent0012"><rect fill="#F1F1F1" height="110.4375" rx="2.5" ry="2.5" style="stroke:#181818;stroke-width:0.5;" width="163.5029" x="786.5" y="312.6094"/><ellipse cx="801.5" cy="328.6094" fill="#ADD1B2" rx="11" ry="11" style="stroke:#181818;stroke-width:1;"/><path d="M804.2656,324.4844 Q804.4219,324.2656 804.6094,324.1563 Q804.7969,324.0469 805.0156,324.0469 Q805.3906,324.0469 805.625,324.3125 Q805.8594,324.5625 805.8594,325.1719 L805.8594,326.625 Q805.8594,327.2344 805.625,327.5 Q805.3906,327.7656 805.0156,327.7656 Q804.6719,327.7656 804.4688,327.5625 Q804.2656,327.375 804.1563,326.8594 Q804.1094,326.5 803.9219,326.3125 Q803.5938,325.9375 802.9844,325.7188 Q802.375,325.5 801.75,325.5 Q800.9844,325.5 800.3438,325.8281 Q799.7188,326.1563 799.2188,326.9063 Q798.7344,327.6563 798.7344,328.6875 L798.7344,329.7813 Q798.7344,331.0156 799.625,331.8438 Q800.5156,332.6563 802.1094,332.6563 Q803.0469,332.6563 803.7031,332.4063 Q804.0938,332.25 804.5156,331.8125 Q804.7813,331.5469 804.9219,331.4688 Q805.0781,331.3906 805.2813,331.3906 Q805.6094,331.3906 805.8594,331.6563 Q806.125,331.9063 806.125,332.25 Q806.125,332.5938 805.7813,333 Q805.2813,333.5781 804.4844,333.9063 Q803.4063,334.3594 802.1094,334.3594 Q800.5938,334.3594 799.3906,333.7344 Q798.4063,333.2344 797.7188,332.1719 Q797.0313,331.0938 797.0313,329.8125 L797.0313,328.6563 Q797.0313,327.3281 797.6406,326.1875 Q798.2656,325.0313 799.3594,324.4219 Q800.4531,323.7969 801.6875,323.7969 Q802.4219,323.7969 803.0625,323.9688 Q803.7188,324.125 804.2656,324.4844 Z " fill="#000000"/><text fill="#000000" font-family="sans-serif" font-size="14" lengthAdjust="spacing" textLength="131.5029" x="815.5" y="334.3379">UserNotificationState</text><line style="stroke:#181818;stroke-width:0.5;" x1="787.5" x2="949.0029" y1="344.6094" y2="344.6094"/><text fill="#000000" font-family="sans-serif" font-size="14" lengthAdjust="spacing" textLength="54.1064" x="792.5" y="363.1426">+Long id</text><text fill="#000000" font-family="sans-serif" font-size="14" lengthAdjust="spacing" textLength="139.6924" x="792.5" y="380.752">+String notificationKey</text><text fill="#000000" font-family="sans-serif" font-size="14" lengthAdjust="spacing" textLength="89.9131" x="792.5" y="398.3613">+boolean read</text><text fill="#000000" font-family="sans-serif" font-size="14" lengthAdjust="spacing" textLength="107.8232" x="792.5" y="415.9707">+boolean deleted</text></g><!--link User to Transaction--><g class="link" data-entity-1="ent0001" data-entity-2="ent0003" data-link-type="association" data-source-line="112" id="lnk13"><path codeLine="112" d="M573.75,191.1294 C573.75,275.3294 573.75,424.5294 573.75,526.4194" fill="none" id="User-Transaction" style="stroke:#181818;stroke-width:1;"/><text fill="#000000" font-family="sans-serif" font-size="13" lengthAdjust="spacing" textLength="7.23" x="569.0244" y="212.5183">1</text><text fill="#000000" font-family="sans-serif" font-size="13" lengthAdjust="spacing" textLength="19.5127" x="556.5637" y="515.7539">0..*</text></g><!--link User to UserCard--><g class="link" data-entity-1="ent0001" data-entity-2="ent0006" data-link-type="association" data-source-line="113" id="lnk14"><path codeLine="113" d="M622.83,191.2894 C622.83,233.7394 622.83,281.6094 622.83,281.6094 C622.83,281.6094 849.06,281.6094 985.81,281.6094" fill="none" id="User-UserCard" style="stroke:#181818;stroke-width:1;"/><text fill="#000000" font-family="sans-serif" font-size="13" lengthAdjust="spacing" textLength="7.23" x="623.4725" y="212.6958">1</text><text fill="#000000" font-family="sans-serif" font-size="13" lengthAdjust="spacing" textLength="19.5127" x="958.3152" y="271.9025">0..*</text></g><!--link User to BudgetTarget--><g class="link" data-entity-1="ent0001" data-entity-2="ent0010" data-link-type="association" data-source-line="114" id="lnk15"><path codeLine="114" d="M508.25,191.2394 C508.25,222.9694 508.25,261.4094 508.25,294.2994" fill="none" id="User-BudgetTarget" style="stroke:#181818;stroke-width:1;"/><text fill="#000000" font-family="sans-serif" font-size="13" lengthAdjust="spacing" textLength="7.23" x="496.3604" y="212.6404">1</text><text fill="#000000" font-family="sans-serif" font-size="13" lengthAdjust="spacing" textLength="19.5127" x="496.3017" y="283.8248">0..*</text></g><!--link User to FinancialGoal--><g class="link" data-entity-1="ent0001" data-entity-2="ent0011" data-link-type="association" data-source-line="115" id="lnk16"><path codeLine="115" d="M607.17,191.2394 C607.17,222.9694 607.17,261.4094 607.17,294.2994" fill="none" id="User-FinancialGoal" style="stroke:#181818;stroke-width:1;"/><text fill="#000000" font-family="sans-serif" font-size="13" lengthAdjust="spacing" textLength="7.23" x="606.0997" y="212.6404">1</text><text fill="#000000" font-family="sans-serif" font-size="13" lengthAdjust="spacing" textLength="19.5127" x="580.9152" y="283.8248">0..*</text></g><!--link User to UserNotificationState--><g class="link" data-entity-1="ent0001" data-entity-2="ent0012" data-link-type="association" data-source-line="116" id="lnk17"><path codeLine="116" d="M638.78,127.6094 C733.15,127.6094 868.5,127.6094 868.5,127.6094 C868.5,127.6094 868.5,241.6894 868.5,312.5494" fill="none" id="User-UserNotificationState" style="stroke:#181818;stroke-width:1;"/><text fill="#000000" font-family="sans-serif" font-size="13" lengthAdjust="spacing" textLength="7.23" x="646.7571" y="124.4731">1</text><text fill="#000000" font-family="sans-serif" font-size="13" lengthAdjust="spacing" textLength="19.5127" x="848.2913" y="301.565">0..*</text></g><!--link User to RefreshToken--><g class="link" data-entity-1="ent0001" data-entity-2="ent0002" data-link-type="association" data-source-line="117" id="lnk18"><path codeLine="117" d="M460.33,127.6094 C329.14,127.6094 99.5,127.6094 99.5,127.6094 C99.5,127.6094 99.5,251.2594 99.5,321.0494" fill="none" id="User-RefreshToken" style="stroke:#181818;stroke-width:1;"/><text fill="#000000" font-family="sans-serif" font-size="13" lengthAdjust="spacing" textLength="7.23" x="445.37" y="124.4731">1</text><text fill="#000000" font-family="sans-serif" font-size="13" lengthAdjust="spacing" textLength="21.6836" x="76.9343" y="310.2301">0..1</text></g><!--link UserCard to CardTransaction--><g class="link" data-entity-1="ent0006" data-entity-2="ent0009" data-link-type="association" data-source-line="119" id="lnk19"><path codeLine="119" d="M1087.5,466.6494 C1087.5,498.1094 1087.5,532.3194 1087.5,561.5994" fill="none" id="UserCard-CardTransaction" style="stroke:#181818;stroke-width:1;"/><text fill="#000000" font-family="sans-serif" font-size="13" lengthAdjust="spacing" textLength="7.23" x="1080.2288" y="488.669">1</text><text fill="#000000" font-family="sans-serif" font-size="13" lengthAdjust="spacing" textLength="19.5127" x="1067.5327" y="550.7762">0..*</text></g><!--link UserCard to Transaction--><g class="link" data-entity-1="ent0006" data-entity-2="ent0003" data-link-type="association" data-source-line="120" id="lnk20"><path codeLine="120" d="M985.81,453.6094 C848.69,453.6094 621.5,453.6094 621.5,453.6094 C621.5,453.6094 621.5,487.7894 621.5,526.4494" fill="none" id="UserCard-Transaction" style="stroke:#181818;stroke-width:1;"/><text fill="#000000" font-family="sans-serif" font-size="13" lengthAdjust="spacing" textLength="21.6836" x="956.2452" y="457.0713">0..1</text><text fill="#000000" font-family="sans-serif" font-size="13" lengthAdjust="spacing" textLength="19.5127" x="607.6711" y="515.7861">0..*</text></g><!--link CardCatalog to UserCard--><g class="link" data-entity-1="ent0007" data-entity-2="ent0006" data-link-type="association" data-source-line="121" id="lnk21"><path codeLine="121" d="M1144.75,208.8694 C1144.75,228.0694 1144.75,248.7294 1144.75,268.5994" fill="none" id="CardCatalog-UserCard" style="stroke:#181818;stroke-width:1;"/><text fill="#000000" font-family="sans-serif" font-size="13" lengthAdjust="spacing" textLength="7.23" x="1132.2108" y="230.3626">1</text><text fill="#000000" font-family="sans-serif" font-size="13" lengthAdjust="spacing" textLength="19.5127" x="1129.4241" y="257.8965">0..*</text></g><!--link CardCatalog to CardPool--><g class="link" data-entity-1="ent0007" data-entity-2="ent0008" data-link-type="association" data-source-line="122" id="lnk22"><path codeLine="122" d="M1265.5,208.8694 C1265.5,239.7794 1265.5,274.4794 1265.5,303.5394" fill="none" id="CardCatalog-CardPool" style="stroke:#181818;stroke-width:1;"/><text fill="#000000" font-family="sans-serif" font-size="13" lengthAdjust="spacing" textLength="7.23" x="1263.715" y="230.3626">1</text><text fill="#000000" font-family="sans-serif" font-size="13" lengthAdjust="spacing" textLength="19.5127" x="1239.1993" y="292.719">0..*</text></g><!--link Transaction to TransactionCashBreakdown--><g class="link" data-entity-1="ent0003" data-entity-2="ent0004" data-link-type="association" data-source-line="123" id="lnk23"><path codeLine="123" d="M465.5,742.8394 C465.5,763.4794 465.5,784.2694 465.5,802.3794" fill="none" id="Transaction-TransactionCashBreakdown" style="stroke:#181818;stroke-width:1;"/><text fill="#000000" font-family="sans-serif" font-size="13" lengthAdjust="spacing" textLength="7.23" x="453.3537" y="764.1524">1</text><text fill="#000000" font-family="sans-serif" font-size="13" lengthAdjust="spacing" textLength="19.5127" x="453.5241" y="791.7676">0..*</text></g><!--link Transaction to TransactionCategoryFeedback--><g class="link" data-entity-1="ent0003" data-entity-2="ent0005" data-link-type="association" data-source-line="124" id="lnk24"><path codeLine="124" d="M596.25,742.8394 C596.25,766.8094 596.25,790.9794 596.25,810.9194" fill="none" id="Transaction-TransactionCategoryFeedback" style="stroke:#181818;stroke-width:1;"/><text fill="#000000" font-family="sans-serif" font-size="13" lengthAdjust="spacing" textLength="7.23" x="592.8884" y="764.1524">1</text><text fill="#000000" font-family="sans-serif" font-size="13" lengthAdjust="spacing" textLength="19.5127" x="564.2392" y="800.4203">0..*</text></g><?plantuml-src bLLHRjim3FttAOHyRcZH0Rj0cg33iBGeckm0ZCJON6mfaEIsxj2xZr9YHuxjhVkn9P8Y7vz8ofClKSozfrzWIInCTG3dn9LO4kGMgWg5GY5B5g8J5Nf2csLkJ_e0h1Qk06LUIETY1wN3H1FFi6DBszhZTsdqcjvGt2Gc9MdqpG65iRumMK4S2gk3RqAWmYYNPT6B-EdGYj-P49zNXaEH2iirk-ODLa1biW_uNuoD9a-6axFyEHwLK2x1uuOuAscHbshki_SsoXFkBBfYO_QefwBve1nwmzS3sIPip-us5hG3wSbCUbFefAL3C0dIfQct31WgKslV2o9KSCsInEc2HRcnZP2dnOL-4vWDz0Rv8pGLQdyVUMMEajt5iRMfhKJXuY_1Mg6L1MZ_01KcO4_1wGqY9gDtV8jQZlEm05VSCl5xhfaXAV_ARK3F2PasVYhSyV0Tejg2t7ye8kUIauPoCSxg6Pcn5YMNK6VudfRh0goQklR2b0fjIsJBBxXzS6RLGrrjkSlEAdRgluPzqCPhbQT5ArnxyBKJBluwORp2QE-wvKWd6ArZ8dC_L8RGwqRBj4-2RquQIfDFPIYDIdFJ_LItJAVgK4eJ08Pl4DrIlaH95PJCoEkfR5TKKGItDTpCe4MuYsViGtfatHIUZv3RGW_PdU1tuPoZNAFg1_nRW_TPz6VBvQcHapm71NtPQXsoqOhitts7yBPMEVeDMFx-TwkbXmS38O7kwZn7nxLpRxGlocRUfP9wME4piYsMiSpYRX1aF8axxaGj2Sfl1YOlL_SdaeyEpqZQGLLpl-f4VXwknnFjpOHG4t12OpyOJpkIq5AFax0Imn_OfFN48r2bUyNK-6DvnQTkzcKchgx4xERw-jCidMXZwdRQZEbIYiVqFNwdd0yo7XZoAdqyZrd42TZtTj4rYTdHoNZEwRoPI7tQf9qCMTgja_ps7gYF7ka_Cdy0?></g></svg>