<svg xmlns="http://www.w3.org/2000/svg" xmlns:xlink="http://www.w3.org/1999/xlink" contentStyleType="text/css" data-diagram-type="DESCRIPTION" height="1010px" preserveAspectRatio="none" style="width:555px;height:1010px;background:#FFFFFF;" version="1.1" viewBox="0 0 555 1010" width="555px" zoomAndPan="magnify"><?plantuml 1.2026.4?><defs/><g><g class="title" data-source-line="1"><text fill="#000000" font-family="sans-serif" font-size="14" font-weight="700" lengthAdjust="spacing" textLength="306.5234" x="120.7383" y="24.5332">Attijari Compass - Diagramme de composants</text></g><!--cluster Frontend Angular--><g class="cluster" data-qualified-name="Frontend Angular" data-source-line="7" id="ent0001"><rect fill="none" height="323" rx="2.5" ry="2.5" style="stroke:#181818;stroke-width:1;" width="250" x="38" y="45.6094"/><text fill="#000000" font-family="sans-serif" font-size="14" font-weight="700" lengthAdjust="spacing" textLength="117.4346" x="104.2827" y="62.1426">Frontend Angular</text></g><!--cluster Backend Spring Boot--><g class="cluster" data-qualified-name="Backend Spring Boot" data-source-line="13" id="ent0005"><rect fill="none" height="421" rx="2.5" ry="2.5" style="stroke:#181818;stroke-width:1;" width="312" x="7" y="418.6094"/><text fill="#000000" font-family="sans-serif" font-size="14" font-weight="700" lengthAdjust="spacing" textLength="142.3447" x="91.8276" y="435.1426">Backend Spring Boot</text></g><!--cluster IA / ML--><g class="cluster" data-qualified-name="IA . ML" data-source-line="22" id="ent0012"><rect fill="none" height="107" rx="2.5" ry="2.5" style="stroke:#181818;stroke-width:1;" width="388" x="153" y="889.6094"/><text fill="#000000" font-family="sans-serif" font-size="14" font-weight="700" lengthAdjust="spacing" textLength="45.8828" x="324.0586" y="906.1426">IA / ML</text></g><!--entity NgModules--><g class="entity" data-qualified-name="Frontend Angular.NgModules" data-source-line="8" id="ent0002"><rect fill="#F1F1F1" height="72.8281" rx="2.5" ry="2.5" style="stroke:#181818;stroke-width:0.5;" width="216.8818" x="54.5" y="81.6094"/><text fill="#000000" font-family="sans-serif" font-size="14" lengthAdjust="spacing" textLength="131.5234" x="64.5" y="106.1426">Modules fonctionnels</text><text fill="#000000" font-family="sans-serif" font-size="14" lengthAdjust="spacing" textLength="196.8818" x="64.5" y="123.752">Auth, Dashboard, Transactions,</text><text fill="#000000" font-family="sans-serif" font-size="14" lengthAdjust="spacing" textLength="162.627" x="64.5" y="141.3613">Cartes, Budgets, Objectifs</text></g><!--entity NgServices--><g class="entity" data-qualified-name="Frontend Angular.NgServices" data-source-line="9" id="ent0003"><rect fill="#F1F1F1" height="37.6094" rx="2.5" ry="2.5" style="stroke:#181818;stroke-width:0.5;" width="125.8271" x="100" y="215.6094"/><text fill="#000000" font-family="sans-serif" font-size="14" lengthAdjust="spacing" textLength="105.8271" x="110" y="240.1426">Services Angular</text></g><!--entity NgSecurity--><g class="entity" data-qualified-name="Frontend Angular.NgSecurity" data-source-line="10" id="ent0004"><rect fill="#F1F1F1" height="37.6094" rx="2.5" ry="2.5" style="stroke:#181818;stroke-width:0.5;" width="191.9443" x="67" y="314.6094"/><text fill="#000000" font-family="sans-serif" font-size="14" lengthAdjust="spacing" textLength="171.9443" x="77" y="339.1426">Guards et Interceptors JWT</text></g><!--entity Controllers--><g class="entity" data-qualified-name="Backend Spring Boot.Controllers" data-source-line="14" id="ent0006"><rect fill="#F1F1F1" height="37.6094" rx="2.5" ry="2.5" style="stroke:#181818;stroke-width:0.5;" width="128.917" x="98.5" y="454.6094"/><text fill="#000000" font-family="sans-serif" font-size="14" lengthAdjust="spacing" textLength="108.917" x="108.5" y="479.1426">Controllers REST</text></g><!--entity Security--><g class="entity" data-qualified-name="Backend Spring Boot.Security" data-source-line="15" id="ent0007"><rect fill="#F1F1F1" height="37.6094" rx="2.5" ry="2.5" style="stroke:#181818;stroke-width:0.5;" width="103.2275" x="23.5" y="553.6094"/><text fill="#000000" font-family="sans-serif" font-size="14" lengthAdjust="spacing" textLength="83.2275" x="33.5" y="578.1426">Security JWT</text></g><!--entity Services--><g class="entity" data-qualified-name="Backend Spring Boot.Services" data-source-line="16" id="ent0008"><rect fill="#F1F1F1" height="37.6094" rx="2.5" ry="2.5" style="stroke:#181818;stroke-width:0.5;" width="116.4688" x="122" y="669.6094"/><text fill="#000000" font-family="sans-serif" font-size="14" lengthAdjust="spacing" textLength="96.4688" x="132" y="694.1426">Services metier</text></g><!--entity Repos--><g class="entity" data-qualified-name="Backend Spring Boot.Repos" data-source-line="17" id="ent0009"><rect fill="#F1F1F1" height="37.6094" rx="2.5" ry="2.5" style="stroke:#181818;stroke-width:0.5;" width="127.3789" x="23.5" y="785.6094"/><text fill="#000000" font-family="sans-serif" font-size="14" lengthAdjust="spacing" textLength="107.3789" x="33.5" y="810.1426">Repositories JPA</text></g><!--entity MlClient--><g class="entity" data-qualified-name="Backend Spring Boot.MlClient" data-source-line="18" id="ent0010"><rect fill="#F1F1F1" height="37.6094" rx="2.5" ry="2.5" style="stroke:#181818;stroke-width:0.5;" width="79.1309" x="185.5" y="785.6094"/><text fill="#000000" font-family="sans-serif" font-size="14" lengthAdjust="spacing" textLength="59.1309" x="195.5" y="810.1426">Client ML</text></g><!--entity RagComp--><g class="entity" data-qualified-name="Backend Spring Boot.RagComp" data-source-line="19" id="ent0011"><rect fill="#F1F1F1" height="37.6094" rx="2.5" ry="2.5" style="stroke:#181818;stroke-width:0.5;" width="103.2617" x="199.5" y="553.6094"/><text fill="#000000" font-family="sans-serif" font-size="14" lengthAdjust="spacing" textLength="83.2617" x="209.5" y="578.1426">Chatbot RAG</text></g><!--entity FastAPI--><g class="entity" data-qualified-name="IA . ML.FastAPI" data-source-line="23" id="ent0013"><rect fill="#F1F1F1" height="55.2188" rx="2.5" ry="2.5" style="stroke:#181818;stroke-width:0.5;" width="110.2754" x="169" y="925.6094"/><text fill="#000000" font-family="sans-serif" font-size="14" lengthAdjust="spacing" textLength="73.1309" x="179" y="950.1426">FastAPI ML</text><text fill="#000000" font-family="sans-serif" font-size="14" lengthAdjust="spacing" textLength="90.2754" x="179" y="967.752">Categorisation</text></g><!--entity Groq--><g class="entity" data-qualified-name="IA . ML.Groq" data-source-line="24" id="ent0014"><rect fill="#F1F1F1" height="55.2188" rx="2.5" ry="2.5" style="stroke:#181818;stroke-width:0.5;" width="77.5791" x="314" y="925.6094"/><text fill="#000000" font-family="sans-serif" font-size="14" lengthAdjust="spacing" textLength="57.5791" x="324" y="950.1426">Groq API</text><text fill="#000000" font-family="sans-serif" font-size="14" lengthAdjust="spacing" textLength="27.2344" x="324" y="967.752">LLM</text></g><!--entity Ollama--><g class="entity" data-qualified-name="IA . ML.Ollama" data-source-line="25" id="ent0015"><rect fill="#F1F1F1" height="55.2188" rx="2.5" ry="2.5" style="stroke:#181818;stroke-width:0.5;" width="97.0273" x="427.5" y="925.6094"/><text fill="#000000" font-family="sans-serif" font-size="14" lengthAdjust="spacing" textLength="77.0273" x="437.5" y="950.1426">Ollama local</text><text fill="#000000" font-family="sans-serif" font-size="14" lengthAdjust="spacing" textLength="56.8271" x="437.5" y="967.752">optionnel</text></g><!--entity DB--><g class="entity" data-qualified-name="DB" data-source-line="28" id="ent0016"><path d="M38,939.6094 C38,929.6094 86.1309,929.6094 86.1309,929.6094 C86.1309,929.6094 134.2617,929.6094 134.2617,939.6094 L134.2617,966.2188 C134.2617,976.2188 86.1309,976.2188 86.1309,976.2188 C86.1309,976.2188 38,976.2188 38,966.2188 L38,939.6094" fill="#F1F1F1" style="stroke:#181818;stroke-width:0.5;"/><path d="M38,939.6094 C38,949.6094 86.1309,949.6094 86.1309,949.6094 C86.1309,949.6094 134.2617,949.6094 134.2617,939.6094" fill="none" style="stroke:#181818;stroke-width:0.5;"/><text fill="#000000" font-family="sans-serif" font-size="14" lengthAdjust="spacing" textLength="76.2617" x="48" y="968.1426">PostgreSQL</text></g><!--link NgModules to NgServices--><g class="link" data-entity-1="ent0002" data-entity-2="ent0003" data-link-type="dependency" data-source-line="30" id="lnk17"><path d="M163,154.7094 C163,174.7994 163,194.0594 163,210.3294" fill="none" id="NgModules-to-NgServices" style="stroke:#181818;stroke-width:1;"/><polygon fill="#181818" points="163,215.3294,167,206.3294,163,210.3294,159,206.3294,163,215.3294" style="stroke:#181818;stroke-width:1;stroke-linejoin:miter;stroke-miterlimit:10;"/></g><!--link NgServices to NgSecurity--><g class="link" data-entity-1="ent0003" data-entity-2="ent0004" data-link-type="dependency" data-source-line="31" id="lnk18"><path d="M163,253.8494 C163,271.1994 163,292.1294 163,309.4494" fill="none" id="NgServices-to-NgSecurity" style="stroke:#181818;stroke-width:1;"/><polygon fill="#181818" points="163,314.4494,167,305.4494,163,309.4494,159,305.4494,163,314.4494" style="stroke:#181818;stroke-width:1;stroke-linejoin:miter;stroke-miterlimit:10;"/></g><!--link NgSecurity to Controllers--><g class="link" data-entity-1="ent0004" data-entity-2="ent0006" data-link-type="dependency" data-source-line="32" id="lnk19"><path d="M163,352.6494 C163,379.0994 163,423.1094 163,449.5594" fill="none" id="NgSecurity-to-Controllers" style="stroke:#181818;stroke-width:1;"/><polygon fill="#181818" points="163,454.5594,167,445.5594,163,449.5594,159,445.5594,163,454.5594" style="stroke:#181818;stroke-width:1;stroke-linejoin:miter;stroke-miterlimit:10;"/><text fill="#000000" font-family="sans-serif" font-size="13" lengthAdjust="spacing" textLength="113.75" x="164" y="399.1045">HTTP REST + JWT</text></g><!--link Controllers to Security--><g class="link" data-entity-1="ent0006" data-entity-2="ent0007" data-link-type="dependency" data-source-line="34" id="lnk20"><path d="M146.45,492.8494 C130.71,510.1994 110.5492,532.4259 94.8392,549.7459" fill="none" id="Controllers-to-Security" style="stroke:#181818;stroke-width:1;"/><polygon fill="#181818" points="91.48,553.4494,100.4894,549.4705,94.8392,549.7459,94.5638,544.0958,91.48,553.4494" style="stroke:#181818;stroke-width:1;stroke-linejoin:miter;stroke-miterlimit:10;"/></g><!--link Controllers to Services--><g class="link" data-entity-1="ent0006" data-entity-2="ent0008" data-link-type="dependency" data-source-line="35" id="lnk21"><path d="M164.45,492.7694 C167.66,533.0094 174.9532,624.3151 178.1532,664.5151" fill="none" id="Controllers-to-Services" style="stroke:#181818;stroke-width:1;"/><polygon fill="#181818" points="178.55,669.4994,181.8232,660.2104,178.1532,664.5151,173.8485,660.8452,178.55,669.4994" style="stroke:#181818;stroke-width:1;stroke-linejoin:miter;stroke-miterlimit:10;"/></g><!--link Services to Repos--><g class="link" data-entity-1="ent0008" data-entity-2="ent0009" data-link-type="dependency" data-source-line="36" id="lnk22"><path d="M165.26,707.6694 C147.95,728.8894 122.5507,760.0351 105.1407,781.3751" fill="none" id="Services-to-Repos" style="stroke:#181818;stroke-width:1;"/><polygon fill="#181818" points="101.98,785.2494,110.7687,780.8044,105.1407,781.3751,104.57,775.7472,101.98,785.2494" style="stroke:#181818;stroke-width:1;stroke-linejoin:miter;stroke-miterlimit:10;"/></g><!--link Repos to DB--><g class="link" data-entity-1="ent0009" data-entity-2="ent0016" data-link-type="dependency" data-source-line="37" id="lnk23"><path d="M86.88,823.8694 C86.69,850.5594 86.3827,895.2095 86.1927,924.2795" fill="none" id="Repos-to-DB" style="stroke:#181818;stroke-width:1;"/><polygon fill="#181818" points="86.16,929.2794,90.2187,920.3057,86.1927,924.2795,82.2189,920.2534,86.16,929.2794" style="stroke:#181818;stroke-width:1;stroke-linejoin:miter;stroke-miterlimit:10;"/></g><!--link Services to MlClient--><g class="link" data-entity-1="ent0008" data-entity-2="ent0010" data-link-type="dependency" data-source-line="39" id="lnk24"><path d="M187.13,707.6694 C195.51,728.8894 207.4949,759.2583 215.9149,780.5983" fill="none" id="Services-to-MlClient" style="stroke:#181818;stroke-width:1;"/><polygon fill="#181818" points="217.75,785.2494,218.1676,775.4094,215.9149,780.5983,210.7259,778.3456,217.75,785.2494" style="stroke:#181818;stroke-width:1;stroke-linejoin:miter;stroke-miterlimit:10;"/></g><!--link MlClient to FastAPI--><g class="link" data-entity-1="ent0010" data-entity-2="ent0013" data-link-type="dependency" data-source-line="40" id="lnk25"><path d="M224.88,823.8694 C224.7,849.4094 224.414,890.9695 224.214,920.4095" fill="none" id="MlClient-to-FastAPI" style="stroke:#181818;stroke-width:1;"/><polygon fill="#181818" points="224.18,925.4094,228.241,916.4368,224.214,920.4095,220.2412,916.3824,224.18,925.4094" style="stroke:#181818;stroke-width:1;stroke-linejoin:miter;stroke-miterlimit:10;"/><text fill="#000000" font-family="sans-serif" font-size="13" lengthAdjust="spacing" textLength="42.6309" x="225" y="870.1045">/predict</text></g><!--link Controllers to RagComp--><g class="link" data-entity-1="ent0006" data-entity-2="ent0011" data-link-type="dependency" data-source-line="42" id="lnk26"><path d="M179.55,492.8494 C195.29,510.1994 215.4508,532.4259 231.1608,549.7459" fill="none" id="Controllers-to-RagComp" style="stroke:#181818;stroke-width:1;"/><polygon fill="#181818" points="234.52,553.4494,231.4362,544.0958,231.1608,549.7459,225.5106,549.4705,234.52,553.4494" style="stroke:#181818;stroke-width:1;stroke-linejoin:miter;stroke-miterlimit:10;"/></g><!--link RagComp to Services--><g class="link" data-entity-1="ent0011" data-entity-2="ent0008" data-link-type="dependency" data-source-line="43" id="lnk27"><path d="M226.21,591.6394 C216.5,599.8194 206.03,610.2094 199,621.6094 C189.92,636.3194 185.9254,650.6202 183.3954,664.5202" fill="none" id="RagComp-to-Services" style="stroke:#181818;stroke-width:1;"/><polygon fill="#181818" points="182.5,669.4394,188.047,661.3011,183.3954,664.5202,180.1763,659.8686,182.5,669.4394" style="stroke:#181818;stroke-width:1;stroke-linejoin:miter;stroke-miterlimit:10;"/><text fill="#000000" font-family="sans-serif" font-size="13" lengthAdjust="spacing" textLength="101.8926" x="200" y="636.1045">contexte financier</text></g><!--link RagComp to Groq--><g class="link" data-entity-1="ent0011" data-entity-2="ent0014" data-link-type="dependency" data-source-line="44" id="lnk28"><path d="M279.21,591.7994 C289.26,599.7394 299.65,609.9094 306,621.6094 C307.82,624.9694 337.888,842.3561 348.638,920.4261" fill="none" id="RagComp-to-Groq" style="stroke:#181818;stroke-width:1;"/><polygon fill="#181818" points="349.32,925.3794,352.0549,915.9179,348.638,920.4261,344.1297,917.0091,349.32,925.3794" style="stroke:#181818;stroke-width:1;stroke-linejoin:miter;stroke-miterlimit:10;"/><text fill="#000000" font-family="sans-serif" font-size="13" lengthAdjust="spacing" textLength="104.4189" x="326" y="752.1045">prompt + contexte</text></g><!--link RagComp to Ollama--><g class="link" data-entity-1="ent0011" data-entity-2="ent0015" data-link-type="dependency" data-source-line="45" id="lnk29"><path d="M287.31,591.6294 C302.17,599.8094 319.1,610.1994 333,621.6094 C386.3,665.3394 405.69,675.6894 436,737.6094 C466.65,800.2094 473.7024,878.6433 475.3624,920.6133" fill="none" id="RagComp-to-Ollama" style="stroke:#181818;stroke-width:1;"/><polygon fill="#181818" points="475.56,925.6094,479.2012,916.4583,475.3624,920.6133,471.2074,916.7745,475.56,925.6094" style="stroke:#181818;stroke-width:1;stroke-linejoin:miter;stroke-miterlimit:10;"/><text fill="#000000" font-family="sans-serif" font-size="13" lengthAdjust="spacing" textLength="52.7681" x="444" y="752.1045">optionnel</text></g><?plantuml-src RPDDSzf038Rl_XKQheN9dKDd33Gf6MWeCDCB5s4Biycow-xARJET_lTgryRO9XSiIu_rzGfMh0bIPlMAJi7SNahq7YQmK5Wul5m8Se9CtDQZOPya_asP4YK4_eov_QrC0IVKdZgHo1iolEDtIUyeOpI5xY8bPczOq1186Z-C7fqrJ2Q7r1ILHZU2lmdSCiDeRVDAauUJDHahQmnfVp1fnUSnBD2VZnPTFeQzG-Cn4dvyC7DqJ7uCioelYCLuERvATNNo8q0FtuecRR_MZjmlbKcnjfd8Njrz-AcImXw8OIaJk8nAjix3yuzz-rbMESNloR_El3CnmhYxqeMLpgpbkv7diX9djIP9j_sog_DrdCEcwp9jvRRknxDTY1MvXlnei2t95IWPHWdzl4aZ6fs3DhKAp_Kg0cjTlm-OC_BHCcpJfpeD5k7uUYjPfl0GimpMy8YUqyrIGa5Ffa8wyXWKZgcQy40KPt-2U0zcjLf7B7Zwp8lMU47GDaDzCBPihYhITIoqboFZ4Rtqjx6U2qUxx_MWYrcIjFS3ayddxeNSp3RIY74pOwIhyHI-xlURA3Ly2Z8cIJSSy3RDVQ2ftAjRgnL_utlekGUqQbsDwBrkV0eFfQDSPNpVoLN1vjbhGZxCmj_v3nESb46JoQNroAZF54ed3fPXhtWFQWIQGglDVm00?></g></svg>