<svg xmlns="http://www.w3.org/2000/svg" xmlns:xlink="http://www.w3.org/1999/xlink" contentStyleType="text/css" data-diagram-type="DESCRIPTION" height="822px" preserveAspectRatio="none" style="width:914px;height:822px;background:#FFFFFF;" version="1.1" viewBox="0 0 914 822" width="914px" zoomAndPan="magnify"><?plantuml 1.2026.4?><defs/><g><g class="title" data-source-line="1"><text fill="#000000" font-family="sans-serif" font-size="14" font-weight="700" lengthAdjust="spacing" textLength="306.5166" x="300.4889" y="24.5332">Attijari Compass - Diagramme de deploiement</text></g><!--cluster Poste utilisateur--><g class="cluster" data-qualified-name="Poste utilisateur" data-source-line="6" id="ent0001"><polygon fill="none" points="295.4944,54.6094,305.4944,44.6094,479.4944,44.6094,479.4944,132.6094,469.4944,142.6094,295.4944,142.6094,295.4944,54.6094" style="stroke:#181818;stroke-width:1;stroke-linejoin:miter;stroke-miterlimit:10;"/><line style="stroke:#181818;stroke-width:1;" x1="469.4944" x2="479.4944" y1="54.6094" y2="44.6094"/><line style="stroke:#181818;stroke-width:1;" x1="295.4944" x2="469.4944" y1="54.6094" y2="54.6094"/><line style="stroke:#181818;stroke-width:1;" x1="469.4944" x2="469.4944" y1="54.6094" y2="142.6094"/><text fill="#000000" font-family="sans-serif" font-size="14" font-weight="700" lengthAdjust="spacing" textLength="108.917" x="329.0359" y="72.1426">Poste utilisateur</text></g><!--cluster Serveur frontend--><g class="cluster" data-qualified-name="Serveur frontend" data-source-line="10" id="ent0003"><polygon fill="none" points="293.4944,202.6094,303.4944,192.6094,481.4944,192.6094,481.4944,297.6094,471.4944,307.6094,293.4944,307.6094,293.4944,202.6094" style="stroke:#181818;stroke-width:1;stroke-linejoin:miter;stroke-miterlimit:10;"/><line style="stroke:#181818;stroke-width:1;" x1="471.4944" x2="481.4944" y1="202.6094" y2="192.6094"/><line style="stroke:#181818;stroke-width:1;" x1="293.4944" x2="471.4944" y1="202.6094" y2="202.6094"/><line style="stroke:#181818;stroke-width:1;" x1="471.4944" x2="471.4944" y1="202.6094" y2="307.6094"/><text fill="#000000" font-family="sans-serif" font-size="14" font-weight="700" lengthAdjust="spacing" textLength="112.7998" x="327.0945" y="220.1426">Serveur frontend</text></g><!--cluster Serveur backend--><g class="cluster" data-qualified-name="Serveur backend" data-source-line="14" id="ent0005"><polygon fill="none" points="293.4944,383.6094,303.4944,373.6094,481.4944,373.6094,481.4944,478.6094,471.4944,488.6094,293.4944,488.6094,293.4944,383.6094" style="stroke:#181818;stroke-width:1;stroke-linejoin:miter;stroke-miterlimit:10;"/><line style="stroke:#181818;stroke-width:1;" x1="471.4944" x2="481.4944" y1="383.6094" y2="373.6094"/><line style="stroke:#181818;stroke-width:1;" x1="293.4944" x2="471.4944" y1="383.6094" y2="383.6094"/><line style="stroke:#181818;stroke-width:1;" x1="471.4944" x2="471.4944" y1="383.6094" y2="488.6094"/><text fill="#000000" font-family="sans-serif" font-size="14" font-weight="700" lengthAdjust="spacing" textLength="112.834" x="327.0774" y="401.1426">Serveur backend</text></g><!--cluster Serveur ML--><g class="cluster" data-qualified-name="Serveur ML" data-source-line="18" id="ent0007"><polygon fill="none" points="184.4944,560.1094,194.4944,550.1094,422.4944,550.1094,422.4944,787.6094,412.4944,797.6094,184.4944,797.6094,184.4944,560.1094" style="stroke:#181818;stroke-width:1;stroke-linejoin:miter;stroke-miterlimit:10;"/><line style="stroke:#181818;stroke-width:1;" x1="412.4944" x2="422.4944" y1="560.1094" y2="550.1094"/><line style="stroke:#181818;stroke-width:1;" x1="184.4944" x2="412.4944" y1="560.1094" y2="560.1094"/><line style="stroke:#181818;stroke-width:1;" x1="412.4944" x2="412.4944" y1="560.1094" y2="797.6094"/><text fill="#000000" font-family="sans-serif" font-size="14" font-weight="700" lengthAdjust="spacing" textLength="76.248" x="261.3704" y="577.6426">Serveur ML</text></g><!--cluster Base de donnees--><g class="cluster" data-qualified-name="Base de donnees" data-source-line="23" id="ent0010"><polygon fill="none" points="446.4944,548.6094,456.4944,538.6094,637.4944,538.6094,637.4944,649.6094,627.4944,659.6094,446.4944,659.6094,446.4944,548.6094" style="stroke:#181818;stroke-width:1;stroke-linejoin:miter;stroke-miterlimit:10;"/><line style="stroke:#181818;stroke-width:1;" x1="627.4944" x2="637.4944" y1="548.6094" y2="538.6094"/><line style="stroke:#181818;stroke-width:1;" x1="446.4944" x2="627.4944" y1="548.6094" y2="548.6094"/><line style="stroke:#181818;stroke-width:1;" x1="627.4944" x2="627.4944" y1="548.6094" y2="659.6094"/><text fill="#000000" font-family="sans-serif" font-size="14" font-weight="700" lengthAdjust="spacing" textLength="115.1514" x="480.4187" y="566.1426">Base de donnees</text></g><!--cluster Service local optionnel--><g class="cluster" data-qualified-name="Service local optionnel" data-source-line="28" id="ent0013"><polygon fill="none" points="661.4944,560.1094,671.4944,550.1094,889.4944,550.1094,889.4944,638.1094,879.4944,648.1094,661.4944,648.1094,661.4944,560.1094" style="stroke:#181818;stroke-width:1;stroke-linejoin:miter;stroke-miterlimit:10;"/><line style="stroke:#181818;stroke-width:1;" x1="879.4944" x2="889.4944" y1="560.1094" y2="550.1094"/><line style="stroke:#181818;stroke-width:1;" x1="661.4944" x2="879.4944" y1="560.1094" y2="560.1094"/><line style="stroke:#181818;stroke-width:1;" x1="879.4944" x2="879.4944" y1="560.1094" y2="648.1094"/><text fill="#000000" font-family="sans-serif" font-size="14" font-weight="700" lengthAdjust="spacing" textLength="152.4893" x="695.2498" y="577.6426">Service local optionnel</text></g><!--entity Browser--><g class="entity" data-qualified-name="Poste utilisateur.Browser" data-source-line="7" id="ent0002"><rect fill="#F1F1F1" height="40.6094" rx="2.5" ry="2.5" style="stroke:#181818;stroke-width:0.5;" width="127.2754" x="323.9944" y="85.6094"/><polygon fill="#F1F1F1" points="434.2698,90.6094,434.2698,104.6094,446.2698,104.6094,446.2698,96.6094,440.2698,90.6094,434.2698,90.6094" style="stroke:#181818;stroke-width:0.5;stroke-linejoin:miter;stroke-miterlimit:10;"/><line style="stroke:#181818;stroke-width:0.5;" x1="440.2698" x2="440.2698" y1="90.6094" y2="96.6094"/><line style="stroke:#181818;stroke-width:0.5;" x1="446.2698" x2="440.2698" y1="96.6094" y2="96.6094"/><text fill="#000000" font-family="sans-serif" font-size="14" lengthAdjust="spacing" textLength="97.2754" x="333.9944" y="113.1426">Navigateur web</text></g><!--entity Angular--><g class="entity" data-qualified-name="Serveur frontend.Angular" data-source-line="11" id="ent0004"><rect fill="#F1F1F1" height="58.2188" rx="2.5" ry="2.5" style="stroke:#181818;stroke-width:0.5;" width="150.6338" x="311.9944" y="233.6094"/><polygon fill="#F1F1F1" points="445.6282,238.6094,445.6282,252.6094,457.6282,252.6094,457.6282,244.6094,451.6282,238.6094,445.6282,238.6094" style="stroke:#181818;stroke-width:0.5;stroke-linejoin:miter;stroke-miterlimit:10;"/><line style="stroke:#181818;stroke-width:0.5;" x1="451.6282" x2="451.6282" y1="238.6094" y2="244.6094"/><line style="stroke:#181818;stroke-width:0.5;" x1="457.6282" x2="451.6282" y1="244.6094" y2="244.6094"/><text fill="#000000" font-family="sans-serif" font-size="14" lengthAdjust="spacing" textLength="120.6338" x="321.9944" y="261.1426">Application Angular</text><text fill="#000000" font-family="sans-serif" font-size="14" lengthAdjust="spacing" textLength="98.793" x="321.9944" y="278.752">HTML, CSS, JS</text></g><!--entity Spring--><g class="entity" data-qualified-name="Serveur backend.Spring" data-source-line="15" id="ent0006"><rect fill="#F1F1F1" height="58.2188" rx="2.5" ry="2.5" style="stroke:#181818;stroke-width:0.5;" width="147.4756" x="313.9944" y="414.6094"/><polygon fill="#F1F1F1" points="444.47,419.6094,444.47,433.6094,456.47,433.6094,456.47,425.6094,450.47,419.6094,444.47,419.6094" style="stroke:#181818;stroke-width:0.5;stroke-linejoin:miter;stroke-miterlimit:10;"/><line style="stroke:#181818;stroke-width:0.5;" x1="450.47" x2="450.47" y1="419.6094" y2="425.6094"/><line style="stroke:#181818;stroke-width:0.5;" x1="456.47" x2="450.47" y1="425.6094" y2="425.6094"/><text fill="#000000" font-family="sans-serif" font-size="14" lengthAdjust="spacing" textLength="99.6133" x="323.9944" y="442.1426">Spring Boot API</text><text fill="#000000" font-family="sans-serif" font-size="14" lengthAdjust="spacing" textLength="117.4756" x="323.9944" y="459.752">attijari-compass.jar</text></g><!--entity FastAPI--><g class="entity" data-qualified-name="Serveur ML.FastAPI" data-source-line="19" id="ent0008"><rect fill="#F1F1F1" height="40.6094" rx="2.5" ry="2.5" style="stroke:#181818;stroke-width:0.5;" width="103.1309" x="250.9944" y="591.1094"/><polygon fill="#F1F1F1" points="337.1253,596.1094,337.1253,610.1094,349.1253,610.1094,349.1253,602.1094,343.1253,596.1094,337.1253,596.1094" style="stroke:#181818;stroke-width:0.5;stroke-linejoin:miter;stroke-miterlimit:10;"/><line style="stroke:#181818;stroke-width:0.5;" x1="343.1253" x2="343.1253" y1="596.1094" y2="602.1094"/><line style="stroke:#181818;stroke-width:0.5;" x1="349.1253" x2="343.1253" y1="602.1094" y2="602.1094"/><text fill="#000000" font-family="sans-serif" font-size="14" lengthAdjust="spacing" textLength="73.1309" x="260.9944" y="618.6426">FastAPI ML</text></g><!--entity Model--><g class="entity" data-qualified-name="Serveur ML.Model" data-source-line="20" id="ent0009"><rect fill="#F1F1F1" height="58.2188" rx="2.5" ry="2.5" style="stroke:#181818;stroke-width:0.5;" width="205.8818" x="200.4944" y="723.6094"/><polygon fill="#F1F1F1" points="389.3762,728.6094,389.3762,742.6094,401.3762,742.6094,401.3762,734.6094,395.3762,728.6094,389.3762,728.6094" style="stroke:#181818;stroke-width:0.5;stroke-linejoin:miter;stroke-miterlimit:10;"/><line style="stroke:#181818;stroke-width:0.5;" x1="395.3762" x2="395.3762" y1="728.6094" y2="734.6094"/><line style="stroke:#181818;stroke-width:0.5;" x1="401.3762" x2="395.3762" y1="734.6094" y2="734.6094"/><text fill="#000000" font-family="sans-serif" font-size="14" lengthAdjust="spacing" textLength="82.4961" x="210.4944" y="751.1426">Modele joblib</text><text fill="#000000" font-family="sans-serif" font-size="14" lengthAdjust="spacing" textLength="175.8818" x="210.4944" y="768.752">transaction_category_model</text></g><!--entity DB--><g class="entity" data-qualified-name="Base de donnees.DB" data-source-line="24" id="ent0011"><path d="M462.4944,589.6094 C462.4944,579.6094 510.6253,579.6094 510.6253,579.6094 C510.6253,579.6094 558.7561,579.6094 558.7561,589.6094 L558.7561,633.8281 C558.7561,643.8281 510.6253,643.8281 510.6253,643.8281 C510.6253,643.8281 462.4944,643.8281 462.4944,633.8281 L462.4944,589.6094" fill="#F1F1F1" style="stroke:#181818;stroke-width:0.5;"/><path d="M462.4944,589.6094 C462.4944,599.6094 510.6253,599.6094 510.6253,599.6094 C510.6253,599.6094 558.7561,599.6094 558.7561,589.6094" fill="none" style="stroke:#181818;stroke-width:0.5;"/><text fill="#000000" font-family="sans-serif" font-size="14" lengthAdjust="spacing" textLength="76.2617" x="472.4944" y="618.1426">PostgreSQL</text><text fill="#000000" font-family="sans-serif" font-size="14" lengthAdjust="spacing" textLength="71.5928" x="472.4944" y="635.752">compassbd</text></g><!--entity Ollama--><g class="entity" data-qualified-name="Service local optionnel.Ollama" data-source-line="29" id="ent0014"><rect fill="#F1F1F1" height="40.6094" rx="2.5" ry="2.5" style="stroke:#181818;stroke-width:0.5;" width="127.2344" x="677.9944" y="591.1094"/><polygon fill="#F1F1F1" points="788.2288,596.1094,788.2288,610.1094,800.2288,610.1094,800.2288,602.1094,794.2288,596.1094,788.2288,596.1094" style="stroke:#181818;stroke-width:0.5;stroke-linejoin:miter;stroke-miterlimit:10;"/><line style="stroke:#181818;stroke-width:0.5;" x1="794.2288" x2="794.2288" y1="596.1094" y2="602.1094"/><line style="stroke:#181818;stroke-width:0.5;" x1="800.2288" x2="794.2288" y1="602.1094" y2="602.1094"/><text fill="#000000" font-family="sans-serif" font-size="14" lengthAdjust="spacing" textLength="97.2344" x="687.9944" y="618.6426">Ollama / mistral</text></g><!--entity Groq--><g class="entity" data-qualified-name="Groq" data-source-line="27" id="ent0012"><path d="M16.443,596.6975 C19.5451,591.2472 24.5749,590.8152 28.4735,595.7773 C31.6061,591.012 35.1798,589.7887 39.3673,594.574 C43.8122,587.6256 48.8224,588.4717 53.0934,594.7545 C55.6528,588.757 60.7734,588.7209 64.7018,593.2439 C67.4386,588.1136 72.0057,586.1673 76.1505,591.7374 C80.2676,585.6613 85.8731,585.3264 89.6775,592.0674 C93.7149,586.2643 98.3115,586.2306 101.4593,592.9073 C104.9697,588.217 109.9555,588.4902 112.3239,594.1108 C117.5567,587.0472 122.046,587.5318 126.3811,594.9804 C130.0056,590.5462 133.07,590.3106 136.5571,595.1316 C139.8824,588.7517 145.1251,588.2773 148.7175,594.8814 C153.8396,589.6979 159.577,590.2972 162.2167,597.5712 C169.6073,601.8915 170.0447,607.4175 164.2354,613.4192 C171.8421,618.5059 170.3857,625.6765 162.7938,629.3915 C158.6024,635.3088 153.2013,635.039 150.5163,627.9676 C147.0406,633.8911 143.0755,634.6957 138.3799,629.2725 C133.4803,635.9871 129.1192,635.2045 125.0183,628.4785 C121.4295,634.252 117.8879,634.6835 114.0152,628.7453 C109.1882,635.8723 104.5754,633.9131 100.2511,628.2063 C97.9195,634.2321 92.9795,634.1856 89.3225,629.5672 C84.597,635.665 79.5037,634.8854 75.6461,628.6079 C72.7951,635.0307 66.9463,634.0337 63.5514,629.1919 C60.4638,634.6286 54.8057,635.0745 52.2027,628.7253 C47.6835,633.8559 43.1352,633.8882 39.1031,628.1389 C35.6769,634.7022 30.0164,634.5961 26.7651,627.9752 C23.258,634.6832 18.8483,634.4191 14.5875,628.7145 C6,625.3892 6.6034,617.4884 12.9841,612.6674 C6.2341,605.7922 8.0398,600.2907 16.443,596.6975" fill="#F1F1F1" style="stroke:#181818;stroke-width:0.5;"/><text fill="#000000" font-family="sans-serif" font-size="14" lengthAdjust="spacing" textLength="132.2822" x="21.4944" y="617.1426">Service externe Groq</text></g><!--link Browser to Angular--><g class="link" data-entity-1="ent0002" data-entity-2="ent0004" data-link-type="dependency" data-source-line="32" id="lnk15"><path d="M387.4944,126.6794 C387.4944,153.7194 387.4944,197.6594 387.4944,228.5794" fill="none" id="Browser-to-Angular" style="stroke:#181818;stroke-width:1;"/><polygon fill="#181818" points="387.4944,233.5794,391.4944,224.5794,387.4944,228.5794,383.4944,224.5794,387.4944,233.5794" style="stroke:#181818;stroke-width:1;stroke-linejoin:miter;stroke-miterlimit:10;"/><text fill="#000000" font-family="sans-serif" font-size="13" lengthAdjust="spacing" textLength="98.2744" x="388.4944" y="173.1045">chargement SPA</text></g><!--link Angular to Spring--><g class="link" data-entity-1="ent0004" data-entity-2="ent0006" data-link-type="dependency" data-source-line="33" id="lnk16"><path d="M387.4944,291.9694 C387.4944,325.4894 387.4944,375.9194 387.4944,409.3794" fill="none" id="Angular-to-Spring" style="stroke:#181818;stroke-width:1;"/><polygon fill="#181818" points="387.4944,414.3794,391.4944,405.3794,387.4944,409.3794,383.4944,405.3794,387.4944,414.3794" style="stroke:#181818;stroke-width:1;stroke-linejoin:miter;stroke-miterlimit:10;"/><text fill="#000000" font-family="sans-serif" font-size="13" lengthAdjust="spacing" textLength="72.2236" x="388.4944" y="338.1045">HTTP REST</text><text fill="#000000" font-family="sans-serif" font-size="13" lengthAdjust="spacing" textLength="69.3418" x="389.9353" y="354.4561">JWT Bearer</text></g><!--link Spring to DB--><g class="link" data-entity-1="ent0006" data-entity-2="ent0011" data-link-type="dependency" data-source-line="34" id="lnk17"><path d="M417.1544,472.7394 C426.6844,482.4294 436.9744,493.6194 445.4944,504.6094 C463.8744,528.3294 479.0022,553.182 491.2422,574.932" fill="none" id="Spring-to-DB" style="stroke:#181818;stroke-width:1;"/><polygon fill="#181818" points="493.6944,579.2894,492.7664,569.4843,491.2422,574.932,485.7946,573.4078,493.6944,579.2894" style="stroke:#181818;stroke-width:1;stroke-linejoin:miter;stroke-miterlimit:10;"/><text fill="#000000" font-family="sans-serif" font-size="13" lengthAdjust="spacing" textLength="68.6245" x="459.4944" y="519.1045">JDBC / JPA</text></g><!--link Spring to FastAPI--><g class="link" data-entity-1="ent0006" data-entity-2="ent0008" data-link-type="dependency" data-source-line="35" id="lnk18"><path d="M373.0744,472.7694 C355.9244,506.2594 330.0234,556.849 314.9834,586.219" fill="none" id="Spring-to-FastAPI" style="stroke:#181818;stroke-width:1;"/><polygon fill="#181818" points="312.7044,590.6694,320.3669,584.4818,314.9834,586.219,313.2463,580.8354,312.7044,590.6694" style="stroke:#181818;stroke-width:1;stroke-linejoin:miter;stroke-miterlimit:10;"/><text fill="#000000" font-family="sans-serif" font-size="13" lengthAdjust="spacing" textLength="80.1836" x="356.4944" y="519.1045">HTTP /predict</text></g><!--link FastAPI to Model--><g class="link" data-entity-1="ent0008" data-entity-2="ent0009" data-link-type="dependency" data-source-line="36" id="lnk19"><path d="M302.6344,632.2294 C302.8044,656.0294 303.0575,691.3195 303.2575,718.4295" fill="none" id="FastAPI-to-Model" style="stroke:#181818;stroke-width:1;"/><polygon fill="#181818" points="303.2944,723.4294,307.2279,714.4001,303.2575,718.4295,299.2281,714.4591,303.2944,723.4294" style="stroke:#181818;stroke-width:1;stroke-linejoin:miter;stroke-miterlimit:10;"/><text fill="#000000" font-family="sans-serif" font-size="13" lengthAdjust="spacing" textLength="114.8989" x="304.4944" y="690.1045">chargement modele</text></g><!--link Spring to Groq--><g class="link" data-entity-1="ent0006" data-entity-2="ent0012" data-link-type="dependency" data-source-line="37" id="lnk20"><path d="M313.8144,459.4594 C277.1544,468.8894 233.1744,483.3994 197.4944,504.6094 C160.3344,526.6994 129.1229,559.803 109.0029,583.723" fill="none" id="Spring-to-Groq" style="stroke:#181818;stroke-width:1;"/><polygon fill="#181818" points="105.7844,587.5494,114.6388,583.2367,109.0029,583.723,108.5166,578.0871,105.7844,587.5494" style="stroke:#181818;stroke-width:1;stroke-linejoin:miter;stroke-miterlimit:10;"/><text fill="#000000" font-family="sans-serif" font-size="13" lengthAdjust="spacing" textLength="143.7744" x="198.4944" y="519.1045">HTTPS chat completions</text></g><!--link Spring to Ollama--><g class="link" data-entity-1="ent0006" data-entity-2="ent0014" data-link-type="dependency" data-source-line="38" id="lnk21"><path d="M461.2144,472.6994 C485.4044,482.3394 512.2844,493.5094 536.4944,504.6094 C597.1344,532.4194 661.2265,566.4922 701.6965,588.6022" fill="none" id="Spring-to-Ollama" style="stroke:#181818;stroke-width:1;"/><polygon fill="#181818" points="706.0844,590.9994,700.104,583.1741,701.6965,588.6022,696.2685,590.1947,706.0844,590.9994" style="stroke:#181818;stroke-width:1;stroke-linejoin:miter;stroke-miterlimit:10;"/><text fill="#000000" font-family="sans-serif" font-size="13" lengthAdjust="spacing" textLength="120.6689" x="571.4944" y="519.1045">HTTP local optionnel</text></g><?plantuml-src RP91Rzim38Nl_XL4pirwxs60dMphWcJB9WEx12XecN7Lof8dCSsAOVzzaYnZJZh01qll-IFvQ5Qi2KfczOHEmShs0teFIrWhx1psFK4Rdq5RHJqPBWh_hCo0GGF_YAqzAzF14RMdcM9iIu9V0zgHP3ITfgA8bx3OMyy49rPQUMGwkGNyBW3GiJgYP5XymHVL9GNEr2m0FLJEdZsvuiy44UHUek7eh64oxJMZ70Qj9BAo1ahJdJIwWxclTziRM0bn0nkHk5bwosrGFly7AmONfwsiPIZtdmy6St1BEGRtBXmIUNI-1U-sryoFw3cmaX8-pCSBoouWGfHFjj6gEHXsQ7mGmd0FOKRgh7jzwACd4PBxN-KA_RX3QmoH7yktoDX48QsZSoI-RGyc3z6qYREk8aHgUsh7_fKae5zCpX1ySlPdSiMNsOpHewr43NQ83PhOrEN0NxN67k4MUkN3A6FJusKic7SDo-NxQJzm1_8HNPT-G13xifY4QCfBkOFxkjx3zm-YFfZDZnegGXV-cIn7vxeAhiswMeNYcq2PITCMCkLsSDGgoSLq7pqfsCjUKkeq1yKyCaL49qDCLLCCmy-DEOPSy2gplm00?></g></svg>