<svg xmlns="http://www.w3.org/2000/svg" xmlns:xlink="http://www.w3.org/1999/xlink" contentStyleType="text/css" data-diagram-type="DESCRIPTION" height="1083px" preserveAspectRatio="none" style="width:1082px;height:1083px;background:#FFFFFF;" version="1.1" viewBox="0 0 1082 1083" width="1082px" zoomAndPan="magnify"><?plantuml 1.2026.4?><defs/><g><g class="title" data-source-line="1"><text fill="#000000" font-family="sans-serif" font-size="14" font-weight="700" lengthAdjust="spacing" textLength="364.2871" x="355.3564" y="24.5332">Attijari Compass - Architecture globale de l'application</text></g><!--cluster Front--><g class="cluster" data-qualified-name="Front" data-source-line="11" id="ent0003"><rect fill="none" height="315.86" rx="4" ry="4" style="stroke:#181818;stroke-width:1;" width="238" x="321" y="177.1094"/><text fill="#000000" font-family="sans-serif" font-size="14" font-weight="700" lengthAdjust="spacing" textLength="136.8965" x="371.5518" y="193.6426">Frontend Angular 17</text></g><!--cluster Back--><g class="cluster" data-qualified-name="Back" data-source-line="17" id="ent0007"><rect fill="none" height="386.5" rx="4" ry="4" style="stroke:#181818;stroke-width:1;" width="321" x="306" y="550.9694"/><text fill="#000000" font-family="sans-serif" font-size="14" font-weight="700" lengthAdjust="spacing" textLength="142.3447" x="395.3276" y="567.5026">Backend Spring Boot</text></g><!--cluster ML--><g class="cluster" data-qualified-name="ML" data-source-line="26" id="ent0013"><rect fill="none" height="239" rx="4" ry="4" style="stroke:#181818;stroke-width:1;" width="267" x="7" y="830.9694"/><text fill="#000000" font-family="sans-serif" font-size="14" font-weight="700" lengthAdjust="spacing" textLength="165.7236" x="57.6382" y="847.5026">Microservice ML FastAPI</text></g><!--cluster AI--><g class="cluster" data-qualified-name="AI" data-source-line="31" id="ent0016"><rect fill="none" height="219.5" rx="4" ry="4" style="stroke:#181818;stroke-width:1;" width="208" x="651" y="838.9694"/><text fill="#000000" font-family="sans-serif" font-size="14" font-weight="700" lengthAdjust="spacing" textLength="128.3105" x="690.8447" y="855.5026">Chatbot RAG / LLM</text></g><!--cluster BI--><g class="cluster" data-qualified-name="BI" data-source-line="36" id="ent0019"><rect fill="none" height="334.86" rx="4" ry="4" style="stroke:#181818;stroke-width:1;" width="409" x="659" y="314.1094"/><text fill="#000000" font-family="sans-serif" font-size="14" font-weight="700" lengthAdjust="spacing" textLength="66.1035" x="830.4482" y="330.6426">Reporting</text></g><!--entity Pages--><g class="entity" data-qualified-name="Front.Pages" data-source-line="12" id="ent0004"><rect fill="#F1F1F1" height="37.6094" rx="4" ry="4" style="stroke:#181818;stroke-width:0.5;" width="154.6338" x="366.5" y="221.1094"/><text fill="#000000" font-family="sans-serif" font-size="14" lengthAdjust="spacing" textLength="134.6338" x="376.5" y="245.6426">Pages et composants</text></g><!--entity NgServices--><g class="entity" data-qualified-name="Front.NgServices" data-source-line="13" id="ent0005"><rect fill="#F1F1F1" height="37.6094" rx="4" ry="4" style="stroke:#181818;stroke-width:0.5;" width="125.8271" x="381" y="323.4694"/><text fill="#000000" font-family="sans-serif" font-size="14" lengthAdjust="spacing" textLength="105.8271" x="391" y="348.0026">Services Angular</text></g><!--entity NgSecurity--><g class="entity" data-qualified-name="Front.NgSecurity" data-source-line="14" id="ent0006"><rect fill="#F1F1F1" height="37.6094" rx="4" ry="4" style="stroke:#181818;stroke-width:0.5;" width="181.4443" x="353.5" y="430.9694"/><text fill="#000000" font-family="sans-serif" font-size="14" lengthAdjust="spacing" textLength="161.4443" x="363.5" y="455.5026">Guards + Interceptor JWT</text></g><!--entity Rest--><g class="entity" data-qualified-name="Back.Rest" data-source-line="18" id="ent0008"><rect fill="#F1F1F1" height="37.6094" rx="4" ry="4" style="stroke:#181818;stroke-width:0.5;" width="128.917" x="379.5" y="586.9694"/><text fill="#000000" font-family="sans-serif" font-size="14" lengthAdjust="spacing" textLength="108.917" x="389.5" y="611.5026">Controllers REST</text></g><!--entity Sec--><g class="entity" data-qualified-name="Back.Sec" data-source-line="19" id="ent0009"><rect fill="#F1F1F1" height="55.2188" rx="4" ry="4" style="stroke:#181818;stroke-width:0.5;" width="137.4551" x="322.5" y="703.9694"/><text fill="#000000" font-family="sans-serif" font-size="14" lengthAdjust="spacing" textLength="101.165" x="332.5" y="728.5026">Couche securite</text><text fill="#000000" font-family="sans-serif" font-size="14" lengthAdjust="spacing" textLength="117.4551" x="332.5" y="746.112">JWT, roles, BCrypt</text></g><!--entity Biz--><g class="entity" data-qualified-name="Back.Biz" data-source-line="20" id="ent0010"><rect fill="#F1F1F1" height="37.6094" rx="4" ry="4" style="stroke:#181818;stroke-width:0.5;" width="116.4688" x="495" y="712.4694"/><text fill="#000000" font-family="sans-serif" font-size="14" lengthAdjust="spacing" textLength="96.4688" x="505" y="737.0026">Services metier</text></g><!--entity Jpa--><g class="entity" data-qualified-name="Back.Jpa" data-source-line="21" id="ent0011"><rect fill="#F1F1F1" height="37.6094" rx="4" ry="4" style="stroke:#181818;stroke-width:0.5;" width="127.3789" x="483.5" y="883.4694"/><text fill="#000000" font-family="sans-serif" font-size="14" lengthAdjust="spacing" textLength="107.3789" x="493.5" y="908.0026">Repositories JPA</text></g><!--entity Predict--><g class="entity" data-qualified-name="ML.Predict" data-source-line="27" id="ent0014"><rect fill="#F1F1F1" height="55.2188" rx="4" ry="4" style="stroke:#181818;stroke-width:0.5;" width="198.5547" x="50.5" y="874.9694"/><text fill="#000000" font-family="sans-serif" font-size="14" lengthAdjust="spacing" textLength="123.7373" x="60.5" y="899.5026">Prediction categorie</text><text fill="#000000" font-family="sans-serif" font-size="14" lengthAdjust="spacing" textLength="178.5547" x="60.5" y="917.112">TF-IDF + LogisticRegression</text></g><!--entity Dataset--><g class="entity" data-qualified-name="ML.Dataset" data-source-line="28" id="ent0015"><rect fill="#F1F1F1" height="55.2188" rx="4" ry="4" style="stroke:#181818;stroke-width:0.5;" width="146.0479" x="77" y="990.9694"/><text fill="#000000" font-family="sans-serif" font-size="14" lengthAdjust="spacing" textLength="126.0479" x="87" y="1015.5026">Datasets CSV/Excel</text><text fill="#000000" font-family="sans-serif" font-size="14" lengthAdjust="spacing" textLength="82.4961" x="87" y="1033.112">Modele joblib</text></g><!--entity Rag--><g class="entity" data-qualified-name="AI.Rag" data-source-line="32" id="ent0017"><rect fill="#F1F1F1" height="55.2188" rx="4" ry="4" style="stroke:#181818;stroke-width:0.5;" width="174.8682" x="667.5" y="874.9694"/><text fill="#000000" font-family="sans-serif" font-size="14" lengthAdjust="spacing" textLength="154.8682" x="677.5" y="899.5026">Construction du contexte</text><text fill="#000000" font-family="sans-serif" font-size="14" lengthAdjust="spacing" textLength="116.7236" x="677.5" y="917.112">financier utilisateur</text></g><!--entity Groq--><g class="entity" data-qualified-name="AI.Groq" data-source-line="33" id="ent0018"><path d="M720.8172,1004.1196 C722.9967,997.5626 726.6578,996.1142 732.0342,1000.9805 C735.5642,995.0967 739.5655,995.7026 743.25,1000.8231 C745.3159,994.821 749.7775,992.403 754.879,997.6984 C759.3045,993.408 763.8255,994.1285 766.7634,999.5237 C771.6333,994.6881 778.1814,995.4813 780.3422,1002.6007 C783.6667,996.4534 789.3921,996.43 792.6983,1002.6191 C802.7877,1002.9769 806.1042,1011.4143 800.9845,1019.3188 C805.6934,1029.095 803.1835,1034.77 791.8915,1035.6216 C789.052,1041.9056 785.0714,1042.3096 780.2472,1037.7536 C778.4695,1044.8804 774.8031,1045.7773 768.7588,1042.4361 C766.9243,1050.2618 760.717,1050.8567 755.7974,1045.4603 C750.3136,1049.711 746.4266,1048.1218 744.2026,1041.8636 C739.0922,1046.9083 734.3759,1044.9851 732.1501,1038.7747 C726.9604,1044.8387 721.4102,1041.6366 719.4897,1035.4078 C711.044,1032.9022 709.5247,1027.5772 713.6847,1020.2455 C708.3825,1013.0712 710.8408,1004.5362 720.8172,1004.1196" fill="#F1F1F1" style="stroke:#181818;stroke-width:0.5;"/><text fill="#000000" font-family="sans-serif" font-size="14" lengthAdjust="spacing" textLength="57.5791" x="726" y="1024.0026">Groq API</text></g><!--entity Dash--><g class="entity" data-qualified-name="BI.Dash" data-source-line="37" id="ent0020"><rect fill="#F1F1F1" height="37.6094" rx="4" ry="4" style="stroke:#181818;stroke-width:0.5;" width="140.6338" x="902.5" y="430.9694"/><text fill="#000000" font-family="sans-serif" font-size="14" lengthAdjust="spacing" textLength="120.6338" x="912.5" y="455.5026">Dashboard Angular</text></g><!--entity Reports--><g class="entity" data-qualified-name="BI.Reports" data-source-line="38" id="ent0021"><rect fill="#F1F1F1" height="37.6094" rx="4" ry="4" style="stroke:#181818;stroke-width:0.5;" width="139.834" x="793" y="586.9694"/><text fill="#000000" font-family="sans-serif" font-size="14" lengthAdjust="spacing" textLength="119.834" x="803" y="611.5026">Reports API Spring</text></g><!--entity PowerBI--><g class="entity" data-qualified-name="BI.PowerBI" data-source-line="39" id="ent0022"><rect fill="#F1F1F1" height="55.2188" rx="4" ry="4" style="stroke:#181818;stroke-width:0.5;" width="184.2129" x="683" y="422.4694"/><text fill="#000000" font-family="sans-serif" font-size="14" lengthAdjust="spacing" textLength="56.7998" x="693" y="447.0026">Power BI</text><text fill="#000000" font-family="sans-serif" font-size="14" lengthAdjust="spacing" textLength="164.2129" x="693" y="464.612">non confirme dans le code</text></g><!--entity User--><g class="entity" data-qualified-name="User" data-source-line="8" id="ent0001"><ellipse cx="274.1206" cy="52.6094" fill="#F1F1F1" rx="8" ry="8" style="stroke:#181818;stroke-width:0.5;"/><path d="M274.1206,60.6094 L274.1206,87.6094 M261.1206,68.6094 L287.1206,68.6094 M274.1206,87.6094 L261.1206,102.6094 M274.1206,87.6094 L287.1206,102.6094" fill="none" style="stroke:#181818;stroke-width:0.5;"/><text fill="#000000" font-family="sans-serif" font-size="14" lengthAdjust="spacing" textLength="62.2412" x="243" y="118.6426">Utilisateur</text></g><!--entity Admin--><g class="entity" data-qualified-name="Admin" data-source-line="9" id="ent0002"><ellipse cx="385.1274" cy="52.6094" fill="#F1F1F1" rx="8" ry="8" style="stroke:#181818;stroke-width:0.5;"/><path d="M385.1274,60.6094 L385.1274,87.6094 M372.1274,68.6094 L398.1274,68.6094 M385.1274,87.6094 L372.1274,102.6094 M385.1274,87.6094 L398.1274,102.6094" fill="none" style="stroke:#181818;stroke-width:0.5;"/><text fill="#000000" font-family="sans-serif" font-size="14" lengthAdjust="spacing" textLength="90.2549" x="340" y="118.6426">Administrateur</text></g><!--entity DB--><g class="entity" data-qualified-name="DB" data-source-line="24" id="ent0012"><path d="M529,1004.9694 C529,994.9694 577.1309,994.9694 577.1309,994.9694 C577.1309,994.9694 625.2617,994.9694 625.2617,1004.9694 L625.2617,1031.5788 C625.2617,1041.5788 577.1309,1041.5788 577.1309,1041.5788 C577.1309,1041.5788 529,1041.5788 529,1031.5788 L529,1004.9694" fill="#F1F1F1" style="stroke:#181818;stroke-width:0.5;"/><path d="M529,1004.9694 C529,1014.9694 577.1309,1014.9694 577.1309,1014.9694 C577.1309,1014.9694 625.2617,1014.9694 625.2617,1004.9694" fill="none" style="stroke:#181818;stroke-width:0.5;"/><text fill="#000000" font-family="sans-serif" font-size="14" lengthAdjust="spacing" textLength="76.2617" x="539" y="1033.5026">PostgreSQL</text></g><!--link User to Front--><g class="link" data-entity-1="ent0001" data-entity-2="ent0003" data-link-type="dependency" data-source-line="42" id="lnk23"><path d="M287.6,122.4194 C295.615,145.0144 305.77,173.6344 314.0163,196.8756 C316.0778,202.6859 318.0201,208.1601 319.7798,213.1199 C319.9997,213.7398 320.2169,214.3518 320.431,214.9553 C320.5381,215.2571 320.6444,215.5568 320.7499,215.8543 C320.8027,216.0031 319.1835,211.4391 319.2359,211.5868" fill="none" id="User-to-Front" style="stroke:#181818;stroke-width:1;"/><polygon fill="#181818" points="320.9077,216.299,321.6682,206.4796,319.2359,211.5868,314.1286,209.1545,320.9077,216.299" style="stroke:#181818;stroke-width:1;stroke-linejoin:miter;stroke-miterlimit:10;"/></g><!--link Admin to Front--><g class="link" data-entity-1="ent0002" data-entity-2="ent0003" data-link-type="dependency" data-source-line="43" id="lnk24"><path d="M356.42,122.3294 C348.89,134.1994 341.59,147.6994 337,161.1094 C335.6337,165.1019 334.4811,169.2712 333.5103,173.5161 C333.2676,174.5773 334.0461,170.7463 333.8257,171.8154" fill="none" id="Admin-to-Front" style="stroke:#181818;stroke-width:1;"/><polygon fill="#181818" points="332.8159,176.7123,338.5511,168.7056,333.8257,171.8154,330.7159,167.09,332.8159,176.7123" style="stroke:#181818;stroke-width:1;stroke-linejoin:miter;stroke-miterlimit:10;"/></g><!--link Pages to NgServices--><g class="link" data-entity-1="ent0004" data-entity-2="ent0005" data-link-type="dependency" data-source-line="44" id="lnk25"><path d="M444,259.5194 C444,277.6294 444,300.1094 444,318.1794" fill="none" id="Pages-to-NgServices" style="stroke:#181818;stroke-width:1;"/><polygon fill="#181818" points="444,323.1794,448,314.1794,444,318.1794,440,314.1794,444,323.1794" style="stroke:#181818;stroke-width:1;stroke-linejoin:miter;stroke-miterlimit:10;"/></g><!--link NgServices to NgSecurity--><g class="link" data-entity-1="ent0005" data-entity-2="ent0006" data-link-type="dependency" data-source-line="45" id="lnk26"><path d="M444,361.8494 C444,381.2094 444,406.5194 444,425.7994" fill="none" id="NgServices-to-NgSecurity" style="stroke:#181818;stroke-width:1;"/><polygon fill="#181818" points="444,430.7994,448,421.7994,444,425.7994,440,421.7994,444,430.7994" style="stroke:#181818;stroke-width:1;stroke-linejoin:miter;stroke-miterlimit:10;"/></g><!--link NgSecurity to Rest--><g class="link" data-entity-1="ent0006" data-entity-2="ent0008" data-link-type="dependency" data-source-line="46" id="lnk27"><path d="M444,469.2394 C444,498.8794 444,552.0994 444,581.7194" fill="none" id="NgSecurity-to-Rest" style="stroke:#181818;stroke-width:1;"/><polygon fill="#181818" points="444,586.7194,448,577.7194,444,581.7194,440,577.7194,444,586.7194" style="stroke:#181818;stroke-width:1;stroke-linejoin:miter;stroke-miterlimit:10;"/><text fill="#000000" font-family="sans-serif" font-size="13" lengthAdjust="spacing" textLength="100.769" x="445" y="531.4645">REST /api + JWT</text></g><!--link Rest to Sec--><g class="link" data-entity-1="ent0008" data-entity-2="ent0009" data-link-type="dependency" data-source-line="48" id="lnk28"><path d="M436.18,625.1894 C427.25,645.9894 414.5415,675.6045 404.3515,699.3545" fill="none" id="Rest-to-Sec" style="stroke:#181818;stroke-width:1;"/><polygon fill="#181818" points="402.38,703.9494,409.6046,697.2557,404.3515,699.3545,402.2527,694.1013,402.38,703.9494" style="stroke:#181818;stroke-width:1;stroke-linejoin:miter;stroke-miterlimit:10;"/></g><!--link Rest to Biz--><g class="link" data-entity-1="ent0008" data-entity-2="ent0010" data-link-type="dependency" data-source-line="49" id="lnk29"><path d="M460.08,625.1894 C480.69,648.5394 512.9009,685.041 533.5409,708.421" fill="none" id="Rest-to-Biz" style="stroke:#181818;stroke-width:1;"/><polygon fill="#181818" points="536.85,712.1694,533.8924,702.7751,533.5409,708.421,527.895,708.0696,536.85,712.1694" style="stroke:#181818;stroke-width:1;stroke-linejoin:miter;stroke-miterlimit:10;"/></g><!--link Biz to Jpa--><g class="link" data-entity-1="ent0010" data-entity-2="ent0011" data-link-type="dependency" data-source-line="50" id="lnk30"><path d="M552.36,750.5594 C551.21,782.9994 548.9766,845.7325 547.8266,878.2625" fill="none" id="Biz-to-Jpa" style="stroke:#181818;stroke-width:1;"/><polygon fill="#181818" points="547.65,883.2594,551.9655,874.4063,547.8266,878.2625,543.9705,874.1237,547.65,883.2594" style="stroke:#181818;stroke-width:1;stroke-linejoin:miter;stroke-miterlimit:10;"/></g><!--link Jpa to DB--><g class="link" data-entity-1="ent0011" data-entity-2="ent0012" data-link-type="dependency" data-source-line="51" id="lnk31"><path d="M551.75,921.5294 C556.97,941.3694 564.0976,968.434 569.7576,989.944" fill="none" id="Jpa-to-DB" style="stroke:#181818;stroke-width:1;"/><polygon fill="#181818" points="571.03,994.7794,572.6081,985.0578,569.7576,989.944,564.8714,987.0935,571.03,994.7794" style="stroke:#181818;stroke-width:1;stroke-linejoin:miter;stroke-miterlimit:10;"/></g><!--link Biz to ML--><g class="link" data-entity-1="ent0010" data-entity-2="ent0013" data-link-type="dependency" data-source-line="53" id="lnk32"><path d="M506.02,750.5694 C496.52,753.7394 486.52,756.7294 477,758.9694 C380.4,781.6494 107.27,748.0494 34,814.9694 C30.4238,818.2356 27.44,822.0077 24.9571,826.1116 C24.3363,827.1375 23.7469,828.1843 23.1873,829.249 C22.9076,829.7814 24.8347,825.828 24.5697,826.3691" fill="none" id="Biz-to-ML" style="stroke:#181818;stroke-width:1;"/><polygon fill="#181818" points="22.3702,830.8593,29.9215,824.5365,24.5697,826.3691,22.7371,821.0173,22.3702,830.8593" style="stroke:#181818;stroke-width:1;stroke-linejoin:miter;stroke-miterlimit:10;"/><text fill="#000000" font-family="sans-serif" font-size="13" lengthAdjust="spacing" textLength="80.939" x="83" y="803.4645">categorisation</text></g><!--link Predict to Dataset--><g class="link" data-entity-1="ent0014" data-entity-2="ent0015" data-link-type="dependency" data-source-line="54" id="lnk33"><path d="M150,930.1994 C150,948.4894 150,967.6494 150,985.9094" fill="none" id="Predict-to-Dataset" style="stroke:#181818;stroke-width:1;"/><polygon fill="#181818" points="150,990.9094,154,981.9094,150,985.9094,146,981.9094,150,990.9094" style="stroke:#181818;stroke-width:1;stroke-linejoin:miter;stroke-miterlimit:10;"/></g><!--link Biz to Rag--><g class="link" data-entity-1="ent0010" data-entity-2="ent0017" data-link-type="dependency" data-source-line="56" id="lnk34"><path d="M574.62,750.5594 C610.34,780.4394 678.0247,837.0715 719.4747,871.7415" fill="none" id="Biz-to-Rag" style="stroke:#181818;stroke-width:1;"/><polygon fill="#181818" points="723.31,874.9494,718.9729,866.1069,719.4747,871.7415,713.8402,872.2433,723.31,874.9494" style="stroke:#181818;stroke-width:1;stroke-linejoin:miter;stroke-miterlimit:10;"/><text fill="#000000" font-family="sans-serif" font-size="13" lengthAdjust="spacing" textLength="89.6099" x="642" y="803.4645">donnees metier</text></g><!--link Rag to DB--><g class="link" data-entity-1="ent0017" data-entity-2="ent0012" data-link-type="dependency" data-source-line="57" id="lnk35"><path d="M713.27,930.1994 C682.54,949.8794 645.4402,973.6323 616.3902,992.2423" fill="none" id="Rag-to-DB" style="stroke:#181818;stroke-width:1;"/><polygon fill="#181818" points="612.18,994.9394,621.916,993.4527,616.3902,992.2423,617.6006,986.7164,612.18,994.9394" style="stroke:#181818;stroke-width:1;stroke-linejoin:miter;stroke-miterlimit:10;"/></g><!--link Rag to Groq--><g class="link" data-entity-1="ent0017" data-entity-2="ent0018" data-link-type="dependency" data-source-line="58" id="lnk36"><path d="M755,930.1994 C755,949.6794 755,970.7994 755,989.3794" fill="none" id="Rag-to-Groq" style="stroke:#181818;stroke-width:1;"/><polygon fill="#181818" points="755,994.3794,759,985.3794,755,989.3794,751,985.3794,755,994.3794" style="stroke:#181818;stroke-width:1;stroke-linejoin:miter;stroke-miterlimit:10;"/></g><!--link Dash to Reports--><g class="link" data-entity-1="ent0020" data-entity-2="ent0021" data-link-type="dependency" data-source-line="60" id="lnk37"><path d="M959.95,469.2394 C938.78,498.8794 900.0965,553.0309 878.9365,582.6509" fill="none" id="Dash-to-Reports" style="stroke:#181818;stroke-width:1;"/><polygon fill="#181818" points="876.03,586.7194,884.5164,581.7213,878.9365,582.6509,878.0068,577.0709,876.03,586.7194" style="stroke:#181818;stroke-width:1;stroke-linejoin:miter;stroke-miterlimit:10;"/></g><!--link Reports to Biz--><g class="link" data-entity-1="ent0021" data-entity-2="ent0010" data-link-type="dependency" data-source-line="61" id="lnk38"><path d="M817.59,625.0594 C758.81,648.4794 661.6349,687.1888 602.9249,710.5788" fill="none" id="Reports-to-Biz" style="stroke:#181818;stroke-width:1;"/><polygon fill="#181818" points="598.28,712.4294,608.1213,712.8144,602.9249,710.5788,605.1605,705.3824,598.28,712.4294" style="stroke:#181818;stroke-width:1;stroke-linejoin:miter;stroke-miterlimit:10;"/></g><!--link BI to PowerBI--><g class="link" data-entity-1="ent0019" data-entity-2="ent0022" data-link-type="dependency" data-source-line="62" id="lnk39"><path d="M775,343.5494 C775,345.6694 775,386.7294 775,417.2594" fill="none" id="BI-to-PowerBI" style="stroke:#181818;stroke-width:1;"/><polygon fill="#181818" points="775,422.2594,779,413.2594,775,417.2594,771,413.2594,775,422.2594" style="stroke:#181818;stroke-width:1;stroke-linejoin:miter;stroke-miterlimit:10;"/></g><?plantuml-src TLHDRzim3BtxLn2zxB06nKuRUXXW9qtX8XcwfDqkkJ0owwXr98-IrtR3_lieoVbojuC1YNoa7ib7U-qRWjnx_OYiOMotBJe78yXPRRGdvJicg1kxHi5L1CqxRDj6A_JQcYnpJzgqoBW5jy7AFcjJmmCsZeuyB5dGr1B_EmDOsCvKOyk663vbVx8CbRSCP_TUDzgXfuxF01tSE-ATBw-sscZd-U2EfYmxv3wRiZMUJ0MvgRi66JvyZCXeZqyVWM-n9WVaGKd5rg7nBeAZ_HIw9FwfbQ3xl17tfTwPJy7N7NBbu3sKmeKLjO7_pVUxVP3gMFlNKFTHL87gAJ1VjXmQM5ZhOq2m3vcFfHgsJKFiO76rJ9aNvFmGrgaDWKiFqie8YNEGG7BdK8pvjKrF2AF_bBibhobLM-XVfw05ITEqrAO5U7ERHzHDYw6k2ZskqOKcM-ThfkNNMVHFYfEYvrgnTUarcCzWYixdjsM4odKuCAPAgo0w4ErH7PvUcRlfg9nCfTqpMui-j5gGFEYSmD8uKzHfgeaGTEGTZ9VVBgvU53KhCxSLYU_HhXkzJcmJQZ2fyGRzsdfOvDTm0RFPF8cn_CUKHAvT8bnr8ZFHmqkOmuCsQ9Hq5hg1uXTOInBLsAuI8R7z0RjsXCk0I9W0Ur5B6j0R0XDqcxKLCPx8DbZVJfAb5_9KBxzUKD4yc85z5jf5kJ8cZC5ABRoLlm8Q1-9NqiFKzO0hoi0uR36CHf_J5cPnQu_kQGt3_MYX3iUzfz-Qmp5wWkhXCcu1N62hHGUYyYoBzW08ujvVWeZbY-SWLVdYESXoPnVTNUxrvT8_hjTGmlQYs0V8p2IYiiRGVcMoOEmpxuvnWbbeVyyyjNVN_Js_CXxx1lu5?></g></svg>